<svg width="128" height="133" viewBox="0 0 128 133" fill="none" xmlns="http://www.w3.org/2000/svg">
<g filter="url(#filter0_i_10_2)">
<path d="M118.646 94.757C121.858 93.357 123.193 91.307 124.159 90.1011C132.827 79.2747 114.333 47.14 87.9297 28.5457C59.9462 4.17921 29.1348 -4.1239 20.4671 6.70259C18.9794 8.56066 17.8136 11.0918 17.328 13.9482L0.874797 108.611C0.303514 120.151 4.71417 124.536 6.92142 126.678C10.9211 130.56 18.699 133.862 26.8113 131.005C58.118 118.951 87.4468 108.359 118.646 94.757Z" fill="url(#paint0_linear_10_2)"/>
</g>
<path d="M118.646 94.757C121.858 93.357 123.193 91.307 124.159 90.1011C132.827 79.2747 114.333 47.14 87.9297 28.5457C59.9462 4.17921 29.1348 -4.1239 20.4671 6.70259C18.9794 8.56066 17.8136 11.0918 17.328 13.9482L0.874797 108.611C0.303514 120.151 4.71417 124.536 6.92142 126.678C10.9211 130.56 18.699 133.862 26.8113 131.005C58.118 118.951 87.4468 108.359 118.646 94.757Z" fill="url(#paint1_linear_10_2)"/>
<path d="M118.646 94.757C121.858 93.357 123.193 91.307 124.159 90.1011C132.827 79.2747 114.333 47.14 87.9297 28.5457C59.9462 4.17921 29.1348 -4.1239 20.4671 6.70259C18.9794 8.56066 17.8136 11.0918 17.328 13.9482L0.874797 108.611C0.303514 120.151 4.71417 124.536 6.92142 126.678C10.9211 130.56 18.699 133.862 26.8113 131.005C58.118 118.951 87.4468 108.359 118.646 94.757Z" fill="url(#paint2_linear_10_2)"/>
<path d="M118.646 94.757C121.858 93.357 123.193 91.307 124.159 90.1011C132.827 79.2747 114.333 47.14 87.9297 28.5457C59.9462 4.17921 29.1348 -4.1239 20.4671 6.70259C18.9794 8.56066 17.8136 11.0918 17.328 13.9482L0.874797 108.611C0.303514 120.151 4.71417 124.536 6.92142 126.678C10.9211 130.56 18.699 133.862 26.8113 131.005C58.118 118.951 87.4468 108.359 118.646 94.757Z" fill="url(#paint3_linear_10_2)"/>
<g filter="url(#filter1_f_10_2)">
<ellipse cx="71.9305" cy="49.1852" rx="64.1484" ry="25.3321" transform="rotate(39.7456 71.9305 49.1852)" fill="url(#paint4_linear_10_2)"/>
</g>
<g filter="url(#filter2_f_10_2)">
<ellipse cx="73.8063" cy="45.9921" rx="59.4523" ry="21.3185" transform="rotate(39.7456 73.8063 45.9921)" fill="url(#paint5_linear_10_2)"/>
<ellipse cx="73.8063" cy="45.9921" rx="59.4523" ry="21.3185" transform="rotate(39.7456 73.8063 45.9921)" fill="url(#paint6_radial_10_2)"/>
<ellipse cx="73.8063" cy="45.9921" rx="59.4523" ry="21.3185" transform="rotate(39.7456 73.8063 45.9921)" fill="url(#paint7_radial_10_2)"/>
</g>
<path d="M98.6548 103.191C79.5987 101.867 66.233 96.1636 44.5787 78.2727C25.9507 62.8823 16.7024 49.2287 13.6157 35.3057L10.0396 55.8808C11.5011 63.9334 17.7853 75.1878 30.2394 86.4422C46.528 101.162 62.7457 111.579 78.7839 111.122C85.3848 108.545 91.9951 105.916 98.6548 103.191Z" fill="url(#paint8_radial_10_2)"/>
<path d="M58.4682 118.94C49.3095 119.451 36.9235 111.979 24.0695 101.296C13.1007 91.8124 7.69024 81.5093 6.55151 75.9497L2.91992 96.8439C3.8182 100.376 6.55391 105.177 14.4718 113.293C23.3258 122.368 32.2295 125.9 37.5169 126.904C41.2688 125.474 44.9979 124.058 48.7114 122.648C51.9743 121.409 55.225 120.175 58.4682 118.94Z" fill="url(#paint9_radial_10_2)"/>
<defs>
<filter id="filter0_i_10_2" x="0.824219" y="-1.62109" width="125.495" height="133.704" filterUnits="userSpaceOnUse" color-interpolation-filters="sRGB">
<feFlood flood-opacity="0" result="BackgroundImageFix"/>
<feBlend mode="normal" in="SourceGraphic" in2="BackgroundImageFix" result="shape"/>
<feColorMatrix in="SourceAlpha" type="matrix" values="0 0 0 0 0 0 0 0 0 0 0 0 0 0 0 0 0 0 127 0" result="hardAlpha"/>
<feOffset dy="-3.65625"/>
<feGaussianBlur stdDeviation="3.65625"/>
<feComposite in2="hardAlpha" operator="arithmetic" k2="-1" k3="1"/>
<feColorMatrix type="matrix" values="0 0 0 0 0.92549 0 0 0 0 0.34902 0 0 0 0 0.384314 0 0 0 1 0"/>
<feBlend mode="normal" in2="shape" result="effect1_innerShadow_10_2"/>
</filter>
<filter id="filter1_f_10_2" x="16.3457" y="0.113281" width="111.169" height="98.144" filterUnits="userSpaceOnUse" color-interpolation-filters="sRGB">
<feFlood flood-opacity="0" result="BackgroundImageFix"/>
<feBlend mode="normal" in="SourceGraphic" in2="BackgroundImageFix" result="shape"/>
<feGaussianBlur stdDeviation="1.82812" result="effect1_foregroundBlur_10_2"/>
</filter>
<filter id="filter2_f_10_2" x="24.6298" y="3.12295" width="98.3527" height="85.7385" filterUnits="userSpaceOnUse" color-interpolation-filters="sRGB">
<feFlood flood-opacity="0" result="BackgroundImageFix"/>
<feBlend mode="normal" in="SourceGraphic" in2="BackgroundImageFix" result="shape"/>
<feGaussianBlur stdDeviation="0.73125" result="effect1_foregroundBlur_10_2"/>
</filter>
<linearGradient id="paint0_linear_10_2" x1="12.8719" y1="59.1372" x2="71.8289" y2="110.325" gradientUnits="userSpaceOnUse">
<stop stop-color="#B3843C"/>
<stop offset="1" stop-color="#F17A61"/>
</linearGradient>
<linearGradient id="paint1_linear_10_2" x1="6.35708" y1="67.0589" x2="23.6121" y2="70.563" gradientUnits="userSpaceOnUse">
<stop stop-color="#B1853B"/>
<stop offset="1" stop-color="#B1853B" stop-opacity="0"/>
</linearGradient>
<linearGradient id="paint2_linear_10_2" x1="126.319" y1="87.2446" x2="97.1942" y2="92.0434" gradientUnits="userSpaceOnUse">
<stop stop-color="#F9C26C"/>
<stop offset="1" stop-color="#F9C26C" stop-opacity="0"/>
</linearGradient>
<linearGradient id="paint3_linear_10_2" x1="63.5717" y1="3.60788" x2="44.8641" y2="35.3715" gradientUnits="userSpaceOnUse">
<stop stop-color="#E6BF69"/>
<stop offset="1" stop-color="#E6BF69" stop-opacity="0"/>
</linearGradient>
<linearGradient id="paint4_linear_10_2" x1="72.1131" y1="72.4387" x2="79.6378" y2="22.1244" gradientUnits="userSpaceOnUse">
<stop stop-color="#FCCB57"/>
<stop offset="1" stop-color="#F5BD55"/>
</linearGradient>
<linearGradient id="paint5_linear_10_2" x1="19.6418" y1="43.6358" x2="140.151" y2="49.5259" gradientUnits="userSpaceOnUse">
<stop stop-color="#F3AB2C"/>
<stop offset="1" stop-color="#B57F1E"/>
</linearGradient>
<radialGradient id="paint6_radial_10_2" cx="0" cy="0" r="1" gradientUnits="userSpaceOnUse" gradientTransform="translate(43.8182 63.0595) rotate(-109.125) scale(47.3667 13.2669)">
<stop offset="0.423414" stop-color="#CA851E"/>
<stop offset="1" stop-color="#CA851E" stop-opacity="0"/>
</radialGradient>
<radialGradient id="paint7_radial_10_2" cx="0" cy="0" r="1" gradientUnits="userSpaceOnUse" gradientTransform="translate(93.4106 63.7258) rotate(-73.0972) scale(47.601 27.8756)">
<stop stop-color="#BC7F28"/>
<stop offset="1" stop-color="#BC7F28" stop-opacity="0"/>
</radialGradient>
<radialGradient id="paint8_radial_10_2" cx="0" cy="0" r="1" gradientUnits="userSpaceOnUse" gradientTransform="translate(64.0597 96.3826) rotate(133.21) scale(31.0395 67.9587)">
<stop stop-color="#3365FF"/>
<stop offset="1" stop-color="#356DB9"/>
</radialGradient>
<radialGradient id="paint9_radial_10_2" cx="0" cy="0" r="1" gradientUnits="userSpaceOnUse" gradientTransform="translate(36.1808 117.863) rotate(131.598) scale(19.16 48.4668)">
<stop stop-color="#3365FF"/>
<stop offset="1" stop-color="#356DB9"/>
</radialGradient>
</defs>
</svg>
