<svg width="71" height="32" viewBox="0 0 71 32" fill="none" xmlns="http://www.w3.org/2000/svg">
<g filter="url(#filter0_i_944_5397)">
<path fill-rule="evenodd" clip-rule="evenodd" d="M61.04 16.8582C34.7307 11.7186 19.1845 23.7716 14.2567 29.1772C11.3999 32.3111 6.54361 32.5356 3.40981 29.6788C0.276006 26.8221 0.0514358 21.9657 2.90822 18.8319C10.5488 10.4505 31.2223 -4.6133 63.9843 1.78689C68.1461 2.59992 70.8609 6.63285 70.0478 10.7947C69.2348 14.9565 65.2019 17.6713 61.04 16.8582Z" fill="url(#paint0_radial_944_5397)"/>
<path fill-rule="evenodd" clip-rule="evenodd" d="M61.04 16.8582C34.7307 11.7186 19.1845 23.7716 14.2567 29.1772C11.3999 32.3111 6.54361 32.5356 3.40981 29.6788C0.276006 26.8221 0.0514358 21.9657 2.90822 18.8319C10.5488 10.4505 31.2223 -4.6133 63.9843 1.78689C68.1461 2.59992 70.8609 6.63285 70.0478 10.7947C69.2348 14.9565 65.2019 17.6713 61.04 16.8582Z" fill="url(#paint1_radial_944_5397)"/>
</g>
<defs>
<filter id="filter0_i_944_5397" x="0.904297" y="-1.58301" width="71.1157" height="33.2656" filterUnits="userSpaceOnUse" color-interpolation-filters="sRGB">
<feFlood flood-opacity="0" result="BackgroundImageFix"/>
<feBlend mode="normal" in="SourceGraphic" in2="BackgroundImageFix" result="shape"/>
<feColorMatrix in="SourceAlpha" type="matrix" values="0 0 0 0 0 0 0 0 0 0 0 0 0 0 0 0 0 0 127 0" result="hardAlpha"/>
<feOffset dx="1.82812" dy="-1.82812"/>
<feGaussianBlur stdDeviation="1.82812"/>
<feComposite in2="hardAlpha" operator="arithmetic" k2="-1" k3="1"/>
<feColorMatrix type="matrix" values="0 0 0 0 0.721569 0 0 0 0 0.270588 0 0 0 0 0.470588 0 0 0 1 0"/>
<feBlend mode="normal" in2="shape" result="effect1_innerShadow_944_5397"/>
</filter>
<radialGradient id="paint0_radial_944_5397" cx="0" cy="0" r="1" gradientUnits="userSpaceOnUse" gradientTransform="translate(58.3417 7.95149) rotate(168.283) scale(31.5062 11.7542)">
<stop stop-color="#FF3BA9"/>
<stop offset="1" stop-color="#F422A7"/>
</radialGradient>
<radialGradient id="paint1_radial_944_5397" cx="0" cy="0" r="1" gradientUnits="userSpaceOnUse" gradientTransform="translate(35.548 33.0882) rotate(-127.355) scale(32.4851 57.8951)">
<stop offset="0.752144" stop-color="#B8306F" stop-opacity="0"/>
<stop offset="1" stop-color="#B8306F"/>
</radialGradient>
</defs>
</svg>