<svg width="55" height="82" viewBox="0 0 55 82" fill="none" xmlns="http://www.w3.org/2000/svg">
<path fill-rule="evenodd" clip-rule="evenodd" d="M47.6981 0.225494C51.5306 0.40468 54.4921 3.65677 54.3129 7.48923C54.0662 12.7658 53.1058 21.556 50.8136 30.9452C48.8977 38.7934 45.9479 47.4982 41.4059 54.9611C42.5043 60.7833 42.5337 67.6533 41.328 75.4651C40.7428 79.2569 37.1946 81.8563 33.4028 81.2711C29.6111 80.6859 27.0117 77.1376 27.5969 73.3459C27.8666 71.598 28.0579 69.9613 28.1809 68.4294C26.8326 69.1325 25.4514 69.6837 24.0418 70.0776C18.5346 71.6163 13.2528 70.5498 9.12123 67.7976C1.27191 62.5687 -2.34742 51.1262 3.7283 41.7716C9.50814 32.8725 21.5544 30.4529 30.7143 36.7844C31.7705 37.5145 32.7624 38.337 33.6866 39.2498C35.1481 35.5539 36.3495 31.6102 37.3163 27.6502C39.3724 19.2278 40.2243 11.3328 40.4344 6.84034C40.6135 3.00788 43.8656 0.0463082 47.6981 0.225494ZM26.1471 52.4403C25.0925 50.2442 23.8399 48.9225 22.8143 48.2136C19.9487 46.2328 16.7986 47.1554 15.3802 49.3393C13.8592 51.6811 14.6637 54.7954 16.824 56.2346C17.6973 56.8163 18.8168 57.1116 20.3029 56.6963C21.6477 56.3206 23.7059 55.2294 26.1471 52.4403Z" fill="url(#paint0_linear_10_2)"/>
<path fill-rule="evenodd" clip-rule="evenodd" d="M47.6981 0.225494C51.5306 0.40468 54.4921 3.65677 54.3129 7.48923C54.0662 12.7658 53.1058 21.556 50.8136 30.9452C48.8977 38.7934 45.9479 47.4982 41.4059 54.9611C42.5043 60.7833 42.5337 67.6533 41.328 75.4651C40.7428 79.2569 37.1946 81.8563 33.4028 81.2711C29.6111 80.6859 27.0117 77.1376 27.5969 73.3459C27.8666 71.598 28.0579 69.9613 28.1809 68.4294C26.8326 69.1325 25.4514 69.6837 24.0418 70.0776C18.5346 71.6163 13.2528 70.5498 9.12123 67.7976C1.27191 62.5687 -2.34742 51.1262 3.7283 41.7716C9.50814 32.8725 21.5544 30.4529 30.7143 36.7844C31.7705 37.5145 32.7624 38.337 33.6866 39.2498C35.1481 35.5539 36.3495 31.6102 37.3163 27.6502C39.3724 19.2278 40.2243 11.3328 40.4344 6.84034C40.6135 3.00788 43.8656 0.0463082 47.6981 0.225494ZM26.1471 52.4403C25.0925 50.2442 23.8399 48.9225 22.8143 48.2136C19.9487 46.2328 16.7986 47.1554 15.3802 49.3393C13.8592 51.6811 14.6637 54.7954 16.824 56.2346C17.6973 56.8163 18.8168 57.1116 20.3029 56.6963C21.6477 56.3206 23.7059 55.2294 26.1471 52.4403Z" fill="url(#paint1_radial_10_2)"/>
<path fill-rule="evenodd" clip-rule="evenodd" d="M47.6981 0.225494C51.5306 0.40468 54.4921 3.65677 54.3129 7.48923C54.0662 12.7658 53.1058 21.556 50.8136 30.9452C48.8977 38.7934 45.9479 47.4982 41.4059 54.9611C42.5043 60.7833 42.5337 67.6533 41.328 75.4651C40.7428 79.2569 37.1946 81.8563 33.4028 81.2711C29.6111 80.6859 27.0117 77.1376 27.5969 73.3459C27.8666 71.598 28.0579 69.9613 28.1809 68.4294C26.8326 69.1325 25.4514 69.6837 24.0418 70.0776C18.5346 71.6163 13.2528 70.5498 9.12123 67.7976C1.27191 62.5687 -2.34742 51.1262 3.7283 41.7716C9.50814 32.8725 21.5544 30.4529 30.7143 36.7844C31.7705 37.5145 32.7624 38.337 33.6866 39.2498C35.1481 35.5539 36.3495 31.6102 37.3163 27.6502C39.3724 19.2278 40.2243 11.3328 40.4344 6.84034C40.6135 3.00788 43.8656 0.0463082 47.6981 0.225494ZM26.1471 52.4403C25.0925 50.2442 23.8399 48.9225 22.8143 48.2136C19.9487 46.2328 16.7986 47.1554 15.3802 49.3393C13.8592 51.6811 14.6637 54.7954 16.824 56.2346C17.6973 56.8163 18.8168 57.1116 20.3029 56.6963C21.6477 56.3206 23.7059 55.2294 26.1471 52.4403Z" fill="url(#paint2_radial_10_2)"/>
<path fill-rule="evenodd" clip-rule="evenodd" d="M47.6981 0.225494C51.5306 0.40468 54.4921 3.65677 54.3129 7.48923C54.0662 12.7658 53.1058 21.556 50.8136 30.9452C48.8977 38.7934 45.9479 47.4982 41.4059 54.9611C42.5043 60.7833 42.5337 67.6533 41.328 75.4651C40.7428 79.2569 37.1946 81.8563 33.4028 81.2711C29.6111 80.6859 27.0117 77.1376 27.5969 73.3459C27.8666 71.598 28.0579 69.9613 28.1809 68.4294C26.8326 69.1325 25.4514 69.6837 24.0418 70.0776C18.5346 71.6163 13.2528 70.5498 9.12123 67.7976C1.27191 62.5687 -2.34742 51.1262 3.7283 41.7716C9.50814 32.8725 21.5544 30.4529 30.7143 36.7844C31.7705 37.5145 32.7624 38.337 33.6866 39.2498C35.1481 35.5539 36.3495 31.6102 37.3163 27.6502C39.3724 19.2278 40.2243 11.3328 40.4344 6.84034C40.6135 3.00788 43.8656 0.0463082 47.6981 0.225494ZM26.1471 52.4403C25.0925 50.2442 23.8399 48.9225 22.8143 48.2136C19.9487 46.2328 16.7986 47.1554 15.3802 49.3393C13.8592 51.6811 14.6637 54.7954 16.824 56.2346C17.6973 56.8163 18.8168 57.1116 20.3029 56.6963C21.6477 56.3206 23.7059 55.2294 26.1471 52.4403Z" fill="url(#paint3_radial_10_2)"/>
<path d="M2.00195 45.0473C2.45103 43.9371 3.01836 42.8417 3.71209 41.7736C9.49193 32.8745 21.5381 30.455 30.6981 36.7865C31.7543 37.5165 32.7462 38.3391 33.6704 39.2518C33.969 38.4966 34.2568 37.7311 34.5339 36.9573C34.5476 37.0041 34.5611 37.0506 34.5743 37.0969C32.6926 43.0241 28.4703 49.369 26.125 52.43C25.0716 50.2414 23.8218 48.9232 22.7981 48.2157C19.9325 46.2349 16.7824 47.1574 15.364 49.3413C15.3088 49.4263 15.2566 49.5123 15.2075 49.5992L2.00195 45.0473Z" fill="url(#paint4_radial_10_2)"/>
<path d="M2.00195 45.0473C2.45103 43.9371 3.01836 42.8417 3.71209 41.7736C9.49193 32.8745 21.5381 30.455 30.6981 36.7865C31.7543 37.5165 32.7462 38.3391 33.6704 39.2518C33.969 38.4966 34.2568 37.7311 34.5339 36.9573C34.5476 37.0041 34.5611 37.0506 34.5743 37.0969C32.6926 43.0241 28.4703 49.369 26.125 52.43C25.0716 50.2414 23.8218 48.9232 22.7981 48.2157C19.9325 46.2349 16.7824 47.1574 15.364 49.3413C15.3088 49.4263 15.2566 49.5123 15.2075 49.5992L2.00195 45.0473Z" fill="url(#paint5_radial_10_2)"/>
<g filter="url(#filter0_i_10_2)">
<path d="M41.392 54.9688C42.4892 60.7896 42.5182 67.6575 41.313 75.4665C40.7277 79.2583 37.1795 81.8577 33.3877 81.2724C29.596 80.6872 26.9966 77.139 27.5818 73.3472C27.8511 71.6026 28.0421 69.9687 28.1651 68.4393C35.3456 63.931 40.0863 57.9324 41.392 54.9688Z" fill="#44B6FF"/>
</g>
<path d="M41.392 54.9688C42.4892 60.7896 42.5182 67.6575 41.313 75.4665C40.7277 79.2583 37.1795 81.8577 33.3877 81.2724C29.596 80.6872 26.9966 77.139 27.5818 73.3472C27.8511 71.6026 28.0421 69.9687 28.1651 68.4393C35.3456 63.931 40.0863 57.9324 41.392 54.9688Z" fill="url(#paint6_radial_10_2)"/>
<g filter="url(#filter1_f_10_2)">
<path d="M29.02 44.7579C27.0776 42.1301 20.8504 37.4454 13.0238 42.3012C10.3981 43.9301 8.8533 50.0709 10.053 54.2413" stroke="url(#paint7_linear_10_2)" stroke-width="2.19375" stroke-linecap="round"/>
</g>
<g filter="url(#filter2_f_10_2)">
<path d="M50.3867 7.05176C49.7773 18.0967 44.9938 44.1627 30.7344 60.0674" stroke="url(#paint8_linear_10_2)" stroke-width="2.19375" stroke-linecap="round"/>
</g>
<defs>
<filter id="filter0_i_10_2" x="27.4995" y="53.1406" width="18.3726" height="28.2139" filterUnits="userSpaceOnUse" color-interpolation-filters="sRGB">
<feFlood flood-opacity="0" result="BackgroundImageFix"/>
<feBlend mode="normal" in="SourceGraphic" in2="BackgroundImageFix" result="shape"/>
<feColorMatrix in="SourceAlpha" type="matrix" values="0 0 0 0 0 0 0 0 0 0 0 0 0 0 0 0 0 0 127 0" result="hardAlpha"/>
<feOffset dx="3.65625" dy="-1.82812"/>
<feGaussianBlur stdDeviation="2.37656"/>
<feComposite in2="hardAlpha" operator="arithmetic" k2="-1" k3="1"/>
<feColorMatrix type="matrix" values="0 0 0 0 0.239216 0 0 0 0 0.439216 0 0 0 0 0.768627 0 0 0 1 0"/>
<feBlend mode="normal" in2="shape" result="effect1_innerShadow_10_2"/>
</filter>
<filter id="filter1_f_10_2" x="6.34971" y="36.8995" width="25.9612" height="20.6326" filterUnits="userSpaceOnUse" color-interpolation-filters="sRGB">
<feFlood flood-opacity="0" result="BackgroundImageFix"/>
<feBlend mode="normal" in="SourceGraphic" in2="BackgroundImageFix" result="shape"/>
<feGaussianBlur stdDeviation="1.09688" result="effect1_foregroundBlur_10_2"/>
</filter>
<filter id="filter2_f_10_2" x="26.3471" y="2.66445" width="28.427" height="61.7902" filterUnits="userSpaceOnUse" color-interpolation-filters="sRGB">
<feFlood flood-opacity="0" result="BackgroundImageFix"/>
<feBlend mode="normal" in="SourceGraphic" in2="BackgroundImageFix" result="shape"/>
<feGaussianBlur stdDeviation="1.64531" result="effect1_foregroundBlur_10_2"/>
</filter>
<linearGradient id="paint0_linear_10_2" x1="47.3927" y1="0.217774" x2="14.6191" y2="78.7661" gradientUnits="userSpaceOnUse">
<stop stop-color="#20B2EE"/>
<stop offset="1" stop-color="#2689DA"/>
</linearGradient>
<radialGradient id="paint1_radial_10_2" cx="0" cy="0" r="1" gradientUnits="userSpaceOnUse" gradientTransform="translate(40.1993 25.7341) rotate(128.217) scale(56.7497 34.7125)">
<stop offset="0.80204" stop-color="#4274D2" stop-opacity="0"/>
<stop offset="0.950917" stop-color="#4274D2"/>
</radialGradient>
<radialGradient id="paint2_radial_10_2" cx="0" cy="0" r="1" gradientUnits="userSpaceOnUse" gradientTransform="translate(37.3604 19.1618) rotate(12.0948) scale(8.17961 27.4596)">
<stop stop-color="#4D8EC0"/>
<stop offset="1" stop-color="#4D8EC0" stop-opacity="0"/>
</radialGradient>
<radialGradient id="paint3_radial_10_2" cx="0" cy="0" r="1" gradientUnits="userSpaceOnUse" gradientTransform="translate(53.585 1.45185) rotate(141.953) scale(10.0111 9.00065)">
<stop stop-color="#5ADEFF"/>
<stop offset="1" stop-color="#5ADEFF" stop-opacity="0"/>
</radialGradient>
<radialGradient id="paint4_radial_10_2" cx="0" cy="0" r="1" gradientUnits="userSpaceOnUse" gradientTransform="translate(28.0662 54.6128) rotate(-119.23) scale(20.0241 14.9682)">
<stop stop-color="#336BAF"/>
<stop offset="1" stop-color="#336BAF" stop-opacity="0"/>
</radialGradient>
<radialGradient id="paint5_radial_10_2" cx="0" cy="0" r="1" gradientUnits="userSpaceOnUse" gradientTransform="translate(34.5743 39.501) rotate(-127.657) scale(13.5655 5.49613)">
<stop stop-color="#49A4D4"/>
<stop offset="1" stop-color="#49A4D4" stop-opacity="0"/>
</radialGradient>
<radialGradient id="paint6_radial_10_2" cx="0" cy="0" r="1" gradientUnits="userSpaceOnUse" gradientTransform="translate(40.6745 54.3546) rotate(94.8498) scale(18.9203 10.53)">
<stop stop-color="#4AB5F8"/>
<stop offset="1" stop-color="#4AB5F8" stop-opacity="0"/>
</radialGradient>
<linearGradient id="paint7_linear_10_2" x1="7.42512" y1="44.8854" x2="27.763" y2="39.9016" gradientUnits="userSpaceOnUse">
<stop stop-color="#4EAFF2"/>
<stop offset="1" stop-color="#4EAFF2" stop-opacity="0"/>
</linearGradient>
<linearGradient id="paint8_linear_10_2" x1="48.7871" y1="-0.717774" x2="20.2227" y2="65.0947" gradientUnits="userSpaceOnUse">
<stop stop-color="#5BDDFF"/>
<stop offset="1" stop-color="#5BDDFF" stop-opacity="0"/>
</linearGradient>
</defs>
</svg>
