<svg width="196" height="212" viewBox="0 0 196 212" fill="none" xmlns="http://www.w3.org/2000/svg">
<g filter="url(#filter0_dd_176_328)">
<rect x="8" y="4" width="180" height="196" rx="20" fill="white"/>
<rect x="69" y="25" width="56" height="56" rx="8" fill="#FF5467" fill-opacity="0.2"/>
<path d="M102.333 65H91.6666C91.313 65 90.9739 64.8595 90.7238 64.6095C90.4738 64.3594 90.3333 64.0203 90.3333 63.6667V53.0933L88.6 54.4267C88.08 54.9467 87.24 54.9467 86.72 54.4267L82.9466 50.72C82.4266 50.2 82.4266 49.36 82.9466 48.84L90.7866 41H93C93 42.4667 94.7866 43.6667 97 43.6667C99.2133 43.6667 101 42.4667 101 41H103.213L111.053 48.84C111.573 49.36 111.573 50.2 111.053 50.72L107.28 54.4933C106.76 55 105.92 55 105.4 54.4933L103.667 53.16V63.6667C103.667 64.0203 103.526 64.3594 103.276 64.6095C103.026 64.8595 102.687 65 102.333 65Z" fill="#FF5467"/>
<path d="M52.413 105.76H61.037V109.184H62.349V104.704H52.413V105.76ZM53.981 97.824H60.957V99.488H53.981V97.824ZM58.125 102.24V100.528H62.253V95.168H60.957V96.8H53.981V95.168H52.685V100.528H56.813V102.24H50.957V103.312H63.949V102.24H58.125ZM74.5118 101.776C72.3998 101.072 71.0398 99.392 71.0398 97.52V96.96H74.2078V95.904H66.5118V96.96H69.7278V97.52C69.7278 99.584 68.2878 101.44 66.1278 102.192L66.7998 103.232C68.5118 102.624 69.8078 101.344 70.4158 99.712C71.0238 101.136 72.2558 102.272 73.8878 102.8L74.5118 101.776ZM72.7678 108.128C70.6238 108.128 69.3438 107.536 69.3438 106.512C69.3438 105.504 70.6238 104.912 72.7678 104.912C74.8798 104.912 76.1758 105.504 76.1758 106.512C76.1758 107.536 74.8798 108.128 72.7678 108.128ZM72.7678 103.872C69.8238 103.872 68.0318 104.848 68.0318 106.512C68.0318 108.192 69.8238 109.168 72.7678 109.168C75.6798 109.168 77.4878 108.192 77.4878 106.512C77.4878 104.848 75.6798 103.872 72.7678 103.872ZM77.3278 98.464V94.848H76.0158V103.504H77.3278V99.568H79.4558V98.464H77.3278ZM87.4313 99.056C87.4313 97.712 88.4553 96.784 89.8953 96.784C91.3193 96.784 92.3593 97.712 92.3593 99.056C92.3593 100.4 91.3193 101.344 89.8953 101.344C88.4553 101.344 87.4313 100.4 87.4313 99.056ZM93.6393 99.056C93.6393 97.072 92.0553 95.696 89.8953 95.696C87.7193 95.696 86.1513 97.072 86.1513 99.056C86.1513 101.056 87.7193 102.448 89.8953 102.448C92.0553 102.448 93.6393 101.056 93.6393 99.056ZM92.4553 108.128C90.3273 108.128 89.0312 107.504 89.0312 106.48C89.0312 105.44 90.3273 104.832 92.4553 104.832C94.5673 104.832 95.8633 105.44 95.8633 106.48C95.8633 107.504 94.5673 108.128 92.4553 108.128ZM92.4553 103.792C89.5433 103.792 87.7193 104.768 87.7193 106.48C87.7193 108.176 89.5433 109.168 92.4553 109.168C95.3513 109.168 97.1753 108.176 97.1753 106.48C97.1753 104.768 95.3513 103.792 92.4553 103.792ZM99.1113 98.048V96.976H97.0313V94.848H95.7193V103.344H97.0313V101.12H99.1113V100.032H97.0313V98.048H99.1113ZM113.386 96.928H108.25V95.056H106.938V96.928H101.738V98H113.386V96.928ZM104.202 101.696C104.202 100.64 105.498 100 107.594 100C109.658 100 110.938 100.64 110.938 101.696C110.938 102.768 109.658 103.408 107.594 103.408C105.498 103.408 104.202 102.768 104.202 101.696ZM108.25 106.432V104.416C110.746 104.256 112.266 103.296 112.266 101.696C112.266 99.968 110.458 98.976 107.594 98.976C104.682 98.976 102.874 99.968 102.874 101.696C102.874 103.296 104.41 104.272 106.938 104.416V106.432H101.098V107.504H114.106V106.432H108.25ZM132.562 94.848H131.25V105.328H132.562V94.848ZM122.402 99.36C122.402 97.968 123.458 96.976 124.85 96.976C126.274 96.976 127.33 97.968 127.33 99.36C127.33 100.784 126.274 101.776 124.85 101.776C123.458 101.776 122.402 100.784 122.402 99.36ZM128.61 99.36C128.61 97.296 126.994 95.84 124.85 95.84C122.722 95.84 121.122 97.296 121.122 99.36C121.122 101.44 122.722 102.912 124.85 102.912C126.994 102.912 128.61 101.44 128.61 99.36ZM124.641 107.792V104.256H123.33V108.864H132.994V107.792H124.641ZM143.524 103.312V104.288H146.436V105.76H147.748V94.832H146.436V103.312H143.524ZM140.596 96.384C141.956 96.384 142.884 96.992 142.884 97.904C142.884 98.832 141.956 99.44 140.596 99.44C139.236 99.44 138.308 98.832 138.308 97.904C138.308 96.992 139.236 96.384 140.596 96.384ZM140.596 100.416C142.692 100.416 144.132 99.44 144.132 97.904C144.132 96.4 142.692 95.408 140.596 95.408C138.5 95.408 137.06 96.4 137.06 97.904C137.06 99.44 138.5 100.416 140.596 100.416ZM140.084 105.248H141.396V102.416C142.692 102.336 144.02 102.192 145.284 102L145.172 101.056C142.132 101.44 138.58 101.472 135.924 101.472L136.1 102.56C137.284 102.56 138.66 102.544 140.084 102.48V105.248ZM139.284 107.792V104.688H137.972V108.864H148.116V107.792H139.284Z" fill="#585767"/>
<path d="M60.0469 167.597H60.3623C61.79 167.597 62.9964 167.414 63.9814 167.049C64.9775 166.684 65.7799 166.169 66.3887 165.505C67.0085 164.83 67.4567 164.027 67.7334 163.098C68.0212 162.157 68.165 161.117 68.165 159.977V155.594C68.165 154.664 68.071 153.851 67.8828 153.153C67.6947 152.445 67.429 151.853 67.0859 151.377C66.7539 150.901 66.361 150.547 65.9072 150.314C65.4535 150.071 64.9665 149.949 64.4463 149.949C63.8708 149.949 63.3617 150.082 62.9189 150.348C62.4762 150.613 62.0999 150.979 61.79 151.443C61.4912 151.897 61.2588 152.423 61.0928 153.021C60.9378 153.618 60.8604 154.249 60.8604 154.913C60.8604 155.555 60.9323 156.169 61.0762 156.756C61.2311 157.342 61.458 157.863 61.7568 158.316C62.0667 158.77 62.4541 159.13 62.9189 159.396C63.3838 159.65 63.9261 159.777 64.5459 159.777C65.1325 159.777 65.6637 159.667 66.1396 159.445C66.6266 159.213 67.0472 158.909 67.4014 158.532C67.7555 158.145 68.0267 157.719 68.2148 157.254C68.4141 156.778 68.5247 156.297 68.5469 155.81L70.0908 156.474C70.0908 157.282 69.9193 158.078 69.5762 158.864C69.2441 159.65 68.7738 160.364 68.165 161.006C67.5674 161.637 66.8701 162.146 66.0732 162.533C65.2764 162.91 64.4186 163.098 63.5 163.098C62.36 163.098 61.3529 162.887 60.4785 162.467C59.6042 162.046 58.8682 161.465 58.2705 160.724C57.6839 159.971 57.2412 159.108 56.9424 158.134C56.6436 157.149 56.4941 156.097 56.4941 154.979C56.4941 153.817 56.6768 152.727 57.042 151.709C57.4072 150.68 57.9329 149.778 58.6191 149.003C59.3164 148.217 60.1576 147.603 61.1426 147.16C62.1276 146.706 63.2344 146.479 64.4629 146.479C65.7357 146.479 66.8701 146.729 67.8662 147.227C68.8623 147.725 69.709 148.416 70.4062 149.302C71.1035 150.176 71.6348 151.211 72 152.406C72.3763 153.602 72.5645 154.908 72.5645 156.324V157.868C72.5645 159.362 72.415 160.779 72.1162 162.118C71.8174 163.457 71.3581 164.68 70.7383 165.787C70.1185 166.894 69.3271 167.851 68.3643 168.659C67.4124 169.467 66.2725 170.092 64.9443 170.535C63.6273 170.967 62.1221 171.183 60.4287 171.183H60.0469V167.597ZM88.6191 146.629H89.2168V150.165H88.9346C87.5954 150.165 86.4167 150.37 85.3984 150.779C84.3913 151.189 83.5501 151.764 82.875 152.506C82.2109 153.236 81.7074 154.105 81.3643 155.112C81.0212 156.108 80.8496 157.199 80.8496 158.383V162.301C80.8496 163.219 80.9437 164.027 81.1318 164.725C81.3311 165.411 81.6022 165.992 81.9453 166.468C82.2995 166.933 82.709 167.281 83.1738 167.514C83.6497 167.746 84.1699 167.862 84.7344 167.862C85.2988 167.862 85.8079 167.746 86.2617 167.514C86.7155 167.281 87.1029 166.955 87.4238 166.534C87.7559 166.103 88.0049 165.599 88.1709 165.023C88.348 164.448 88.4365 163.817 88.4365 163.131C88.4365 162.456 88.3535 161.83 88.1875 161.255C88.0215 160.679 87.778 160.176 87.457 159.744C87.1361 159.301 86.7376 158.964 86.2617 158.731C85.7969 158.488 85.2656 158.366 84.668 158.366C83.8932 158.366 83.2015 158.549 82.5928 158.914C81.984 159.268 81.5026 159.733 81.1484 160.309C80.7943 160.884 80.6006 161.493 80.5674 162.135L79.0898 161.404C79.1452 160.464 79.3444 159.6 79.6875 158.814C80.0417 158.029 80.512 157.342 81.0986 156.756C81.6963 156.169 82.3991 155.715 83.207 155.395C84.026 155.074 84.9336 154.913 85.9297 154.913C87.0807 154.913 88.0879 155.134 88.9512 155.577C89.8145 156.009 90.5283 156.601 91.0928 157.354C91.6683 158.106 92.0999 158.975 92.3877 159.96C92.6755 160.934 92.8193 161.963 92.8193 163.048C92.8193 164.21 92.6312 165.295 92.2549 166.302C91.8896 167.309 91.3584 168.189 90.6611 168.941C89.9639 169.694 89.1227 170.281 88.1377 170.701C87.1527 171.122 86.0459 171.332 84.8174 171.332C83.5225 171.332 82.3604 171.089 81.3311 170.602C80.3128 170.115 79.4385 169.439 78.708 168.576C77.9775 167.713 77.4186 166.706 77.0312 165.555C76.6439 164.404 76.4502 163.159 76.4502 161.819V160.06C76.4502 158.167 76.7103 156.407 77.2305 154.78C77.7507 153.153 78.5199 151.731 79.5381 150.514C80.5674 149.285 81.8402 148.333 83.3564 147.658C84.8727 146.972 86.627 146.629 88.6191 146.629Z" fill="#32313F"/>
<path d="M113.134 164.5C113.519 165.167 114.481 165.167 114.866 164.5L119.196 157C119.581 156.333 119.1 155.5 118.33 155.5H109.67C108.9 155.5 108.419 156.333 108.804 157L113.134 164.5Z" fill="#FF5467"/>
<path d="M131.475 160.129V161.02H125.311V160.381L129.131 154.469H130.016L129.066 156.18L126.541 160.129H131.475ZM130.285 154.469V163H129.201V154.469H130.285ZM132.765 156.561V156.109C132.765 155.785 132.836 155.49 132.976 155.225C133.117 154.959 133.318 154.746 133.58 154.586C133.841 154.426 134.152 154.346 134.511 154.346C134.879 154.346 135.191 154.426 135.449 154.586C135.711 154.746 135.912 154.959 136.052 155.225C136.193 155.49 136.263 155.785 136.263 156.109V156.561C136.263 156.877 136.193 157.168 136.052 157.434C135.916 157.699 135.716 157.912 135.455 158.072C135.197 158.232 134.886 158.312 134.523 158.312C134.16 158.312 133.845 158.232 133.58 158.072C133.318 157.912 133.117 157.699 132.976 157.434C132.836 157.168 132.765 156.877 132.765 156.561ZM133.58 156.109V156.561C133.58 156.74 133.613 156.91 133.679 157.07C133.75 157.23 133.855 157.361 133.996 157.463C134.136 157.561 134.312 157.609 134.523 157.609C134.734 157.609 134.908 157.561 135.045 157.463C135.181 157.361 135.283 157.23 135.349 157.07C135.416 156.91 135.449 156.74 135.449 156.561V156.109C135.449 155.926 135.414 155.754 135.343 155.594C135.277 155.43 135.173 155.299 135.033 155.201C134.896 155.1 134.722 155.049 134.511 155.049C134.304 155.049 134.13 155.1 133.99 155.201C133.853 155.299 133.75 155.43 133.679 155.594C133.613 155.754 133.58 155.926 133.58 156.109ZM136.92 161.365V160.908C136.92 160.588 136.99 160.295 137.13 160.029C137.271 159.764 137.472 159.551 137.734 159.391C137.996 159.23 138.306 159.15 138.666 159.15C139.033 159.15 139.345 159.23 139.603 159.391C139.865 159.551 140.066 159.764 140.207 160.029C140.347 160.295 140.418 160.588 140.418 160.908V161.365C140.418 161.686 140.347 161.979 140.207 162.244C140.07 162.51 139.871 162.723 139.609 162.883C139.351 163.043 139.041 163.123 138.677 163.123C138.314 163.123 138.002 163.043 137.74 162.883C137.478 162.723 137.275 162.51 137.13 162.244C136.99 161.979 136.92 161.686 136.92 161.365ZM137.734 160.908V161.365C137.734 161.545 137.767 161.717 137.834 161.881C137.904 162.041 138.009 162.172 138.15 162.273C138.291 162.371 138.466 162.42 138.677 162.42C138.888 162.42 139.062 162.371 139.199 162.273C139.339 162.172 139.443 162.041 139.509 161.881C139.576 161.721 139.609 161.549 139.609 161.365V160.908C139.609 160.725 139.574 160.553 139.504 160.393C139.437 160.232 139.334 160.104 139.193 160.006C139.056 159.904 138.88 159.854 138.666 159.854C138.459 159.854 138.285 159.904 138.144 160.006C138.007 160.104 137.904 160.232 137.834 160.393C137.767 160.553 137.734 160.725 137.734 160.908ZM138.935 155.682L134.769 162.35L134.16 161.963L138.326 155.295L138.935 155.682Z" fill="#FF5467"/>
<path d="M73.73 118.37H75.84V117.69H70.83V118.37H72.91V119.51C72.91 121.06 71.82 122.75 70.53 123.36L71.01 124.02C72.03 123.5 72.91 122.37 73.32 121.06C73.75 122.29 74.63 123.32 75.67 123.8L76.13 123.14C74.81 122.58 73.73 121.03 73.73 119.51V118.37ZM77.05 116.78V125.74H77.87V116.78H77.05ZM86.4692 120.56C85.0392 120.85 83.7492 120.94 82.4792 120.95V117.43H81.6692V121.64H82.3692C83.7092 121.64 85.0592 121.54 86.5592 121.24L86.4692 120.56ZM83.4592 122.63H82.6392V125.54H88.5092V124.87H83.4592V122.63ZM88.1892 119.44V116.78H87.3692V123.26H88.1892V120.13H89.5092V119.44H88.1892ZM101.109 119.98C99.9087 120.22 98.8687 120.29 97.1287 120.29V117.95H100.279V117.29H96.3187V120.95H97.0087C98.8587 120.95 99.9487 120.89 101.209 120.63L101.109 119.98ZM98.0087 123.95H102.879V121.74H97.1787V122.39H102.069V123.33H97.2087V125.62H103.209V124.96H98.0087V123.95ZM102.879 118.66V116.77H102.059V121.28H102.879V119.33H104.209V118.66H102.879ZM111.738 118.53H114.268V117.86H110.928V123.53H111.518C112.858 123.53 113.768 123.49 114.838 123.26L114.768 122.58C113.788 122.79 112.938 122.84 111.738 122.85V118.53ZM117.438 116.77V120.37H116.168V116.97H115.398V125.29H116.168V121.04H117.438V125.74H118.228V116.77H117.438ZM127.827 116.77V125.75H128.647V116.77H127.827ZM121.817 117.53V123.58H126.037V117.53H125.227V119.9H122.627V117.53H121.817ZM122.627 120.55H125.227V122.91H122.627V120.55Z" fill="#9C9DB2"/>
</g>
<defs>
<filter id="filter0_dd_176_328" x="0" y="0" width="196" height="212" filterUnits="userSpaceOnUse" color-interpolation-filters="sRGB">
<feFlood flood-opacity="0" result="BackgroundImageFix"/>
<feColorMatrix in="SourceAlpha" type="matrix" values="0 0 0 0 0 0 0 0 0 0 0 0 0 0 0 0 0 0 127 0" result="hardAlpha"/>
<feOffset dy="4"/>
<feGaussianBlur stdDeviation="4"/>
<feComposite in2="hardAlpha" operator="out"/>
<feColorMatrix type="matrix" values="0 0 0 0 0 0 0 0 0 0 0 0 0 0 0 0 0 0 0.05 0"/>
<feBlend mode="normal" in2="BackgroundImageFix" result="effect1_dropShadow_176_328"/>
<feColorMatrix in="SourceAlpha" type="matrix" values="0 0 0 0 0 0 0 0 0 0 0 0 0 0 0 0 0 0 127 0" result="hardAlpha"/>
<feOffset dy="2"/>
<feGaussianBlur stdDeviation="2"/>
<feComposite in2="hardAlpha" operator="out"/>
<feColorMatrix type="matrix" values="0 0 0 0 0 0 0 0 0 0 0 0 0 0 0 0 0 0 0.04 0"/>
<feBlend mode="normal" in2="effect1_dropShadow_176_328" result="effect2_dropShadow_176_328"/>
<feBlend mode="normal" in="SourceGraphic" in2="effect2_dropShadow_176_328" result="shape"/>
</filter>
</defs>
</svg>
