<svg width="284" height="295" viewBox="0 0 284 295" fill="none" xmlns="http://www.w3.org/2000/svg">
<circle cx="133.453" cy="133.453" r="87.5" transform="rotate(-31.6154 133.453 133.453)" stroke="#9155EB" stroke-width="19"/>
<rect x="148.402" y="226.412" width="72" height="20" rx="5" transform="rotate(-31.6154 148.402 226.412)" fill="#9155EB"/>
<rect x="167.665" y="246.26" width="60" height="15" rx="5" transform="rotate(-31.6154 167.665 246.26)" fill="#9155EB"/>
<path d="M140.499 139.278C140.499 137.465 151.195 102.814 119.309 79.6466C115.677 75.3488 108.735 70.0169 110.026 83.0714C111.318 96.1259 105.317 105.97 102.156 109.261C98.7923 115.305 95.3347 128.319 108.412 132.026C100.743 136.055 85.527 148.505 86.0113 166.072C86.2131 168.624 89.4824 172.962 100.945 169.9C111.247 167.395 133.218 158.004 140.128 140.278C131.886 162.959 134.094 187.082 137.674 191.053C140.58 194.276 142.382 192.396 142.921 191.053C149.701 183.317 152.742 162.312 153.414 152.776C159.549 153.904 163.37 146.799 164.514 143.106C164.11 135.048 171.981 120.14 178.237 112.887C183.241 107.085 180.322 106.038 178.237 106.239C162.899 103.822 146.688 127.258 140.499 139.278Z" fill="#9155EB"/>
</svg>
