<svg width="194" height="226" viewBox="0 0 194 226" fill="none" xmlns="http://www.w3.org/2000/svg">
<circle cx="97" cy="97" r="90.5" fill="white" stroke="#9155EB" stroke-width="13"/>
<rect x="61" y="184" width="72" height="20" rx="5" fill="#9155EB"/>
<rect x="67" y="211" width="60" height="15" rx="5" fill="#9155EB"/>
<path d="M104.499 102.446C104.499 100.632 115.195 65.9816 83.3093 42.814C79.6768 38.5162 72.7346 33.1843 74.0262 46.2388C75.3178 59.2932 69.3174 69.1378 66.1558 72.4283C62.7923 78.472 59.3347 91.4862 72.4118 95.193C64.7431 99.2222 49.527 111.672 50.0113 129.239C50.2131 131.791 53.4824 136.129 64.9449 133.067C75.2468 130.562 97.2178 121.171 104.128 103.446C95.8859 126.126 98.0938 150.25 101.674 154.22C104.58 157.444 106.382 155.563 106.921 154.22C113.701 146.484 116.742 125.479 117.414 115.943C123.549 117.071 127.37 109.967 128.514 106.273C128.11 98.2149 135.981 83.307 142.237 76.0545C147.241 70.2525 144.322 69.2049 142.237 69.4064C126.899 66.9889 110.688 90.4252 104.499 102.446Z" fill="#9155EB"/>
</svg>
