<svg width="116" height="48" viewBox="0 0 116 48" fill="none" xmlns="http://www.w3.org/2000/svg">
<path d="M25 15V21H33V15H25ZM25 33H33V23H25V33ZM15 33H23V27H15V33ZM15 25H23V15H15V25Z" fill="#9155EB"/>
<path d="M55.792 16.284V30.748H57.072V16.284H55.792ZM53.344 22.076V23.18H56.128V22.076H53.344ZM52.512 16.604V30.012H53.76V16.604H52.512ZM45.312 26.076V27.18H46.256C48.432 27.18 49.888 27.116 51.616 26.748L51.488 25.644C49.808 25.996 48.368 26.076 46.256 26.076H45.312ZM45.312 18.044V26.572H46.624V19.132H50.688V18.044H45.312ZM63.4767 17.532V20.124C63.4767 22.86 61.7327 25.628 59.5887 26.652L60.4047 27.74C62.7727 26.54 64.5647 23.452 64.5647 20.124V17.532H63.4767ZM63.7007 17.532V20.124C63.7007 23.34 65.5087 26.316 67.8608 27.468L68.6608 26.412C66.5167 25.42 64.7887 22.764 64.7887 20.124V17.532H63.7007ZM70.1648 16.268V30.764H71.4928V16.268H70.1648ZM74.5375 27.804V28.908H87.6415V27.804H74.5375ZM80.3935 24.348V28.124H81.7215V24.348H80.3935ZM76.0735 17.308V24.7H86.0735V17.308H84.7615V19.884H77.3855V17.308H76.0735ZM77.3855 20.956H84.7615V23.612H77.3855V20.956ZM91.0543 23.212V24.3H100.99V23.212H91.0543ZM89.4063 27.692V28.796H102.51V27.692H89.4063ZM91.0543 17.612V23.692H92.3823V18.716H100.846V17.612H91.0543Z" fill="#9155EB"/>
</svg>
