<svg width="71" height="48" viewBox="0 0 71 48" fill="none" xmlns="http://www.w3.org/2000/svg">
<path d="M22 32V26H26V32H31V24H34L24 15L14 24H17V32H22Z" fill="#ABACC0"/>
<path d="M46.384 26.428V30.556H56.256V26.428H46.384ZM54.96 27.452V29.548H47.696V27.452H54.96ZM45.472 17.468V18.508H57.104V17.468H45.472ZM51.328 19.084C48.336 19.084 46.656 19.788 46.656 21.132C46.656 22.476 48.336 23.18 51.328 23.18C54.304 23.18 56 22.476 56 21.132C56 19.788 54.304 19.084 51.328 19.084ZM51.328 20.012C53.408 20.012 54.576 20.412 54.576 21.132C54.576 21.852 53.408 22.252 51.328 22.252C49.232 22.252 48.064 21.852 48.064 21.132C48.064 20.412 49.232 20.012 51.328 20.012ZM50.672 16.076V18.14H51.984V16.076H50.672ZM44.784 24.284V25.324H57.856V24.284H44.784ZM50.672 22.86V24.86H51.984V22.86H50.672Z" fill="#ABACC0"/>
</svg>
