<svg width="32" height="32" viewBox="0 0 32 32" fill="none" xmlns="http://www.w3.org/2000/svg">
<path d="M16.0001 25.6001C12.6667 25.6001 9.72008 23.8934 8.00008 21.3334C8.04008 18.6667 13.3334 17.2001 16.0001 17.2001C18.6667 17.2001 23.9601 18.6667 24.0001 21.3334C23.1186 22.646 21.9279 23.7216 20.5328 24.4657C19.1378 25.2097 17.5812 25.5993 16.0001 25.6001ZM16.0001 6.66675C17.0609 6.66675 18.0784 7.08818 18.8285 7.83832C19.5787 8.58847 20.0001 9.60588 20.0001 10.6667C20.0001 11.7276 19.5787 12.745 18.8285 13.4952C18.0784 14.2453 17.0609 14.6667 16.0001 14.6667C14.9392 14.6667 13.9218 14.2453 13.1717 13.4952C12.4215 12.745 12.0001 11.7276 12.0001 10.6667C12.0001 9.60588 12.4215 8.58847 13.1717 7.83832C13.9218 7.08818 14.9392 6.66675 16.0001 6.66675ZM16.0001 2.66675C14.2491 2.66675 12.5153 3.01162 10.8976 3.68169C9.27996 4.35175 7.81011 5.33388 6.57199 6.57199C4.07151 9.07248 2.66675 12.4639 2.66675 16.0001C2.66675 19.5363 4.07151 22.9277 6.57199 25.4282C7.81011 26.6663 9.27996 27.6484 10.8976 28.3185C12.5153 28.9885 14.2491 29.3334 16.0001 29.3334C19.5363 29.3334 22.9277 27.9287 25.4282 25.4282C27.9287 22.9277 29.3334 19.5363 29.3334 16.0001C29.3334 8.62675 23.3334 2.66675 16.0001 2.66675Z" fill="#9155EB" fill-opacity="0.3"/>
</svg>
