<svg width="86" height="48" viewBox="0 0 86 48" fill="none" xmlns="http://www.w3.org/2000/svg">
<path d="M29 16V14H19V16H14V23C14 24.1 14.9 25 16 25H19.1C19.5 26.96 21.04 28.5 23 28.9V31.08C20 31.54 20 34 20 34H28C28 34 28 31.54 25 31.08V28.9C26.96 28.5 28.5 26.96 28.9 25H32C33.1 25 34 24.1 34 23V16H29ZM16 23V18H19V23H16ZM32 23H29V18H32V23Z" fill="#ABACC0"/>
<path d="M55.712 16.284V25.212H56.976V16.284H55.712ZM53.392 20.14V21.228H56.112V20.14H53.392ZM52.528 16.556V24.7H53.776V16.556H52.528ZM45.456 23.292V24.364H46.384C48.48 24.364 50 24.3 51.824 23.932L51.696 22.876C49.92 23.228 48.416 23.292 46.384 23.292H45.456ZM45.424 17.372V18.444H49.584V20.268H45.456V24.092H46.736V21.276H50.864V17.372H45.424ZM52.224 25.5C49.232 25.5 47.408 26.46 47.408 28.108C47.408 29.756 49.232 30.716 52.224 30.716C55.2 30.716 57.056 29.756 57.056 28.108C57.056 26.46 55.2 25.5 52.224 25.5ZM52.224 26.524C54.4 26.524 55.728 27.116 55.728 28.108C55.728 29.1 54.4 29.676 52.224 29.676C50.048 29.676 48.704 29.1 48.704 28.108C48.704 27.116 50.048 26.524 52.224 26.524ZM65.9088 17.276V17.788C65.9088 20.604 64.1807 22.796 60.0687 23.98L60.5807 25.052C65.2048 23.692 67.2847 21.004 67.2847 17.276H65.9088ZM60.6927 17.276V18.348H66.6287V17.276H60.6927ZM65.7327 19.932L59.9727 20.204L60.1967 21.292L65.7327 20.876V19.932ZM70.1807 16.3V24.988H71.5247V16.3H70.1807ZM66.7407 25.196C63.7487 25.196 61.8927 26.22 61.8927 27.964C61.8927 29.708 63.7487 30.732 66.7407 30.732C69.7327 30.732 71.6048 29.708 71.6048 27.964C71.6048 26.22 69.7327 25.196 66.7407 25.196ZM66.7407 26.252C68.9327 26.252 70.2768 26.876 70.2768 27.964C70.2768 29.036 68.9327 29.676 66.7407 29.676C64.5487 29.676 63.2048 29.036 63.2048 27.964C63.2048 26.876 64.5487 26.252 66.7407 26.252Z" fill="#ABACC0"/>
</svg>
