<svg width="146" height="48" viewBox="0 0 146 48" fill="none" xmlns="http://www.w3.org/2000/svg">
<path d="M24 17.5C24.9283 17.5 25.8185 17.8687 26.4749 18.5251C27.1313 19.1815 27.5 20.0717 27.5 21C27.5 21.9283 27.1313 22.8185 26.4749 23.4749C25.8185 24.1313 24.9283 24.5 24 24.5C23.0717 24.5 22.1815 24.1313 21.5251 23.4749C20.8687 22.8185 20.5 21.9283 20.5 21C20.5 20.0717 20.8687 19.1815 21.5251 18.5251C22.1815 17.8687 23.0717 17.5 24 17.5M17 20C17.56 20 18.08 20.15 18.53 20.42C18.38 21.85 18.8 23.27 19.66 24.38C19.16 25.34 18.16 26 17 26C16.2044 26 15.4413 25.6839 14.8787 25.1213C14.3161 24.5587 14 23.7956 14 23C14 22.2044 14.3161 21.4413 14.8787 20.8787C15.4413 20.3161 16.2044 20 17 20M31 20C31.7956 20 32.5587 20.3161 33.1213 20.8787C33.6839 21.4413 34 22.2044 34 23C34 23.7956 33.6839 24.5587 33.1213 25.1213C32.5587 25.6839 31.7956 26 31 26C29.84 26 28.84 25.34 28.34 24.38C29.2 23.27 29.62 21.85 29.47 20.42C29.92 20.15 30.44 20 31 20ZM17.5 30.25C17.5 28.18 20.41 26.5 24 26.5C27.59 26.5 30.5 28.18 30.5 30.25V32H17.5V30.25ZM12 32V30.5C12 29.11 13.89 27.94 16.45 27.6C15.86 28.28 15.5 29.22 15.5 30.25V32H12ZM36 32H32.5V30.25C32.5 29.22 32.14 28.28 31.55 27.6C34.11 27.94 36 29.11 36 30.5V32Z" fill="#ABACC0"/>
<path d="M44.784 24.844V25.932H57.904V24.844H44.784ZM50.64 25.356V30.748H51.952V25.356H50.64ZM46.432 16.86V23.116H56.224V16.86H54.912V18.844H47.76V16.86H46.432ZM47.76 19.916H54.912V22.044H47.76V19.916ZM70.6608 16.284V30.748H71.9408V16.284H70.6608ZM68.2128 22.076V23.18H70.9967V22.076H68.2128ZM67.3807 16.604V30.012H68.6287V16.604H67.3807ZM60.1807 26.076V27.18H61.1247C63.3007 27.18 64.7568 27.116 66.4847 26.748L66.3568 25.644C64.6767 25.996 63.2367 26.076 61.1247 26.076H60.1807ZM60.1807 18.044V26.572H61.4927V19.132H65.5567V18.044H60.1807ZM85.0495 16.3V26.86H86.3935V16.3H85.0495ZM77.0975 29.34V30.428H86.8255V29.34H77.0975ZM77.0975 25.772V29.708H78.4095V25.772H77.0975ZM78.6335 17.292C76.4735 17.292 74.8575 18.764 74.8575 20.86C74.8575 22.94 76.4735 24.428 78.6335 24.428C80.7935 24.428 82.3935 22.94 82.3935 20.86C82.3935 18.764 80.7935 17.292 78.6335 17.292ZM78.6335 18.444C80.0415 18.444 81.1135 19.436 81.1135 20.86C81.1135 22.268 80.0415 23.26 78.6335 23.26C77.2255 23.26 76.1535 22.268 76.1535 20.86C76.1535 19.436 77.2255 18.444 78.6335 18.444ZM93.5023 23.564V26.78H94.8303V23.564H93.5023ZM99.9183 16.284V27.292H101.246V16.284H99.9183ZM91.3743 29.34V30.428H101.598V29.34H91.3743ZM91.3743 26.22V29.644H92.7023V26.22H91.3743ZM89.5023 24.06C92.1263 24.06 95.6303 24.012 98.7503 23.516L98.6543 22.54C95.5823 22.94 91.9983 22.972 89.3263 22.972L89.5023 24.06ZM96.9743 24.828V25.804H100.254V24.828H96.9743ZM94.0303 16.876C91.9023 16.876 90.4623 17.868 90.4623 19.388C90.4623 20.924 91.9023 21.916 94.0303 21.916C96.1423 21.916 97.5823 20.924 97.5823 19.388C97.5823 17.868 96.1423 16.876 94.0303 16.876ZM94.0303 17.868C95.3743 17.868 96.3183 18.46 96.3183 19.388C96.3183 20.316 95.3743 20.908 94.0303 20.908C92.6703 20.908 91.7263 20.316 91.7263 19.388C91.7263 18.46 92.6703 17.868 94.0303 17.868ZM104.275 27.788V28.892H117.379V27.788H104.275ZM110.163 24.284V28.156H111.475V24.284H110.163ZM110.131 18.108V19.004C110.131 21.292 107.395 23.324 104.899 23.74L105.443 24.796C108.291 24.204 111.251 21.964 111.251 19.004V18.108H110.131ZM110.371 18.108V19.004C110.371 21.964 113.347 24.172 116.243 24.748L116.771 23.692C114.243 23.276 111.491 21.292 111.491 19.004V18.108H110.371ZM105.347 17.596V18.684H116.275V17.596H105.347ZM123.256 24.956V27.34H124.6V24.956H123.256ZM129.592 16.284V30.748H130.92V16.284H129.592ZM119.4 27.996C122.072 27.996 125.56 27.964 128.776 27.42L128.68 26.444C125.56 26.844 121.96 26.876 119.224 26.892L119.4 27.996ZM119.528 18.044V19.116H128.312V18.044H119.528ZM123.912 19.948C121.848 19.948 120.44 21.004 120.44 22.62C120.44 24.252 121.848 25.292 123.912 25.292C125.992 25.292 127.4 24.252 127.4 22.62C127.4 21.004 125.992 19.948 123.912 19.948ZM123.912 20.972C125.224 20.972 126.136 21.628 126.136 22.62C126.136 23.612 125.224 24.268 123.912 24.268C122.616 24.268 121.704 23.612 121.704 22.62C121.704 21.628 122.616 20.972 123.912 20.972ZM123.256 16.284V18.636H124.584V16.284H123.256Z" fill="#ABACC0"/>
</svg>
