<svg width="38" height="38" viewBox="0 0 38 38" fill="none" xmlns="http://www.w3.org/2000/svg">
<g clip-path="url(#clip0_944_5286)">
<path d="M18.9987 35.6223C30.0833 35.6223 35.6223 28.1797 35.6223 18.9987C35.6223 9.81767 30.0833 2.375 18.9987 2.375C7.91402 2.375 2.375 9.81767 2.375 18.9987C2.375 28.1797 7.91402 35.6223 18.9987 35.6223Z" fill="url(#paint0_radial_944_5286)"/>
<path d="M18.9987 35.6223C30.0833 35.6223 35.6223 28.1797 35.6223 18.9987C35.6223 9.81767 30.0833 2.375 18.9987 2.375C7.91402 2.375 2.375 9.81767 2.375 18.9987C2.375 28.1797 7.91402 35.6223 18.9987 35.6223Z" fill="url(#paint1_radial_944_5286)"/>
<path d="M18.9987 35.6223C30.0833 35.6223 35.6223 28.1797 35.6223 18.9987C35.6223 9.81767 30.0833 2.375 18.9987 2.375C7.91402 2.375 2.375 9.81767 2.375 18.9987C2.375 28.1797 7.91402 35.6223 18.9987 35.6223Z" fill="url(#paint2_radial_944_5286)" fill-opacity="0.6"/>
<path d="M18.9987 35.6223C30.0833 35.6223 35.6223 28.1797 35.6223 18.9987C35.6223 9.81767 30.0833 2.375 18.9987 2.375C7.91402 2.375 2.375 9.81767 2.375 18.9987C2.375 28.1797 7.91402 35.6223 18.9987 35.6223Z" fill="url(#paint3_radial_944_5286)"/>
<path d="M18.9987 35.6223C30.0833 35.6223 35.6223 28.1797 35.6223 18.9987C35.6223 9.81767 30.0833 2.375 18.9987 2.375C7.91402 2.375 2.375 9.81767 2.375 18.9987C2.375 28.1797 7.91402 35.6223 18.9987 35.6223Z" fill="url(#paint4_radial_944_5286)"/>
<path d="M18.9987 35.6223C30.0833 35.6223 35.6223 28.1797 35.6223 18.9987C35.6223 9.81767 30.0833 2.375 18.9987 2.375C7.91402 2.375 2.375 9.81767 2.375 18.9987C2.375 28.1797 7.91402 35.6223 18.9987 35.6223Z" fill="url(#paint5_radial_944_5286)"/>
<path d="M18.9987 35.6223C30.0833 35.6223 35.6223 28.1797 35.6223 18.9987C35.6223 9.81767 30.0833 2.375 18.9987 2.375C7.91402 2.375 2.375 9.81767 2.375 18.9987C2.375 28.1797 7.91402 35.6223 18.9987 35.6223Z" fill="url(#paint6_radial_944_5286)"/>
<circle cx="10.7077" cy="19.4988" r="5.54954" fill="url(#paint7_radial_944_5286)"/>
<circle cx="22.8526" cy="20.1202" r="5.04012" fill="url(#paint8_radial_944_5286)"/>
<path d="M12.3725 22.829C15.1309 22.829 17.3671 20.5929 17.3671 17.8344C17.3671 15.076 15.1309 12.8398 12.3725 12.8398C9.61408 12.8398 7.37793 15.076 7.37793 17.8344C7.37793 20.5929 9.61408 22.829 12.3725 22.829Z" fill="white"/>
<path d="M25.6122 22.9201C28.3957 22.9201 30.6523 20.6635 30.6523 17.88C30.6523 15.0964 28.3957 12.8398 25.6122 12.8398C22.8286 12.8398 20.5721 15.0964 20.5721 17.88C20.5721 20.6635 22.8286 22.9201 25.6122 22.9201Z" fill="white"/>
<path d="M13.0625 21.375C15.03 21.375 16.625 19.78 16.625 17.8125C16.625 15.845 15.03 14.25 13.0625 14.25C11.095 14.25 9.5 15.845 9.5 17.8125C9.5 19.78 11.095 21.375 13.0625 21.375Z" fill="url(#paint9_linear_944_5286)"/>
<path d="M24.9375 21.375C26.905 21.375 28.5 19.78 28.5 17.8125C28.5 15.845 26.905 14.25 24.9375 14.25C22.97 14.25 21.375 15.845 21.375 17.8125C21.375 19.78 22.97 21.375 24.9375 21.375Z" fill="url(#paint10_linear_944_5286)"/>
<path d="M7.71875 12.4688C8.11458 11.2812 9.61875 8.90625 12.4688 8.90625" stroke="url(#paint11_linear_944_5286)" stroke-width="1.1875" stroke-linecap="round" stroke-linejoin="round"/>
<path d="M30.2812 12.4688C29.8854 11.2812 28.3813 8.90625 25.5312 8.90625" stroke="url(#paint12_linear_944_5286)" stroke-width="1.1875" stroke-linecap="round" stroke-linejoin="round"/>
<path d="M15.4375 27.3125C15.4375 27.3125 16.625 26.125 19 26.125C21.375 26.125 22.5625 27.3125 22.5625 27.3125" stroke="url(#paint13_linear_944_5286)" stroke-width="2.375" stroke-linecap="round"/>
<rect x="5.9375" y="23.75" width="4.75" height="8.3125" rx="2.375" fill="url(#paint14_radial_944_5286)"/>
<rect x="7.125" y="22.5625" width="4.75" height="8.3125" rx="2.375" fill="url(#paint15_radial_944_5286)"/>
</g>
<defs>
<radialGradient id="paint0_radial_944_5286" cx="0" cy="0" r="1" gradientUnits="userSpaceOnUse" gradientTransform="translate(30.2813 10.6875) rotate(131.878) scale(46.2516)">
<stop stop-color="#FFF478"/>
<stop offset="0.474827" stop-color="#FFB02E"/>
<stop offset="1" stop-color="#F70A8D"/>
</radialGradient>
<radialGradient id="paint1_radial_944_5286" cx="0" cy="0" r="1" gradientUnits="userSpaceOnUse" gradientTransform="translate(19 14.8438) rotate(101.31) scale(21.1928 27.1439)">
<stop offset="0.787821" stop-color="#F59639" stop-opacity="0"/>
<stop offset="0.972509" stop-color="#FF7DCE"/>
</radialGradient>
<radialGradient id="paint2_radial_944_5286" cx="0" cy="0" r="1" gradientUnits="userSpaceOnUse" gradientTransform="translate(21.375 16.625) rotate(135) scale(48.702)">
<stop offset="0.314853" stop-opacity="0"/>
<stop offset="1"/>
</radialGradient>
<radialGradient id="paint3_radial_944_5286" cx="0" cy="0" r="1" gradientUnits="userSpaceOnUse" gradientTransform="translate(19 20.1875) rotate(77.692) scale(33.4245)">
<stop offset="0.507903" stop-color="#7D6133" stop-opacity="0"/>
<stop offset="1" stop-color="#715B32"/>
</radialGradient>
<radialGradient id="paint4_radial_944_5286" cx="0" cy="0" r="1" gradientUnits="userSpaceOnUse" gradientTransform="translate(19.5938 19.5938) rotate(55.7131) scale(15.8098 11.4598)">
<stop stop-color="#FFB849"/>
<stop offset="1" stop-color="#FFB847" stop-opacity="0"/>
</radialGradient>
<radialGradient id="paint5_radial_944_5286" cx="0" cy="0" r="1" gradientUnits="userSpaceOnUse" gradientTransform="translate(24.3438 21.375) rotate(9.86581) scale(13.8612)">
<stop stop-color="#FFA64B"/>
<stop offset="0.900412" stop-color="#FFAE46" stop-opacity="0"/>
</radialGradient>
<radialGradient id="paint6_radial_944_5286" cx="0" cy="0" r="1" gradientUnits="userSpaceOnUse" gradientTransform="translate(20.7812 17.8125) rotate(43.9708) scale(70.1254)">
<stop offset="0.185425" stop-opacity="0"/>
<stop offset="1" stop-opacity="0.4"/>
</radialGradient>
<radialGradient id="paint7_radial_944_5286" cx="0" cy="0" r="1" gradientUnits="userSpaceOnUse" gradientTransform="translate(15.024 15.1824) rotate(135) scale(10.8131 5.59651)">
<stop stop-color="#392108"/>
<stop offset="1" stop-color="#C87928" stop-opacity="0"/>
</radialGradient>
<radialGradient id="paint8_radial_944_5286" cx="0" cy="0" r="1" gradientUnits="userSpaceOnUse" gradientTransform="translate(26.7727 16.2001) rotate(135) scale(9.10775 5.14147)">
<stop stop-color="#392108"/>
<stop offset="1" stop-color="#C87928" stop-opacity="0"/>
</radialGradient>
<linearGradient id="paint9_linear_944_5286" x1="19.5938" y1="13.0625" x2="18.4063" y2="21.375" gradientUnits="userSpaceOnUse">
<stop stop-color="#553B3E"/>
<stop offset="1" stop-color="#3D2432"/>
</linearGradient>
<linearGradient id="paint10_linear_944_5286" x1="19.5938" y1="13.0625" x2="18.4063" y2="21.375" gradientUnits="userSpaceOnUse">
<stop stop-color="#553B3E"/>
<stop offset="1" stop-color="#3D2432"/>
</linearGradient>
<linearGradient id="paint11_linear_944_5286" x1="8.11458" y1="13.5375" x2="8.11458" y2="11.4" gradientUnits="userSpaceOnUse">
<stop offset="0.0299084" stop-color="#524049"/>
<stop offset="1" stop-color="#4A2C42"/>
</linearGradient>
<linearGradient id="paint12_linear_944_5286" x1="29.8854" y1="13.5375" x2="29.8854" y2="11.4" gradientUnits="userSpaceOnUse">
<stop offset="0.0299084" stop-color="#524049"/>
<stop offset="1" stop-color="#4A2C42"/>
</linearGradient>
<linearGradient id="paint13_linear_944_5286" x1="19" y1="23.75" x2="19" y2="26.125" gradientUnits="userSpaceOnUse">
<stop stop-color="#4F3C43"/>
<stop offset="1" stop-color="#512756"/>
</linearGradient>
<radialGradient id="paint14_radial_944_5286" cx="0" cy="0" r="1" gradientUnits="userSpaceOnUse" gradientTransform="translate(9.20312 25.2344) rotate(105.255) scale(6.76979 2.98674)">
<stop stop-color="#392108"/>
<stop offset="1" stop-color="#C87928" stop-opacity="0"/>
</radialGradient>
<radialGradient id="paint15_radial_944_5286" cx="0" cy="0" r="1" gradientUnits="userSpaceOnUse" gradientTransform="translate(11.0833 22.9403) rotate(105.285) scale(9.00903 3.50536)">
<stop stop-color="#5C98FF"/>
<stop offset="0.805982" stop-color="#3D5BF1"/>
<stop offset="0.962238" stop-color="#6065CA"/>
</radialGradient>
<clipPath id="clip0_944_5286">
<rect width="38" height="38" fill="white"/>
</clipPath>
</defs>
</svg>
