<svg width="16" height="16" viewBox="0 0 16 16" fill="none" xmlns="http://www.w3.org/2000/svg">
<path d="M7.88699 6L10.0003 8.10667C10.0003 8.07333 10.0003 8.03333 10.0003 8C10.0003 7.46957 9.78961 6.96086 9.41454 6.58579C9.03947 6.21071 8.53076 6 8.00033 6C7.96033 6 7.92699 6 7.88699 6ZM5.02033 6.53333L6.05366 7.56667C6.02033 7.70667 6.00033 7.84667 6.00033 8C6.00033 8.53043 6.21104 9.03914 6.58611 9.41421C6.96118 9.78929 7.46989 10 8.00033 10C8.14699 10 8.29366 9.98 8.43366 9.94667L9.46699 10.98C9.02032 11.2 8.52699 11.3333 8.00033 11.3333C7.11627 11.3333 6.26842 10.9821 5.6433 10.357C5.01818 9.7319 4.66699 8.88406 4.66699 8C4.66699 7.47333 4.80033 6.98 5.02033 6.53333ZM1.33366 2.84667L2.85366 4.36667L3.15366 4.66667C2.05366 5.53333 1.18699 6.66667 0.666992 8C1.82033 10.9267 4.66699 13 8.00033 13C9.03366 13 10.0203 12.8 10.9203 12.44L11.207 12.72L13.1537 14.6667L14.0003 13.82L2.18033 2M8.00033 4.66667C8.88438 4.66667 9.73223 5.01786 10.3573 5.64298C10.9825 6.2681 11.3337 7.11595 11.3337 8C11.3337 8.42667 11.247 8.84 11.0937 9.21333L13.047 11.1667C14.047 10.3333 14.847 9.24 15.3337 8C14.1803 5.07333 11.3337 3 8.00033 3C7.06699 3 6.17366 3.16667 5.33366 3.46667L6.78033 4.9C7.16033 4.75333 7.56699 4.66667 8.00033 4.66667Z" fill="#D9D8E8"/>
</svg>
