<svg width="50" height="50" viewBox="0 0 50 50" fill="none" xmlns="http://www.w3.org/2000/svg">
<g filter="url(#filter0_iii_860_2618)">
<path d="M21.9291 5.55007L28.5923 16.9315L19.1929 19.6045C12.7004 17.4563 8.87615 13.3266 6.5708 9.08203C5.59853 7.2919 5.60645 4.00391 9.47041 4.00391H19.2323C20.342 4.00391 21.3685 4.59241 21.9291 5.55007Z" fill="#4686EC"/>
<path d="M21.9291 5.55007L28.5923 16.9315L19.1929 19.6045C12.7004 17.4563 8.87615 13.3266 6.5708 9.08203C5.59853 7.2919 5.60645 4.00391 9.47041 4.00391H19.2323C20.342 4.00391 21.3685 4.59241 21.9291 5.55007Z" fill="url(#paint0_radial_860_2618)"/>
<path d="M21.9291 5.55007L28.5923 16.9315L19.1929 19.6045C12.7004 17.4563 8.87615 13.3266 6.5708 9.08203C5.59853 7.2919 5.60645 4.00391 9.47041 4.00391H19.2323C20.342 4.00391 21.3685 4.59241 21.9291 5.55007Z" fill="url(#paint1_linear_860_2618)"/>
</g>
<g filter="url(#filter1_iii_860_2618)">
<path d="M27.8316 5.55007L21.1685 16.9315L30.5679 19.6045C37.0603 17.4563 40.8846 13.3266 43.1899 9.08203C44.1622 7.2919 44.1543 4.00391 40.2903 4.00391H30.5285C29.4188 4.00391 28.3923 4.59241 27.8316 5.55007Z" fill="#4686EC"/>
<path d="M27.8316 5.55007L21.1685 16.9315L30.5679 19.6045C37.0603 17.4563 40.8846 13.3266 43.1899 9.08203C44.1622 7.2919 44.1543 4.00391 40.2903 4.00391H30.5285C29.4188 4.00391 28.3923 4.59241 27.8316 5.55007Z" fill="url(#paint2_radial_860_2618)"/>
<path d="M27.8316 5.55007L21.1685 16.9315L30.5679 19.6045C37.0603 17.4563 40.8846 13.3266 43.1899 9.08203C44.1622 7.2919 44.1543 4.00391 40.2903 4.00391H30.5285C29.4188 4.00391 28.3923 4.59241 27.8316 5.55007Z" fill="url(#paint3_linear_860_2618)"/>
</g>
<path d="M27.8316 5.55007L21.1685 16.9315L30.5679 19.6045C37.0603 17.4563 40.8846 13.3266 43.1899 9.08203C44.1622 7.2919 44.1543 4.00391 40.2903 4.00391H30.5285C29.4188 4.00391 28.3923 4.59241 27.8316 5.55007Z" fill="url(#paint4_linear_860_2618)"/>
<circle cx="25.0734" cy="31.4554" r="15.6995" fill="url(#paint5_linear_860_2618)"/>
<circle cx="25.0734" cy="31.4554" r="15.6995" fill="url(#paint6_linear_860_2618)"/>
<circle cx="25.0734" cy="31.4554" r="13.5755" fill="url(#paint7_linear_860_2618)"/>
<ellipse cx="25.0734" cy="31.4558" rx="11.8513" ry="11.8513" fill="url(#paint8_linear_860_2618)"/>
<ellipse cx="25.0734" cy="31.4558" rx="11.8513" ry="11.8513" fill="url(#paint9_radial_860_2618)"/>
<ellipse cx="25.0734" cy="31.4558" rx="11.8513" ry="11.8513" fill="url(#paint10_radial_860_2618)"/>
<g filter="url(#filter2_ii_860_2618)">
<path d="M26.9058 25.8C26.9058 25.3582 26.5476 25 26.1058 25H22.3985C22.1776 25 21.9985 25.1791 21.9985 25.4V27.6884C21.9985 27.9093 22.1776 28.0884 22.3985 28.0884H23.4575C23.5956 28.0884 23.7075 28.2003 23.7075 28.3384V37.7812C23.7075 38.0574 23.9314 38.2812 24.2075 38.2812H26.4058C26.6819 38.2812 26.9058 38.0574 26.9058 37.7812V25.8Z" fill="#6F3955"/>
</g>
<path d="M26.9058 25.8C26.9058 25.3582 26.5476 25 26.1058 25H22.3985C22.1776 25 21.9985 25.1791 21.9985 25.4V27.6884C21.9985 27.9093 22.1776 28.0884 22.3985 28.0884H23.4575C23.5956 28.0884 23.7075 28.2003 23.7075 28.3384V37.7812C23.7075 38.0574 23.9314 38.2812 24.2075 38.2812H26.4058C26.6819 38.2812 26.9058 38.0574 26.9058 37.7812V25.8Z" fill="url(#paint11_linear_860_2618)"/>
<defs>
<filter id="filter0_iii_860_2618" x="5.78174" y="3.80391" width="23.0105" height="16.0506" filterUnits="userSpaceOnUse" color-interpolation-filters="sRGB">
<feFlood flood-opacity="0" result="BackgroundImageFix"/>
<feBlend mode="normal" in="SourceGraphic" in2="BackgroundImageFix" result="shape"/>
<feColorMatrix in="SourceAlpha" type="matrix" values="0 0 0 0 0 0 0 0 0 0 0 0 0 0 0 0 0 0 127 0" result="hardAlpha"/>
<feOffset dx="-0.2" dy="-0.2"/>
<feGaussianBlur stdDeviation="0.2"/>
<feComposite in2="hardAlpha" operator="arithmetic" k2="-1" k3="1"/>
<feColorMatrix type="matrix" values="0 0 0 0 0.317647 0 0 0 0 0.458824 0 0 0 0 0.886275 0 0 0 1 0"/>
<feBlend mode="normal" in2="shape" result="effect1_innerShadow_860_2618"/>
<feColorMatrix in="SourceAlpha" type="matrix" values="0 0 0 0 0 0 0 0 0 0 0 0 0 0 0 0 0 0 127 0" result="hardAlpha"/>
<feOffset dx="0.2" dy="0.2"/>
<feGaussianBlur stdDeviation="0.2"/>
<feComposite in2="hardAlpha" operator="arithmetic" k2="-1" k3="1"/>
<feColorMatrix type="matrix" values="0 0 0 0 0.317647 0 0 0 0 0.458824 0 0 0 0 0.886275 0 0 0 1 0"/>
<feBlend mode="normal" in2="effect1_innerShadow_860_2618" result="effect2_innerShadow_860_2618"/>
<feColorMatrix in="SourceAlpha" type="matrix" values="0 0 0 0 0 0 0 0 0 0 0 0 0 0 0 0 0 0 127 0" result="hardAlpha"/>
<feOffset dx="-0.25" dy="0.25"/>
<feGaussianBlur stdDeviation="0.25"/>
<feComposite in2="hardAlpha" operator="arithmetic" k2="-1" k3="1"/>
<feColorMatrix type="matrix" values="0 0 0 0 0.372549 0 0 0 0 0.607843 0 0 0 0 0.960784 0 0 0 1 0"/>
<feBlend mode="normal" in2="effect2_innerShadow_860_2618" result="effect3_innerShadow_860_2618"/>
</filter>
<filter id="filter1_iii_860_2618" x="20.9185" y="3.80391" width="23.0105" height="16.0506" filterUnits="userSpaceOnUse" color-interpolation-filters="sRGB">
<feFlood flood-opacity="0" result="BackgroundImageFix"/>
<feBlend mode="normal" in="SourceGraphic" in2="BackgroundImageFix" result="shape"/>
<feColorMatrix in="SourceAlpha" type="matrix" values="0 0 0 0 0 0 0 0 0 0 0 0 0 0 0 0 0 0 127 0" result="hardAlpha"/>
<feOffset dx="-0.2" dy="-0.2"/>
<feGaussianBlur stdDeviation="0.2"/>
<feComposite in2="hardAlpha" operator="arithmetic" k2="-1" k3="1"/>
<feColorMatrix type="matrix" values="0 0 0 0 0.317647 0 0 0 0 0.458824 0 0 0 0 0.886275 0 0 0 1 0"/>
<feBlend mode="normal" in2="shape" result="effect1_innerShadow_860_2618"/>
<feColorMatrix in="SourceAlpha" type="matrix" values="0 0 0 0 0 0 0 0 0 0 0 0 0 0 0 0 0 0 127 0" result="hardAlpha"/>
<feOffset dx="0.2" dy="0.2"/>
<feGaussianBlur stdDeviation="0.2"/>
<feComposite in2="hardAlpha" operator="arithmetic" k2="-1" k3="1"/>
<feColorMatrix type="matrix" values="0 0 0 0 0.317647 0 0 0 0 0.458824 0 0 0 0 0.886275 0 0 0 1 0"/>
<feBlend mode="normal" in2="effect1_innerShadow_860_2618" result="effect2_innerShadow_860_2618"/>
<feColorMatrix in="SourceAlpha" type="matrix" values="0 0 0 0 0 0 0 0 0 0 0 0 0 0 0 0 0 0 127 0" result="hardAlpha"/>
<feOffset dx="-0.25" dy="0.25"/>
<feGaussianBlur stdDeviation="0.25"/>
<feComposite in2="hardAlpha" operator="arithmetic" k2="-1" k3="1"/>
<feColorMatrix type="matrix" values="0 0 0 0 0.372549 0 0 0 0 0.607843 0 0 0 0 0.960784 0 0 0 1 0"/>
<feBlend mode="normal" in2="effect2_innerShadow_860_2618" result="effect3_innerShadow_860_2618"/>
</filter>
<filter id="filter2_ii_860_2618" x="21.6985" y="24.8" width="5.40723" height="13.7813" filterUnits="userSpaceOnUse" color-interpolation-filters="sRGB">
<feFlood flood-opacity="0" result="BackgroundImageFix"/>
<feBlend mode="normal" in="SourceGraphic" in2="BackgroundImageFix" result="shape"/>
<feColorMatrix in="SourceAlpha" type="matrix" values="0 0 0 0 0 0 0 0 0 0 0 0 0 0 0 0 0 0 127 0" result="hardAlpha"/>
<feOffset dx="-0.3" dy="0.3"/>
<feGaussianBlur stdDeviation="0.3"/>
<feComposite in2="hardAlpha" operator="arithmetic" k2="-1" k3="1"/>
<feColorMatrix type="matrix" values="0 0 0 0 0.392157 0 0 0 0 0.164706 0 0 0 0 0.254902 0 0 0 1 0"/>
<feBlend mode="normal" in2="shape" result="effect1_innerShadow_860_2618"/>
<feColorMatrix in="SourceAlpha" type="matrix" values="0 0 0 0 0 0 0 0 0 0 0 0 0 0 0 0 0 0 127 0" result="hardAlpha"/>
<feOffset dx="0.2" dy="-0.2"/>
<feGaussianBlur stdDeviation="0.2"/>
<feComposite in2="hardAlpha" operator="arithmetic" k2="-1" k3="1"/>
<feColorMatrix type="matrix" values="0 0 0 0 0.501961 0 0 0 0 0.333333 0 0 0 0 0.360784 0 0 0 1 0"/>
<feBlend mode="normal" in2="effect1_innerShadow_860_2618" result="effect2_innerShadow_860_2618"/>
</filter>
<radialGradient id="paint0_radial_860_2618" cx="0" cy="0" r="1" gradientUnits="userSpaceOnUse" gradientTransform="translate(20.4734 18.5024) rotate(-123.321) scale(7.19301 26.8629)">
<stop stop-color="#3669D9"/>
<stop offset="1" stop-color="#3669D9" stop-opacity="0"/>
</radialGradient>
<linearGradient id="paint1_linear_860_2618" x1="10.2841" y1="3.16124" x2="13.089" y2="10.1449" gradientUnits="userSpaceOnUse">
<stop stop-color="#3D89EC"/>
<stop offset="1" stop-color="#3D89EC" stop-opacity="0"/>
</linearGradient>
<radialGradient id="paint2_radial_860_2618" cx="0" cy="0" r="1" gradientUnits="userSpaceOnUse" gradientTransform="translate(29.2873 18.5024) rotate(-57.2648) scale(4.76359 10.4489)">
<stop stop-color="#3669D9"/>
<stop offset="1" stop-color="#3669D9" stop-opacity="0"/>
</radialGradient>
<linearGradient id="paint3_linear_860_2618" x1="39.4766" y1="3.16124" x2="36.6717" y2="10.1449" gradientUnits="userSpaceOnUse">
<stop stop-color="#3D89EC"/>
<stop offset="1" stop-color="#3D89EC" stop-opacity="0"/>
</linearGradient>
<linearGradient id="paint4_linear_860_2618" x1="24.6071" y1="11.0365" x2="25.1348" y2="11.3276" gradientUnits="userSpaceOnUse">
<stop stop-color="#1A6DD8"/>
<stop offset="1" stop-color="#1A6DD8" stop-opacity="0"/>
</linearGradient>
<linearGradient id="paint5_linear_860_2618" x1="33.4652" y1="25.8904" x2="22.5206" y2="36.6146" gradientUnits="userSpaceOnUse">
<stop stop-color="#F4C654"/>
<stop offset="1" stop-color="#DC9729"/>
</linearGradient>
<linearGradient id="paint6_linear_860_2618" x1="19.5874" y1="47.9177" x2="23.128" y2="27.3862" gradientUnits="userSpaceOnUse">
<stop stop-color="#FA8547"/>
<stop offset="1" stop-color="#FA8547" stop-opacity="0"/>
</linearGradient>
<linearGradient id="paint7_linear_860_2618" x1="37.4426" y1="29.0832" x2="25.0734" y2="29.0832" gradientUnits="userSpaceOnUse">
<stop stop-color="#F9A842"/>
<stop offset="1" stop-color="#FAA742"/>
<stop offset="1" stop-color="#FAA742"/>
</linearGradient>
<linearGradient id="paint8_linear_860_2618" x1="19.5948" y1="29.9529" x2="37.2737" y2="29.9529" gradientUnits="userSpaceOnUse">
<stop stop-color="#FAA945"/>
<stop offset="1" stop-color="#EC9936"/>
</linearGradient>
<radialGradient id="paint9_radial_860_2618" cx="0" cy="0" r="1" gradientUnits="userSpaceOnUse" gradientTransform="translate(29.6685 31.4558) rotate(180) scale(16.4464 14.0141)">
<stop offset="0.893104" stop-color="#F7B44D" stop-opacity="0"/>
<stop offset="1" stop-color="#F7B44D"/>
</radialGradient>
<radialGradient id="paint10_radial_860_2618" cx="0" cy="0" r="1" gradientUnits="userSpaceOnUse" gradientTransform="translate(21.9965 31.4558) scale(15.825 13.8771)">
<stop offset="0.878757" stop-color="#D2801F" stop-opacity="0"/>
<stop offset="0.98268" stop-color="#D2801F"/>
</radialGradient>
<linearGradient id="paint11_linear_860_2618" x1="25.6606" y1="38.2812" x2="25.6606" y2="37.0054" gradientUnits="userSpaceOnUse">
<stop stop-color="#693B2E"/>
<stop offset="1" stop-color="#693B2E" stop-opacity="0"/>
</linearGradient>
</defs>
</svg>
