<svg width="32" height="32" viewBox="0 0 32 32" fill="none" xmlns="http://www.w3.org/2000/svg">
<g filter="url(#filter0_ii_2164_6987)">
<rect x="2.28906" y="1.8125" width="27.875" height="27.875" rx="3.6" fill="url(#paint0_linear_2164_6987)"/>
<rect x="2.28906" y="1.8125" width="27.875" height="27.875" rx="3.6" fill="url(#paint1_radial_2164_6987)"/>
</g>
<g filter="url(#filter1_f_2164_6987)">
<path d="M28.4766 4.3125V27.1875" stroke="url(#paint2_linear_2164_6987)" stroke-width="1.5" stroke-linecap="round"/>
</g>
<g filter="url(#filter2_f_2164_6987)">
<path d="M5.75293 3.625H27.5342" stroke="url(#paint3_linear_2164_6987)" stroke-width="1.5" stroke-linecap="round"/>
</g>
<g filter="url(#filter3_f_2164_6987)">
<path d="M17.5888 7.75344C18.2532 8.01919 18.6889 8.66269 18.6889 9.3783V22.3783C18.6889 23.3448 17.9054 24.1283 16.9389 24.1283C15.9724 24.1283 15.1889 23.3448 15.1889 22.3783V13.9812C15.1889 13.8991 15.0886 13.859 15.032 13.9185V13.9185C14.3655 14.6184 13.2577 14.6455 12.5578 13.979C11.8579 13.3124 11.8308 12.2047 12.4973 11.5048L15.6716 8.17147C16.1651 7.65325 16.9244 7.48769 17.5888 7.75344Z" fill="#579FFF"/>
</g>
<g filter="url(#filter4_ii_2164_6987)">
<path d="M17.5888 7.75344C18.2532 8.01919 18.6889 8.66269 18.6889 9.3783V22.3783C18.6889 23.3448 17.9054 24.1283 16.9389 24.1283C15.9724 24.1283 15.1889 23.3448 15.1889 22.3783V13.9812C15.1889 13.8991 15.0886 13.859 15.032 13.9185V13.9185C14.3655 14.6184 13.2577 14.6455 12.5578 13.979C11.8579 13.3124 11.8308 12.2047 12.4973 11.5048L15.6716 8.17147C16.1651 7.65325 16.9244 7.48769 17.5888 7.75344Z" fill="#FCF2FF"/>
</g>
<defs>
<filter id="filter0_ii_2164_6987" x="2.28906" y="0.8125" width="28.875" height="28.875" filterUnits="userSpaceOnUse" color-interpolation-filters="sRGB">
<feFlood flood-opacity="0" result="BackgroundImageFix"/>
<feBlend mode="normal" in="SourceGraphic" in2="BackgroundImageFix" result="shape"/>
<feColorMatrix in="SourceAlpha" type="matrix" values="0 0 0 0 0 0 0 0 0 0 0 0 0 0 0 0 0 0 127 0" result="hardAlpha"/>
<feOffset dx="1" dy="-1"/>
<feGaussianBlur stdDeviation="1.5"/>
<feComposite in2="hardAlpha" operator="arithmetic" k2="-1" k3="1"/>
<feColorMatrix type="matrix" values="0 0 0 0 0.188235 0 0 0 0 0.470588 0 0 0 0 0.843137 0 0 0 1 0"/>
<feBlend mode="normal" in2="shape" result="effect1_innerShadow_2164_6987"/>
<feColorMatrix in="SourceAlpha" type="matrix" values="0 0 0 0 0 0 0 0 0 0 0 0 0 0 0 0 0 0 127 0" result="hardAlpha"/>
<feOffset dy="-1"/>
<feGaussianBlur stdDeviation="1.5"/>
<feComposite in2="hardAlpha" operator="arithmetic" k2="-1" k3="1"/>
<feColorMatrix type="matrix" values="0 0 0 0 0.27451 0 0 0 0 0.34902 0 0 0 0 0.8 0 0 0 1 0"/>
<feBlend mode="normal" in2="effect1_innerShadow_2164_6987" result="effect2_innerShadow_2164_6987"/>
</filter>
<filter id="filter1_f_2164_6987" x="25.7266" y="1.5625" width="5.5" height="28.375" filterUnits="userSpaceOnUse" color-interpolation-filters="sRGB">
<feFlood flood-opacity="0" result="BackgroundImageFix"/>
<feBlend mode="normal" in="SourceGraphic" in2="BackgroundImageFix" result="shape"/>
<feGaussianBlur stdDeviation="1" result="effect1_foregroundBlur_2164_6987"/>
</filter>
<filter id="filter2_f_2164_6987" x="3.00293" y="0.875" width="27.2812" height="5.5" filterUnits="userSpaceOnUse" color-interpolation-filters="sRGB">
<feFlood flood-opacity="0" result="BackgroundImageFix"/>
<feBlend mode="normal" in="SourceGraphic" in2="BackgroundImageFix" result="shape"/>
<feGaussianBlur stdDeviation="1" result="effect1_foregroundBlur_2164_6987"/>
</filter>
<filter id="filter3_f_2164_6987" x="11.0146" y="6.62823" width="8.67383" height="18.5001" filterUnits="userSpaceOnUse" color-interpolation-filters="sRGB">
<feFlood flood-opacity="0" result="BackgroundImageFix"/>
<feBlend mode="normal" in="SourceGraphic" in2="BackgroundImageFix" result="shape"/>
<feGaussianBlur stdDeviation="0.5" result="effect1_foregroundBlur_2164_6987"/>
</filter>
<filter id="filter4_ii_2164_6987" x="11.0146" y="7.22823" width="8.07383" height="17.9001" filterUnits="userSpaceOnUse" color-interpolation-filters="sRGB">
<feFlood flood-opacity="0" result="BackgroundImageFix"/>
<feBlend mode="normal" in="SourceGraphic" in2="BackgroundImageFix" result="shape"/>
<feColorMatrix in="SourceAlpha" type="matrix" values="0 0 0 0 0 0 0 0 0 0 0 0 0 0 0 0 0 0 127 0" result="hardAlpha"/>
<feOffset dx="-1" dy="1"/>
<feGaussianBlur stdDeviation="1"/>
<feComposite in2="hardAlpha" operator="arithmetic" k2="-1" k3="1"/>
<feColorMatrix type="matrix" values="0 0 0 0 0.866667 0 0 0 0 0.819608 0 0 0 0 0.941176 0 0 0 1 0"/>
<feBlend mode="normal" in2="shape" result="effect1_innerShadow_2164_6987"/>
<feColorMatrix in="SourceAlpha" type="matrix" values="0 0 0 0 0 0 0 0 0 0 0 0 0 0 0 0 0 0 127 0" result="hardAlpha"/>
<feOffset dx="0.4" dy="-0.4"/>
<feGaussianBlur stdDeviation="0.5"/>
<feComposite in2="hardAlpha" operator="arithmetic" k2="-1" k3="1"/>
<feColorMatrix type="matrix" values="0 0 0 0 1 0 0 0 0 0.988235 0 0 0 0 1 0 0 0 1 0"/>
<feBlend mode="normal" in2="effect1_innerShadow_2164_6987" result="effect2_innerShadow_2164_6987"/>
</filter>
<linearGradient id="paint0_linear_2164_6987" x1="16.2266" y1="5.38701" x2="16.2266" y2="38.6397" gradientUnits="userSpaceOnUse">
<stop stop-color="#5CB7FF"/>
<stop offset="1" stop-color="#4878DD"/>
</linearGradient>
<radialGradient id="paint1_radial_2164_6987" cx="0" cy="0" r="1" gradientUnits="userSpaceOnUse" gradientTransform="translate(27.9453 3.90625) rotate(136.771) scale(2.14444 2.50466)">
<stop stop-color="#7BD7FF"/>
<stop offset="1" stop-color="#7BD7FF" stop-opacity="0"/>
</radialGradient>
<linearGradient id="paint2_linear_2164_6987" x1="28.9766" y1="4.3125" x2="28.9766" y2="27.1875" gradientUnits="userSpaceOnUse">
<stop stop-color="#7FD9FF"/>
<stop offset="1" stop-color="#639DF4"/>
</linearGradient>
<linearGradient id="paint3_linear_2164_6987" x1="28.6904" y1="3.87502" x2="3.15918" y2="3.87502" gradientUnits="userSpaceOnUse">
<stop stop-color="#7DD8FF"/>
<stop offset="1" stop-color="#5DB6FF"/>
</linearGradient>
</defs>
</svg>
