<svg width="32" height="32" viewBox="0 0 32 32" fill="none" xmlns="http://www.w3.org/2000/svg">
<g filter="url(#filter0_ii_2164_6994)">
<rect x="2.28906" y="1.6875" width="27.875" height="27.875" rx="3.6" fill="url(#paint0_linear_2164_6994)"/>
<rect x="2.28906" y="1.6875" width="27.875" height="27.875" rx="3.6" fill="url(#paint1_radial_2164_6994)"/>
</g>
<g filter="url(#filter1_f_2164_6994)">
<path d="M28.4766 4.1875V27.0625" stroke="url(#paint2_linear_2164_6994)" stroke-width="1.5" stroke-linecap="round"/>
</g>
<g filter="url(#filter2_f_2164_6994)">
<path d="M5.75293 3.5H27.5342" stroke="url(#paint3_linear_2164_6994)" stroke-width="1.5" stroke-linecap="round"/>
</g>
<g filter="url(#filter3_f_2164_6994)">
<path d="M16.4035 10.5285C16.0946 10.5439 15.6048 10.6971 15.0543 11.3519C14.4324 12.0917 13.3285 12.1872 12.5887 11.5652C11.8489 10.9433 11.7534 9.83935 12.3753 9.09957C13.4531 7.81766 14.8055 7.10405 16.2285 7.03284C17.628 6.96279 18.9087 7.52601 19.822 8.43721C21.7269 10.3378 21.963 13.581 19.5202 16.2048C18.8093 16.9684 17.9461 17.8704 17.0749 18.7807C16.7299 19.1412 16.3837 19.503 16.0451 19.8581C15.9845 19.9217 16.0296 20.027 16.1175 20.027H19.9835C20.95 20.027 21.7335 20.8105 21.7335 21.777C21.7335 22.7435 20.95 23.527 19.9835 23.527H12.9646C11.0835 23.527 9.9584 21.2827 11.3047 19.7986C12.1562 18.8599 13.4205 17.5378 14.6261 16.2769C15.4921 15.3713 16.3278 14.4973 16.9586 13.8198C17.6249 13.1041 17.7998 12.4766 17.8015 12.036C17.8033 11.5786 17.6219 11.1862 17.3499 10.9149C17.0765 10.6421 16.7358 10.5118 16.4035 10.5285Z" fill="#579FFF"/>
</g>
<g filter="url(#filter4_ii_2164_6994)">
<path d="M16.4035 10.5285C16.0946 10.5439 15.6048 10.6971 15.0543 11.3519C14.4324 12.0917 13.3285 12.1872 12.5887 11.5652C11.8489 10.9433 11.7534 9.83935 12.3753 9.09957C13.4531 7.81766 14.8055 7.10405 16.2285 7.03284C17.628 6.96279 18.9087 7.52601 19.822 8.43721C21.7269 10.3378 21.963 13.581 19.5202 16.2048C18.8093 16.9684 17.9461 17.8704 17.0749 18.7807C16.7299 19.1412 16.3837 19.503 16.0451 19.8581C15.9845 19.9217 16.0296 20.027 16.1175 20.027H19.9835C20.95 20.027 21.7335 20.8105 21.7335 21.777C21.7335 22.7435 20.95 23.527 19.9835 23.527H12.9646C11.0835 23.527 9.9584 21.2827 11.3047 19.7986C12.1562 18.8599 13.4205 17.5378 14.6261 16.2769C15.4921 15.3713 16.3278 14.4973 16.9586 13.8198C17.6249 13.1041 17.7998 12.4766 17.8015 12.036C17.8033 11.5786 17.6219 11.1862 17.3499 10.9149C17.0765 10.6421 16.7358 10.5118 16.4035 10.5285Z" fill="#FCF2FF"/>
</g>
<defs>
<filter id="filter0_ii_2164_6994" x="2.28906" y="0.6875" width="28.875" height="28.875" filterUnits="userSpaceOnUse" color-interpolation-filters="sRGB">
<feFlood flood-opacity="0" result="BackgroundImageFix"/>
<feBlend mode="normal" in="SourceGraphic" in2="BackgroundImageFix" result="shape"/>
<feColorMatrix in="SourceAlpha" type="matrix" values="0 0 0 0 0 0 0 0 0 0 0 0 0 0 0 0 0 0 127 0" result="hardAlpha"/>
<feOffset dx="1" dy="-1"/>
<feGaussianBlur stdDeviation="1.5"/>
<feComposite in2="hardAlpha" operator="arithmetic" k2="-1" k3="1"/>
<feColorMatrix type="matrix" values="0 0 0 0 0.188235 0 0 0 0 0.470588 0 0 0 0 0.843137 0 0 0 1 0"/>
<feBlend mode="normal" in2="shape" result="effect1_innerShadow_2164_6994"/>
<feColorMatrix in="SourceAlpha" type="matrix" values="0 0 0 0 0 0 0 0 0 0 0 0 0 0 0 0 0 0 127 0" result="hardAlpha"/>
<feOffset dy="-1"/>
<feGaussianBlur stdDeviation="1.5"/>
<feComposite in2="hardAlpha" operator="arithmetic" k2="-1" k3="1"/>
<feColorMatrix type="matrix" values="0 0 0 0 0.27451 0 0 0 0 0.34902 0 0 0 0 0.8 0 0 0 1 0"/>
<feBlend mode="normal" in2="effect1_innerShadow_2164_6994" result="effect2_innerShadow_2164_6994"/>
</filter>
<filter id="filter1_f_2164_6994" x="25.7266" y="1.4375" width="5.5" height="28.375" filterUnits="userSpaceOnUse" color-interpolation-filters="sRGB">
<feFlood flood-opacity="0" result="BackgroundImageFix"/>
<feBlend mode="normal" in="SourceGraphic" in2="BackgroundImageFix" result="shape"/>
<feGaussianBlur stdDeviation="1" result="effect1_foregroundBlur_2164_6994"/>
</filter>
<filter id="filter2_f_2164_6994" x="3.00293" y="0.75" width="27.2812" height="5.5" filterUnits="userSpaceOnUse" color-interpolation-filters="sRGB">
<feFlood flood-opacity="0" result="BackgroundImageFix"/>
<feBlend mode="normal" in="SourceGraphic" in2="BackgroundImageFix" result="shape"/>
<feGaussianBlur stdDeviation="1" result="effect1_foregroundBlur_2164_6994"/>
</filter>
<filter id="filter3_f_2164_6994" x="9.71387" y="6.02698" width="13.0195" height="18.5" filterUnits="userSpaceOnUse" color-interpolation-filters="sRGB">
<feFlood flood-opacity="0" result="BackgroundImageFix"/>
<feBlend mode="normal" in="SourceGraphic" in2="BackgroundImageFix" result="shape"/>
<feGaussianBlur stdDeviation="0.5" result="effect1_foregroundBlur_2164_6994"/>
</filter>
<filter id="filter4_ii_2164_6994" x="9.71387" y="6.62698" width="12.4195" height="17.9" filterUnits="userSpaceOnUse" color-interpolation-filters="sRGB">
<feFlood flood-opacity="0" result="BackgroundImageFix"/>
<feBlend mode="normal" in="SourceGraphic" in2="BackgroundImageFix" result="shape"/>
<feColorMatrix in="SourceAlpha" type="matrix" values="0 0 0 0 0 0 0 0 0 0 0 0 0 0 0 0 0 0 127 0" result="hardAlpha"/>
<feOffset dx="-1" dy="1"/>
<feGaussianBlur stdDeviation="1"/>
<feComposite in2="hardAlpha" operator="arithmetic" k2="-1" k3="1"/>
<feColorMatrix type="matrix" values="0 0 0 0 0.866667 0 0 0 0 0.819608 0 0 0 0 0.941176 0 0 0 1 0"/>
<feBlend mode="normal" in2="shape" result="effect1_innerShadow_2164_6994"/>
<feColorMatrix in="SourceAlpha" type="matrix" values="0 0 0 0 0 0 0 0 0 0 0 0 0 0 0 0 0 0 127 0" result="hardAlpha"/>
<feOffset dx="0.4" dy="-0.4"/>
<feGaussianBlur stdDeviation="0.5"/>
<feComposite in2="hardAlpha" operator="arithmetic" k2="-1" k3="1"/>
<feColorMatrix type="matrix" values="0 0 0 0 1 0 0 0 0 0.988235 0 0 0 0 1 0 0 0 1 0"/>
<feBlend mode="normal" in2="effect1_innerShadow_2164_6994" result="effect2_innerShadow_2164_6994"/>
</filter>
<linearGradient id="paint0_linear_2164_6994" x1="16.2266" y1="5.26201" x2="16.2266" y2="38.5147" gradientUnits="userSpaceOnUse">
<stop stop-color="#5CB7FF"/>
<stop offset="1" stop-color="#4878DD"/>
</linearGradient>
<radialGradient id="paint1_radial_2164_6994" cx="0" cy="0" r="1" gradientUnits="userSpaceOnUse" gradientTransform="translate(27.9453 3.78125) rotate(136.771) scale(2.14444 2.50466)">
<stop stop-color="#7BD7FF"/>
<stop offset="1" stop-color="#7BD7FF" stop-opacity="0"/>
</radialGradient>
<linearGradient id="paint2_linear_2164_6994" x1="28.9766" y1="4.1875" x2="28.9766" y2="27.0625" gradientUnits="userSpaceOnUse">
<stop stop-color="#7FD9FF"/>
<stop offset="1" stop-color="#639DF4"/>
</linearGradient>
<linearGradient id="paint3_linear_2164_6994" x1="28.6904" y1="3.75002" x2="3.15918" y2="3.75002" gradientUnits="userSpaceOnUse">
<stop stop-color="#7DD8FF"/>
<stop offset="1" stop-color="#5DB6FF"/>
</linearGradient>
</defs>
</svg>
