<svg width="50" height="50" viewBox="0 0 50 50" fill="none" xmlns="http://www.w3.org/2000/svg">
<g filter="url(#filter0_iii_860_2620)">
<path d="M21.9291 5.55007L28.5923 16.9315L19.1929 19.6045C12.7004 17.4563 8.87615 13.3266 6.5708 9.08203C5.59853 7.2919 5.60645 4.00391 9.47042 4.00391H19.2323C20.342 4.00391 21.3685 4.59241 21.9291 5.55007Z" fill="#4686EC"/>
<path d="M21.9291 5.55007L28.5923 16.9315L19.1929 19.6045C12.7004 17.4563 8.87615 13.3266 6.5708 9.08203C5.59853 7.2919 5.60645 4.00391 9.47042 4.00391H19.2323C20.342 4.00391 21.3685 4.59241 21.9291 5.55007Z" fill="url(#paint0_radial_860_2620)"/>
<path d="M21.9291 5.55007L28.5923 16.9315L19.1929 19.6045C12.7004 17.4563 8.87615 13.3266 6.5708 9.08203C5.59853 7.2919 5.60645 4.00391 9.47042 4.00391H19.2323C20.342 4.00391 21.3685 4.59241 21.9291 5.55007Z" fill="url(#paint1_linear_860_2620)"/>
</g>
<g filter="url(#filter1_iii_860_2620)">
<path d="M27.8316 5.55007L21.1685 16.9315L30.5679 19.6045C37.0603 17.4563 40.8846 13.3266 43.1899 9.08203C44.1622 7.2919 44.1543 4.00391 40.2903 4.00391H30.5285C29.4188 4.00391 28.3923 4.59241 27.8316 5.55007Z" fill="#4686EC"/>
<path d="M27.8316 5.55007L21.1685 16.9315L30.5679 19.6045C37.0603 17.4563 40.8846 13.3266 43.1899 9.08203C44.1622 7.2919 44.1543 4.00391 40.2903 4.00391H30.5285C29.4188 4.00391 28.3923 4.59241 27.8316 5.55007Z" fill="url(#paint2_radial_860_2620)"/>
<path d="M27.8316 5.55007L21.1685 16.9315L30.5679 19.6045C37.0603 17.4563 40.8846 13.3266 43.1899 9.08203C44.1622 7.2919 44.1543 4.00391 40.2903 4.00391H30.5285C29.4188 4.00391 28.3923 4.59241 27.8316 5.55007Z" fill="url(#paint3_linear_860_2620)"/>
</g>
<path d="M27.8316 5.55007L21.1685 16.9315L30.5679 19.6045C37.0603 17.4563 40.8846 13.3266 43.1899 9.08203C44.1622 7.2919 44.1543 4.00391 40.2903 4.00391H30.5285C29.4188 4.00391 28.3923 4.59241 27.8316 5.55007Z" fill="url(#paint4_linear_860_2620)"/>
<circle cx="25.0734" cy="31.4564" r="15.6995" fill="url(#paint5_linear_860_2620)"/>
<circle cx="25.0734" cy="31.4564" r="15.6995" fill="url(#paint6_linear_860_2620)"/>
<circle cx="25.0734" cy="31.4554" r="13.5755" fill="url(#paint7_linear_860_2620)"/>
<circle cx="25.0735" cy="31.4558" r="11.8513" fill="url(#paint8_linear_860_2620)"/>
<circle cx="25.0735" cy="31.4558" r="11.8513" fill="url(#paint9_radial_860_2620)"/>
<circle cx="25.0735" cy="31.4558" r="11.8513" fill="url(#paint10_radial_860_2620)"/>
<circle cx="25.0735" cy="31.4558" r="11.8513" fill="url(#paint11_radial_860_2620)"/>
<g filter="url(#filter2_iii_860_2620)">
<path d="M27.2798 29.18L28.9165 26.3516C29.1866 25.8749 29.1866 25.3029 28.9165 24.8262C28.6464 24.3495 28.1379 24.0635 27.5976 24.0635H22.7671C21.9249 24.0635 21.2417 24.7467 21.2417 25.5889C21.2417 26.4311 21.9249 27.1143 22.7671 27.1143H24.5283C24.7204 27.1143 24.8407 27.3221 24.7451 27.4887L23.7841 29.1641C23.5775 29.4183 23.4504 29.752 23.4504 30.1016C23.4504 30.9438 24.1336 31.627 24.9758 31.627C25.9292 31.627 26.7078 32.4056 26.7078 33.359C26.7078 34.3124 25.9292 35.091 24.9758 35.091C24.2449 35.091 23.5934 34.6302 23.355 33.947C23.069 33.1525 22.211 32.7552 21.4165 33.0254C20.622 33.3114 20.2088 34.1694 20.4949 34.9639C21.1781 36.8548 22.9737 38.126 24.9758 38.126C27.5976 38.126 29.7428 35.9967 29.7428 33.359C29.7269 31.5476 28.7417 29.9904 27.2798 29.18Z" fill="#6C3F48"/>
</g>
<defs>
<filter id="filter0_iii_860_2620" x="5.78174" y="3.80391" width="23.0105" height="16.0506" filterUnits="userSpaceOnUse" color-interpolation-filters="sRGB">
<feFlood flood-opacity="0" result="BackgroundImageFix"/>
<feBlend mode="normal" in="SourceGraphic" in2="BackgroundImageFix" result="shape"/>
<feColorMatrix in="SourceAlpha" type="matrix" values="0 0 0 0 0 0 0 0 0 0 0 0 0 0 0 0 0 0 127 0" result="hardAlpha"/>
<feOffset dx="-0.2" dy="-0.2"/>
<feGaussianBlur stdDeviation="0.2"/>
<feComposite in2="hardAlpha" operator="arithmetic" k2="-1" k3="1"/>
<feColorMatrix type="matrix" values="0 0 0 0 0.317647 0 0 0 0 0.458824 0 0 0 0 0.886275 0 0 0 1 0"/>
<feBlend mode="normal" in2="shape" result="effect1_innerShadow_860_2620"/>
<feColorMatrix in="SourceAlpha" type="matrix" values="0 0 0 0 0 0 0 0 0 0 0 0 0 0 0 0 0 0 127 0" result="hardAlpha"/>
<feOffset dx="0.2" dy="0.2"/>
<feGaussianBlur stdDeviation="0.2"/>
<feComposite in2="hardAlpha" operator="arithmetic" k2="-1" k3="1"/>
<feColorMatrix type="matrix" values="0 0 0 0 0.317647 0 0 0 0 0.458824 0 0 0 0 0.886275 0 0 0 1 0"/>
<feBlend mode="normal" in2="effect1_innerShadow_860_2620" result="effect2_innerShadow_860_2620"/>
<feColorMatrix in="SourceAlpha" type="matrix" values="0 0 0 0 0 0 0 0 0 0 0 0 0 0 0 0 0 0 127 0" result="hardAlpha"/>
<feOffset dx="-0.25" dy="0.25"/>
<feGaussianBlur stdDeviation="0.25"/>
<feComposite in2="hardAlpha" operator="arithmetic" k2="-1" k3="1"/>
<feColorMatrix type="matrix" values="0 0 0 0 0.372549 0 0 0 0 0.607843 0 0 0 0 0.960784 0 0 0 1 0"/>
<feBlend mode="normal" in2="effect2_innerShadow_860_2620" result="effect3_innerShadow_860_2620"/>
</filter>
<filter id="filter1_iii_860_2620" x="20.9185" y="3.80391" width="23.0105" height="16.0506" filterUnits="userSpaceOnUse" color-interpolation-filters="sRGB">
<feFlood flood-opacity="0" result="BackgroundImageFix"/>
<feBlend mode="normal" in="SourceGraphic" in2="BackgroundImageFix" result="shape"/>
<feColorMatrix in="SourceAlpha" type="matrix" values="0 0 0 0 0 0 0 0 0 0 0 0 0 0 0 0 0 0 127 0" result="hardAlpha"/>
<feOffset dx="-0.2" dy="-0.2"/>
<feGaussianBlur stdDeviation="0.2"/>
<feComposite in2="hardAlpha" operator="arithmetic" k2="-1" k3="1"/>
<feColorMatrix type="matrix" values="0 0 0 0 0.317647 0 0 0 0 0.458824 0 0 0 0 0.886275 0 0 0 1 0"/>
<feBlend mode="normal" in2="shape" result="effect1_innerShadow_860_2620"/>
<feColorMatrix in="SourceAlpha" type="matrix" values="0 0 0 0 0 0 0 0 0 0 0 0 0 0 0 0 0 0 127 0" result="hardAlpha"/>
<feOffset dx="0.2" dy="0.2"/>
<feGaussianBlur stdDeviation="0.2"/>
<feComposite in2="hardAlpha" operator="arithmetic" k2="-1" k3="1"/>
<feColorMatrix type="matrix" values="0 0 0 0 0.317647 0 0 0 0 0.458824 0 0 0 0 0.886275 0 0 0 1 0"/>
<feBlend mode="normal" in2="effect1_innerShadow_860_2620" result="effect2_innerShadow_860_2620"/>
<feColorMatrix in="SourceAlpha" type="matrix" values="0 0 0 0 0 0 0 0 0 0 0 0 0 0 0 0 0 0 127 0" result="hardAlpha"/>
<feOffset dx="-0.25" dy="0.25"/>
<feGaussianBlur stdDeviation="0.25"/>
<feComposite in2="hardAlpha" operator="arithmetic" k2="-1" k3="1"/>
<feColorMatrix type="matrix" values="0 0 0 0 0.372549 0 0 0 0 0.607843 0 0 0 0 0.960784 0 0 0 1 0"/>
<feBlend mode="normal" in2="effect2_innerShadow_860_2620" result="effect3_innerShadow_860_2620"/>
</filter>
<filter id="filter2_iii_860_2620" x="20.1042" y="23.8635" width="9.83862" height="14.5625" filterUnits="userSpaceOnUse" color-interpolation-filters="sRGB">
<feFlood flood-opacity="0" result="BackgroundImageFix"/>
<feBlend mode="normal" in="SourceGraphic" in2="BackgroundImageFix" result="shape"/>
<feColorMatrix in="SourceAlpha" type="matrix" values="0 0 0 0 0 0 0 0 0 0 0 0 0 0 0 0 0 0 127 0" result="hardAlpha"/>
<feOffset dx="-0.3" dy="0.3"/>
<feGaussianBlur stdDeviation="0.3"/>
<feComposite in2="hardAlpha" operator="arithmetic" k2="-1" k3="1"/>
<feColorMatrix type="matrix" values="0 0 0 0 0.270588 0 0 0 0 0.113725 0 0 0 0 0.0745098 0 0 0 1 0"/>
<feBlend mode="normal" in2="shape" result="effect1_innerShadow_860_2620"/>
<feColorMatrix in="SourceAlpha" type="matrix" values="0 0 0 0 0 0 0 0 0 0 0 0 0 0 0 0 0 0 127 0" result="hardAlpha"/>
<feOffset dx="0.2" dy="-0.2"/>
<feGaussianBlur stdDeviation="0.2"/>
<feComposite in2="hardAlpha" operator="arithmetic" k2="-1" k3="1"/>
<feColorMatrix type="matrix" values="0 0 0 0 0.490196 0 0 0 0 0.352941 0 0 0 0 0.321569 0 0 0 1 0"/>
<feBlend mode="normal" in2="effect1_innerShadow_860_2620" result="effect2_innerShadow_860_2620"/>
<feColorMatrix in="SourceAlpha" type="matrix" values="0 0 0 0 0 0 0 0 0 0 0 0 0 0 0 0 0 0 127 0" result="hardAlpha"/>
<feOffset dx="0.2" dy="0.2"/>
<feGaussianBlur stdDeviation="0.2"/>
<feComposite in2="hardAlpha" operator="arithmetic" k2="-1" k3="1"/>
<feColorMatrix type="matrix" values="0 0 0 0 0.270588 0 0 0 0 0.113725 0 0 0 0 0.0745098 0 0 0 1 0"/>
<feBlend mode="normal" in2="effect2_innerShadow_860_2620" result="effect3_innerShadow_860_2620"/>
</filter>
<radialGradient id="paint0_radial_860_2620" cx="0" cy="0" r="1" gradientUnits="userSpaceOnUse" gradientTransform="translate(20.4734 18.5024) rotate(-123.321) scale(7.19301 26.8629)">
<stop stop-color="#3669D9"/>
<stop offset="1" stop-color="#3669D9" stop-opacity="0"/>
</radialGradient>
<linearGradient id="paint1_linear_860_2620" x1="10.2841" y1="3.16124" x2="13.089" y2="10.1449" gradientUnits="userSpaceOnUse">
<stop stop-color="#3D89EC"/>
<stop offset="1" stop-color="#3D89EC" stop-opacity="0"/>
</linearGradient>
<radialGradient id="paint2_radial_860_2620" cx="0" cy="0" r="1" gradientUnits="userSpaceOnUse" gradientTransform="translate(29.2873 18.5024) rotate(-57.2648) scale(4.76359 10.4489)">
<stop stop-color="#3669D9"/>
<stop offset="1" stop-color="#3669D9" stop-opacity="0"/>
</radialGradient>
<linearGradient id="paint3_linear_860_2620" x1="39.4766" y1="3.16124" x2="36.6717" y2="10.1449" gradientUnits="userSpaceOnUse">
<stop stop-color="#3D89EC"/>
<stop offset="1" stop-color="#3D89EC" stop-opacity="0"/>
</linearGradient>
<linearGradient id="paint4_linear_860_2620" x1="24.6071" y1="11.0365" x2="25.1348" y2="11.3276" gradientUnits="userSpaceOnUse">
<stop stop-color="#1A6DD8"/>
<stop offset="1" stop-color="#1A6DD8" stop-opacity="0"/>
</linearGradient>
<linearGradient id="paint5_linear_860_2620" x1="37.1828" y1="23.3403" x2="22.5773" y2="36.6945" gradientUnits="userSpaceOnUse">
<stop stop-color="#F6BC7F"/>
<stop offset="1" stop-color="#A76740"/>
</linearGradient>
<linearGradient id="paint6_linear_860_2620" x1="19.5874" y1="47.9187" x2="23.128" y2="27.3872" gradientUnits="userSpaceOnUse">
<stop stop-color="#B05B5B"/>
<stop offset="1" stop-color="#B05B5B" stop-opacity="0"/>
</linearGradient>
<linearGradient id="paint7_linear_860_2620" x1="37.4426" y1="29.0832" x2="25.0734" y2="29.0832" gradientUnits="userSpaceOnUse">
<stop stop-color="#CD8858"/>
<stop offset="1" stop-color="#D28D59"/>
</linearGradient>
<linearGradient id="paint8_linear_860_2620" x1="17.6349" y1="34.5353" x2="37.3583" y2="28.5674" gradientUnits="userSpaceOnUse">
<stop stop-color="#D38E5F"/>
<stop offset="1" stop-color="#BE794E"/>
</linearGradient>
<radialGradient id="paint9_radial_860_2620" cx="0" cy="0" r="1" gradientUnits="userSpaceOnUse" gradientTransform="translate(29.5708 29.6591) rotate(156.644) scale(17.8078 15.1742)">
<stop offset="0.837399" stop-color="#E5AC75" stop-opacity="0"/>
<stop offset="1" stop-color="#E5AC75"/>
</radialGradient>
<radialGradient id="paint10_radial_860_2620" cx="0" cy="0" r="1" gradientUnits="userSpaceOnUse" gradientTransform="translate(23.5598 32.8613) rotate(-41.2938) scale(14.0062 13.4487)">
<stop offset="0.909611" stop-color="#B36441" stop-opacity="0"/>
<stop offset="1" stop-color="#B36441"/>
</radialGradient>
<radialGradient id="paint11_radial_860_2620" cx="0" cy="0" r="1" gradientUnits="userSpaceOnUse" gradientTransform="translate(24.7317 30.4688) rotate(37.9308) scale(13.1859 14.9427)">
<stop offset="0.925972" stop-color="#AB662B" stop-opacity="0"/>
<stop offset="1" stop-color="#AB662B"/>
</radialGradient>
</defs>
</svg>
