<svg width="20" height="20" viewBox="0 0 20 20" fill="none" xmlns="http://www.w3.org/2000/svg">
<path d="M9.99999 5.83329C11.1051 5.83329 12.1649 6.27228 12.9463 7.05368C13.7277 7.83508 14.1667 8.89489 14.1667 9.99996C14.1667 11.105 13.7277 12.1648 12.9463 12.9462C12.1649 13.7276 11.1051 14.1666 9.99999 14.1666C8.89492 14.1666 7.83511 13.7276 7.05371 12.9462C6.27231 12.1648 5.83333 11.105 5.83333 9.99996C5.83333 8.89489 6.27231 7.83508 7.05371 7.05368C7.83511 6.27228 8.89492 5.83329 9.99999 5.83329ZM9.99999 7.49996C9.33695 7.49996 8.70107 7.76335 8.23222 8.23219C7.76338 8.70103 7.49999 9.33692 7.49999 9.99996C7.49999 10.663 7.76338 11.2989 8.23222 11.7677C8.70107 12.2366 9.33695 12.5 9.99999 12.5C10.663 12.5 11.2989 12.2366 11.7678 11.7677C12.2366 11.2989 12.5 10.663 12.5 9.99996C12.5 9.33692 12.2366 8.70103 11.7678 8.23219C11.2989 7.76335 10.663 7.49996 9.99999 7.49996ZM9.99999 1.66663L11.9917 4.51663C11.375 4.29163 10.7 4.16663 9.99999 4.16663C9.29999 4.16663 8.62499 4.29163 8.00832 4.51663L9.99999 1.66663ZM2.78333 5.83329L6.24999 5.54163C5.74999 5.96663 5.29999 6.48329 4.94999 7.08329C4.58333 7.69996 4.37499 8.33329 4.25833 8.99163L2.78333 5.83329ZM2.79999 14.1666L4.26666 11.025C4.38333 11.6666 4.60833 12.3166 4.95833 12.9166C5.30833 13.5333 5.75833 14.05 6.24999 14.475L2.79999 14.1666ZM17.2083 5.83329L15.7333 8.99163C15.6167 8.33329 15.3917 7.69163 15.0417 7.08329C14.6917 6.48329 14.25 5.95829 13.75 5.53329L17.2083 5.83329ZM17.2 14.1666L13.75 14.4666C14.2417 14.0416 14.6833 13.5166 15.0333 12.9166C15.3833 12.3083 15.6083 11.6666 15.725 11.0083L17.2 14.1666ZM9.99999 18.3333L7.99166 15.4666C8.60833 15.6916 9.28332 15.8333 9.99999 15.8333C10.6833 15.8333 11.3583 15.6916 11.975 15.4666L9.99999 18.3333Z" fill="#9155EB"/>
</svg>
