<svg width="20" height="20" viewBox="0 0 20 20" fill="none" xmlns="http://www.w3.org/2000/svg">
<path d="M14.7917 3.40837L12.6833 5.02504L13.4417 7.57504L11.25 6.06671L9.05833 7.57504L9.81666 5.02504L7.70833 3.40837L10.3667 3.33337L11.25 0.833374L12.1333 3.33337L14.7917 3.40837ZM17.7083 9.16671L16.3417 10.2084L16.8333 11.8584L15.4167 10.8834L14 11.8584L14.4917 10.2084L13.125 9.16671L14.8417 9.12504L15.4167 7.50004L15.9917 9.12504L17.7083 9.16671ZM15.8083 13.2917C16.5 13.225 17.2417 14.2084 16.8 14.8334C16.5333 15.2084 16.25 15.5584 15.9 15.8917C12.6417 19.1667 7.36666 19.1667 4.11666 15.8917C0.858329 12.6417 0.858329 7.35837 4.11666 4.10837C4.45 3.77504 4.8 3.47504 5.175 3.20837C5.8 2.76671 6.78333 3.50837 6.71666 4.20004C6.49166 6.58337 7.29166 9.05837 9.125 10.8834C10.95 12.7167 13.4167 13.5167 15.8083 13.2917ZM14.4417 14.975C12.0833 14.8417 9.75 13.8667 7.94166 12.0834C6.13333 10.2584 5.16666 7.91671 5.03333 5.56671C2.69166 8.18337 2.78333 12.2 5.29166 14.7167C7.80833 17.225 11.825 17.3167 14.4417 14.975Z" fill="#F9F9FB"/>
</svg>
