<svg width="46" height="46" viewBox="0 0 46 46" fill="none" xmlns="http://www.w3.org/2000/svg">
<g clip-path="url(#clip0_860_2676)">
<path d="M22.9984 43.1208C36.4167 43.1208 43.1218 34.1113 43.1218 22.9974C43.1218 11.8836 36.4167 2.87402 22.9984 2.87402C9.58012 2.87402 2.875 11.8836 2.875 22.9974C2.875 34.1113 9.58012 43.1208 22.9984 43.1208Z" fill="url(#paint0_radial_860_2676)"/>
<path d="M22.9984 43.1208C36.4167 43.1208 43.1218 34.1113 43.1218 22.9974C43.1218 11.8836 36.4167 2.87402 22.9984 2.87402C9.58012 2.87402 2.875 11.8836 2.875 22.9974C2.875 34.1113 9.58012 43.1208 22.9984 43.1208Z" fill="url(#paint1_radial_860_2676)"/>
<path d="M22.9984 43.1208C36.4167 43.1208 43.1218 34.1113 43.1218 22.9974C43.1218 11.8836 36.4167 2.87402 22.9984 2.87402C9.58012 2.87402 2.875 11.8836 2.875 22.9974C2.875 34.1113 9.58012 43.1208 22.9984 43.1208Z" fill="url(#paint2_radial_860_2676)" fill-opacity="0.6"/>
<path d="M22.9984 43.1208C36.4167 43.1208 43.1218 34.1113 43.1218 22.9974C43.1218 11.8836 36.4167 2.87402 22.9984 2.87402C9.58012 2.87402 2.875 11.8836 2.875 22.9974C2.875 34.1113 9.58012 43.1208 22.9984 43.1208Z" fill="url(#paint3_radial_860_2676)"/>
<path d="M22.9984 43.1208C36.4167 43.1208 43.1218 34.1113 43.1218 22.9974C43.1218 11.8836 36.4167 2.87402 22.9984 2.87402C9.58012 2.87402 2.875 11.8836 2.875 22.9974C2.875 34.1113 9.58012 43.1208 22.9984 43.1208Z" fill="url(#paint4_radial_860_2676)"/>
<path d="M22.9984 43.1208C36.4167 43.1208 43.1218 34.1113 43.1218 22.9974C43.1218 11.8836 36.4167 2.87402 22.9984 2.87402C9.58012 2.87402 2.875 11.8836 2.875 22.9974C2.875 34.1113 9.58012 43.1208 22.9984 43.1208Z" fill="url(#paint5_radial_860_2676)"/>
<path d="M22.9984 43.1208C36.4167 43.1208 43.1218 34.1113 43.1218 22.9974C43.1218 11.8836 36.4167 2.87402 22.9984 2.87402C9.58012 2.87402 2.875 11.8836 2.875 22.9974C2.875 34.1113 9.58012 43.1208 22.9984 43.1208Z" fill="url(#paint6_radial_860_2676)"/>
<ellipse cx="12.962" cy="23.6036" rx="6.71786" ry="6.71786" fill="url(#paint7_radial_860_2676)"/>
<circle cx="27.6635" cy="24.3561" r="6.10119" fill="url(#paint8_radial_860_2676)"/>
<path d="M14.9772 27.6341C18.3164 27.6341 21.0233 24.9272 21.0233 21.5881C21.0233 18.2489 18.3164 15.542 14.9772 15.542C11.6381 15.542 8.93115 18.2489 8.93115 21.5881C8.93115 24.9272 11.6381 27.6341 14.9772 27.6341Z" fill="white"/>
<path d="M31.0042 27.7444C34.3738 27.7444 37.1054 25.0128 37.1054 21.6432C37.1054 18.2736 34.3738 15.542 31.0042 15.542C27.6346 15.542 24.903 18.2736 24.903 21.6432C24.903 25.0128 27.6346 27.7444 31.0042 27.7444Z" fill="white"/>
<path d="M15.8125 25.875C18.1942 25.875 20.125 23.9442 20.125 21.5625C20.125 19.1808 18.1942 17.25 15.8125 17.25C13.4308 17.25 11.5 19.1808 11.5 21.5625C11.5 23.9442 13.4308 25.875 15.8125 25.875Z" fill="url(#paint9_linear_860_2676)"/>
<path d="M30.1875 25.875C32.5692 25.875 34.5 23.9442 34.5 21.5625C34.5 19.1808 32.5692 17.25 30.1875 17.25C27.8058 17.25 25.875 19.1808 25.875 21.5625C25.875 23.9442 27.8058 25.875 30.1875 25.875Z" fill="url(#paint10_linear_860_2676)"/>
<path d="M9.34375 15.0938C9.82292 13.6563 11.6437 10.7812 15.0938 10.7812" stroke="url(#paint11_linear_860_2676)" stroke-width="1.41304" stroke-linecap="round" stroke-linejoin="round"/>
<path d="M36.6562 15.0938C36.1771 13.6563 34.3562 10.7812 30.9062 10.7812" stroke="url(#paint12_linear_860_2676)" stroke-width="1.41304" stroke-linecap="round" stroke-linejoin="round"/>
<path d="M18.6877 33.0625C18.6877 33.0625 20.1252 31.625 23.0002 31.625C25.8752 31.625 27.3127 33.0625 27.3127 33.0625" stroke="url(#paint13_linear_860_2676)" stroke-width="2.82609" stroke-linecap="round"/>
<rect x="7.18726" y="28.749" width="5.75" height="10.0625" rx="2.875" fill="url(#paint14_radial_860_2676)"/>
<rect x="8.625" y="27.3125" width="5.75" height="10.0625" rx="2.875" fill="url(#paint15_radial_860_2676)"/>
</g>
<defs>
<radialGradient id="paint0_radial_860_2676" cx="0" cy="0" r="1" gradientUnits="userSpaceOnUse" gradientTransform="translate(36.6563 12.9365) rotate(131.878) scale(55.9887)">
<stop stop-color="#FFF478"/>
<stop offset="0.474827" stop-color="#FFB02E"/>
<stop offset="1" stop-color="#F70A8D"/>
</radialGradient>
<radialGradient id="paint1_radial_860_2676" cx="0" cy="0" r="1" gradientUnits="userSpaceOnUse" gradientTransform="translate(23 17.9678) rotate(101.31) scale(25.6544 32.8585)">
<stop offset="0.787821" stop-color="#F59639" stop-opacity="0"/>
<stop offset="0.972509" stop-color="#FF7DCE"/>
</radialGradient>
<radialGradient id="paint2_radial_860_2676" cx="0" cy="0" r="1" gradientUnits="userSpaceOnUse" gradientTransform="translate(25.875 20.124) rotate(135) scale(58.955)">
<stop offset="0.314853" stop-opacity="0"/>
<stop offset="1"/>
</radialGradient>
<radialGradient id="paint3_radial_860_2676" cx="0" cy="0" r="1" gradientUnits="userSpaceOnUse" gradientTransform="translate(23 24.4365) rotate(77.692) scale(40.4612)">
<stop offset="0.507903" stop-color="#7D6133" stop-opacity="0"/>
<stop offset="1" stop-color="#715B32"/>
</radialGradient>
<radialGradient id="paint4_radial_860_2676" cx="0" cy="0" r="1" gradientUnits="userSpaceOnUse" gradientTransform="translate(23.7187 23.7178) rotate(55.7131) scale(19.1382 13.8723)">
<stop stop-color="#FFB849"/>
<stop offset="1" stop-color="#FFB847" stop-opacity="0"/>
</radialGradient>
<radialGradient id="paint5_radial_860_2676" cx="0" cy="0" r="1" gradientUnits="userSpaceOnUse" gradientTransform="translate(29.4687 25.874) rotate(9.86581) scale(16.7794)">
<stop stop-color="#FFA64B"/>
<stop offset="0.900412" stop-color="#FFAE46" stop-opacity="0"/>
</radialGradient>
<radialGradient id="paint6_radial_860_2676" cx="0" cy="0" r="1" gradientUnits="userSpaceOnUse" gradientTransform="translate(25.1562 21.5615) rotate(43.9708) scale(84.8886)">
<stop offset="0.185425" stop-opacity="0"/>
<stop offset="1" stop-opacity="0.4"/>
</radialGradient>
<radialGradient id="paint7_radial_860_2676" cx="0" cy="0" r="1" gradientUnits="userSpaceOnUse" gradientTransform="translate(18.187 18.3786) rotate(135) scale(13.0896 6.77472)">
<stop stop-color="#392108"/>
<stop offset="1" stop-color="#C87928" stop-opacity="0"/>
</radialGradient>
<radialGradient id="paint8_radial_860_2676" cx="0" cy="0" r="1" gradientUnits="userSpaceOnUse" gradientTransform="translate(32.4088 19.6107) rotate(135) scale(11.0252 6.22388)">
<stop stop-color="#392108"/>
<stop offset="1" stop-color="#C87928" stop-opacity="0"/>
</radialGradient>
<linearGradient id="paint9_linear_860_2676" x1="23.7187" y1="15.8125" x2="22.2812" y2="25.875" gradientUnits="userSpaceOnUse">
<stop stop-color="#553B3E"/>
<stop offset="1" stop-color="#3D2432"/>
</linearGradient>
<linearGradient id="paint10_linear_860_2676" x1="23.7187" y1="15.8125" x2="22.2812" y2="25.875" gradientUnits="userSpaceOnUse">
<stop stop-color="#553B3E"/>
<stop offset="1" stop-color="#3D2432"/>
</linearGradient>
<linearGradient id="paint11_linear_860_2676" x1="9.82292" y1="16.3875" x2="9.82292" y2="13.8" gradientUnits="userSpaceOnUse">
<stop offset="0.0299084" stop-color="#524049"/>
<stop offset="1" stop-color="#4A2C42"/>
</linearGradient>
<linearGradient id="paint12_linear_860_2676" x1="36.1771" y1="16.3875" x2="36.1771" y2="13.8" gradientUnits="userSpaceOnUse">
<stop offset="0.0299084" stop-color="#524049"/>
<stop offset="1" stop-color="#4A2C42"/>
</linearGradient>
<linearGradient id="paint13_linear_860_2676" x1="23.0002" y1="28.75" x2="23.0002" y2="31.625" gradientUnits="userSpaceOnUse">
<stop stop-color="#4F3C43"/>
<stop offset="1" stop-color="#512756"/>
</linearGradient>
<radialGradient id="paint14_radial_860_2676" cx="0" cy="0" r="1" gradientUnits="userSpaceOnUse" gradientTransform="translate(11.1404 30.5459) rotate(105.255) scale(8.19501 3.61553)">
<stop stop-color="#392108"/>
<stop offset="1" stop-color="#C87928" stop-opacity="0"/>
</radialGradient>
<radialGradient id="paint15_radial_860_2676" cx="0" cy="0" r="1" gradientUnits="userSpaceOnUse" gradientTransform="translate(13.4167 27.7699) rotate(105.285) scale(10.9057 4.24333)">
<stop stop-color="#5C98FF"/>
<stop offset="0.805982" stop-color="#3D5BF1"/>
<stop offset="0.962238" stop-color="#6065CA"/>
</radialGradient>
<clipPath id="clip0_860_2676">
<rect width="46" height="46" fill="white"/>
</clipPath>
</defs>
</svg>
