<svg width="32" height="32" viewBox="0 0 32 32" fill="none" xmlns="http://www.w3.org/2000/svg">
<path d="M24.5466 4.54659L21.3333 5.99992L24.5466 7.45325L26 10.6666L27.4666 7.45325L30.6666 5.99992L27.4666 4.54659L26 1.33325M16 2.66659C8.66663 2.66659 2.66663 8.66659 2.66663 15.9999C2.66663 23.3333 8.66663 29.3333 16 29.3333C23.3333 29.3333 29.3333 23.3333 29.3333 15.9999C29.3333 14.0399 28.8933 12.1733 28.1333 10.4933L26.48 14.1199C26.5866 14.7333 26.6666 15.3333 26.6666 15.9999C26.6666 21.9066 21.9066 26.6666 16 26.6666C10.0933 26.6666 5.33329 21.9066 5.33329 15.9999C5.33329 15.9466 5.33329 15.8799 5.33329 15.8266C7.0501 15.1835 8.61584 14.1932 9.93267 12.9176C11.2495 11.6421 12.2891 10.1087 12.9866 8.41325C14.2372 9.95075 15.8148 11.1901 17.6046 12.0412C19.3944 12.8923 21.3514 13.3337 23.3333 13.3333C23.9264 13.3327 24.5188 13.2927 25.1066 13.2133L23.1333 8.86659L16.8 5.99992L21.5066 3.86659C19.8266 3.10659 17.96 2.66659 16 2.66659ZM12 15.6666C11.5579 15.6666 11.134 15.8422 10.8214 16.1547C10.5089 16.4673 10.3333 16.8912 10.3333 17.3333C10.3333 17.7753 10.5089 18.1992 10.8214 18.5118C11.134 18.8243 11.5579 18.9999 12 18.9999C12.2188 18.9999 12.4356 18.9568 12.6378 18.8731C12.84 18.7893 13.0237 18.6665 13.1785 18.5118C13.3332 18.357 13.456 18.1733 13.5398 17.9711C13.6235 17.7688 13.6666 17.5521 13.6666 17.3333C13.6666 17.1144 13.6235 16.8977 13.5398 16.6954C13.456 16.4932 13.3332 16.3095 13.1785 16.1547C13.0237 16 12.84 15.8772 12.6378 15.7935C12.4356 15.7097 12.2188 15.6666 12 15.6666ZM20 15.6666C19.5579 15.6666 19.134 15.8422 18.8214 16.1547C18.5089 16.4673 18.3333 16.8912 18.3333 17.3333C18.3333 17.7753 18.5089 18.1992 18.8214 18.5118C19.134 18.8243 19.5579 18.9999 20 18.9999C20.442 18.9999 20.8659 18.8243 21.1785 18.5118C21.491 18.1992 21.6666 17.7753 21.6666 17.3333C21.6666 16.8912 21.491 16.4673 21.1785 16.1547C20.8659 15.8422 20.442 15.6666 20 15.6666Z" fill="#FFD744"/>
</svg>
