<svg width="43" height="34" viewBox="0 0 43 34" fill="none" xmlns="http://www.w3.org/2000/svg">
<circle cx="37" cy="17" r="6" fill="#9155EB"/>
<circle cx="6" cy="17" r="6" fill="#9155EB"/>
<path d="M39 17C39 26.3888 31.3888 34 22 34C12.6112 34 5 26.3888 5 17C5 7.61116 12.6112 0 22 0C31.3888 0 39 7.61116 39 17ZM13.5 17C13.5 21.6944 17.3056 25.5 22 25.5C26.6944 25.5 30.5 21.6944 30.5 17C30.5 12.3056 26.6944 8.5 22 8.5C17.3056 8.5 13.5 12.3056 13.5 17Z" fill="#9155EB"/>
<path d="M39 17C39 26.3888 31.3888 34 22 34C12.6112 34 5 26.3888 5 17C5 7.61116 12.6112 0 22 0C31.3888 0 39 7.61116 39 17ZM13.5 17C13.5 21.6944 17.3056 25.5 22 25.5C26.6944 25.5 30.5 21.6944 30.5 17C30.5 12.3056 26.6944 8.5 22 8.5C17.3056 8.5 13.5 12.3056 13.5 17Z" fill="#9155EB"/>
<circle cx="26" cy="14" r="5" fill="#9155EB"/>
<circle cx="27" cy="11" r="1" fill="white"/>
</svg>
