<svg width="46" height="46" viewBox="0 0 46 46" fill="none" xmlns="http://www.w3.org/2000/svg">
<g clip-path="url(#clip0_860_2675)">
<path d="M22.9984 43.1208C36.4167 43.1208 43.1218 34.1113 43.1218 22.9974C43.1218 11.8836 36.4167 2.87402 22.9984 2.87402C9.58012 2.87402 2.875 11.8836 2.875 22.9974C2.875 34.1113 9.58012 43.1208 22.9984 43.1208Z" fill="url(#paint0_radial_860_2675)"/>
<path d="M22.9984 43.1208C36.4167 43.1208 43.1218 34.1113 43.1218 22.9974C43.1218 11.8836 36.4167 2.87402 22.9984 2.87402C9.58012 2.87402 2.875 11.8836 2.875 22.9974C2.875 34.1113 9.58012 43.1208 22.9984 43.1208Z" fill="url(#paint1_radial_860_2675)"/>
<path d="M22.9984 43.1208C36.4167 43.1208 43.1218 34.1113 43.1218 22.9974C43.1218 11.8836 36.4167 2.87402 22.9984 2.87402C9.58012 2.87402 2.875 11.8836 2.875 22.9974C2.875 34.1113 9.58012 43.1208 22.9984 43.1208Z" fill="url(#paint2_radial_860_2675)" fill-opacity="0.6"/>
<path d="M22.9984 43.1208C36.4167 43.1208 43.1218 34.1113 43.1218 22.9974C43.1218 11.8836 36.4167 2.87402 22.9984 2.87402C9.58012 2.87402 2.875 11.8836 2.875 22.9974C2.875 34.1113 9.58012 43.1208 22.9984 43.1208Z" fill="url(#paint3_radial_860_2675)"/>
<path d="M22.9984 43.1208C36.4167 43.1208 43.1218 34.1113 43.1218 22.9974C43.1218 11.8836 36.4167 2.87402 22.9984 2.87402C9.58012 2.87402 2.875 11.8836 2.875 22.9974C2.875 34.1113 9.58012 43.1208 22.9984 43.1208Z" fill="url(#paint4_radial_860_2675)"/>
<path d="M22.9984 43.1208C36.4167 43.1208 43.1218 34.1113 43.1218 22.9974C43.1218 11.8836 36.4167 2.87402 22.9984 2.87402C9.58012 2.87402 2.875 11.8836 2.875 22.9974C2.875 34.1113 9.58012 43.1208 22.9984 43.1208Z" fill="url(#paint5_radial_860_2675)"/>
<path d="M22.9984 43.1208C36.4167 43.1208 43.1218 34.1113 43.1218 22.9974C43.1218 11.8836 36.4167 2.87402 22.9984 2.87402C9.58012 2.87402 2.875 11.8836 2.875 22.9974C2.875 34.1113 9.58012 43.1208 22.9984 43.1208Z" fill="url(#paint6_radial_860_2675)"/>
<path opacity="0.5" d="M10.7812 33.0625C15.9417 33.0625 20.125 28.8792 20.125 23.7187C20.125 18.5583 15.9417 14.375 10.7812 14.375C5.62084 14.375 1.4375 18.5583 1.4375 23.7187C1.4375 28.8792 5.62084 33.0625 10.7812 33.0625Z" fill="url(#paint7_radial_860_2675)"/>
<path opacity="0.5" d="M35.2188 33.0625C40.3792 33.0625 44.5625 28.8792 44.5625 23.7187C44.5625 18.5583 40.3792 14.375 35.2188 14.375C30.0583 14.375 25.875 18.5583 25.875 23.7187C25.875 28.8792 30.0583 33.0625 35.2188 33.0625Z" fill="url(#paint8_radial_860_2675)"/>
<g opacity="0.5" filter="url(#filter0_f_860_2675)">
<path d="M10.7812 17.9687C10.7812 17.9687 11.1406 15.0938 14.375 15.0938C17.6094 15.0938 17.9688 17.9687 17.9688 17.9687" stroke="#9A4609" stroke-width="2.82609" stroke-linecap="round"/>
</g>
<g opacity="0.5" filter="url(#filter1_f_860_2675)">
<path d="M26.594 17.9687C26.594 17.9687 27.3127 15.0938 30.1877 15.0938C33.0627 15.0938 33.7815 17.9687 33.7815 17.9687" stroke="#9A4609" stroke-width="2.82609" stroke-linecap="round"/>
</g>
<path d="M11.5 17.251C11.5 17.251 11.8594 14.376 15.0938 14.376C18.3281 14.376 18.6875 17.251 18.6875 17.251" stroke="#43273B" stroke-width="2.82609" stroke-linecap="round" stroke-linejoin="round"/>
<g opacity="0.26" filter="url(#filter2_f_860_2675)">
<path d="M11.8594 16.8906C11.8594 16.8906 12.2188 14.0156 15.4531 14.0156C18.6875 14.0156 19.0469 16.8906 19.0469 16.8906" stroke="white" stroke-width="1.05978" stroke-linecap="round" stroke-linejoin="round"/>
</g>
<path d="M27.3125 17.251C27.3125 17.251 28.0312 14.376 30.9062 14.376C33.7812 14.376 34.5 17.251 34.5 17.251" stroke="#43273B" stroke-width="2.82609" stroke-linecap="round" stroke-linejoin="round"/>
<g opacity="0.26" filter="url(#filter3_f_860_2675)">
<path d="M27.6719 16.8906C27.6719 16.8906 28.0312 14.0156 31.2656 14.0156C34.5 14.0156 34.8594 16.8906 34.8594 16.8906" stroke="white" stroke-width="1.05978" stroke-linecap="round" stroke-linejoin="round"/>
</g>
<path d="M14.375 27.3125C15.0937 28.2708 17.9687 30.9062 23 30.9062C28.0312 30.9062 30.9062 28.2708 31.625 27.3125" stroke="url(#paint9_radial_860_2675)" stroke-width="2.82609" stroke-linecap="round"/>
</g>
<defs>
<filter id="filter0_f_860_2675" x="7.2486" y="11.5611" width="14.2528" height="9.9403" filterUnits="userSpaceOnUse" color-interpolation-filters="sRGB">
<feFlood flood-opacity="0" result="BackgroundImageFix"/>
<feBlend mode="normal" in="SourceGraphic" in2="BackgroundImageFix" result="shape"/>
<feGaussianBlur stdDeviation="1.05978" result="effect1_foregroundBlur_860_2675"/>
</filter>
<filter id="filter1_f_860_2675" x="23.0611" y="11.5611" width="14.2533" height="9.9403" filterUnits="userSpaceOnUse" color-interpolation-filters="sRGB">
<feFlood flood-opacity="0" result="BackgroundImageFix"/>
<feBlend mode="normal" in="SourceGraphic" in2="BackgroundImageFix" result="shape"/>
<feGaussianBlur stdDeviation="1.05978" result="effect1_foregroundBlur_860_2675"/>
</filter>
<filter id="filter2_f_860_2675" x="9.20978" y="11.3658" width="12.4867" height="8.17468" filterUnits="userSpaceOnUse" color-interpolation-filters="sRGB">
<feFlood flood-opacity="0" result="BackgroundImageFix"/>
<feBlend mode="normal" in="SourceGraphic" in2="BackgroundImageFix" result="shape"/>
<feGaussianBlur stdDeviation="1.05978" result="effect1_foregroundBlur_860_2675"/>
</filter>
<filter id="filter3_f_860_2675" x="25.0223" y="11.3658" width="12.4867" height="8.17468" filterUnits="userSpaceOnUse" color-interpolation-filters="sRGB">
<feFlood flood-opacity="0" result="BackgroundImageFix"/>
<feBlend mode="normal" in="SourceGraphic" in2="BackgroundImageFix" result="shape"/>
<feGaussianBlur stdDeviation="1.05978" result="effect1_foregroundBlur_860_2675"/>
</filter>
<radialGradient id="paint0_radial_860_2675" cx="0" cy="0" r="1" gradientUnits="userSpaceOnUse" gradientTransform="translate(36.6563 12.9365) rotate(131.878) scale(55.9887)">
<stop stop-color="#FFF478"/>
<stop offset="0.474827" stop-color="#FFB02E"/>
<stop offset="1" stop-color="#F70A8D"/>
</radialGradient>
<radialGradient id="paint1_radial_860_2675" cx="0" cy="0" r="1" gradientUnits="userSpaceOnUse" gradientTransform="translate(23 17.9678) rotate(101.31) scale(25.6544 32.8585)">
<stop offset="0.787821" stop-color="#F59639" stop-opacity="0"/>
<stop offset="0.972509" stop-color="#FF7DCE"/>
</radialGradient>
<radialGradient id="paint2_radial_860_2675" cx="0" cy="0" r="1" gradientUnits="userSpaceOnUse" gradientTransform="translate(25.875 20.124) rotate(135) scale(58.955)">
<stop offset="0.314853" stop-opacity="0"/>
<stop offset="1"/>
</radialGradient>
<radialGradient id="paint3_radial_860_2675" cx="0" cy="0" r="1" gradientUnits="userSpaceOnUse" gradientTransform="translate(23 24.4365) rotate(77.692) scale(40.4612)">
<stop offset="0.507903" stop-color="#7D6133" stop-opacity="0"/>
<stop offset="1" stop-color="#715B32"/>
</radialGradient>
<radialGradient id="paint4_radial_860_2675" cx="0" cy="0" r="1" gradientUnits="userSpaceOnUse" gradientTransform="translate(23.7187 23.7178) rotate(55.7131) scale(19.1382 13.8723)">
<stop stop-color="#FFB849"/>
<stop offset="1" stop-color="#FFB847" stop-opacity="0"/>
</radialGradient>
<radialGradient id="paint5_radial_860_2675" cx="0" cy="0" r="1" gradientUnits="userSpaceOnUse" gradientTransform="translate(29.4687 25.874) rotate(9.86581) scale(16.7794)">
<stop stop-color="#FFA64B"/>
<stop offset="0.900412" stop-color="#FFAE46" stop-opacity="0"/>
</radialGradient>
<radialGradient id="paint6_radial_860_2675" cx="0" cy="0" r="1" gradientUnits="userSpaceOnUse" gradientTransform="translate(25.1562 21.5615) rotate(43.9708) scale(84.8886)">
<stop offset="0.185425" stop-opacity="0"/>
<stop offset="1" stop-opacity="0.4"/>
</radialGradient>
<radialGradient id="paint7_radial_860_2675" cx="0" cy="0" r="1" gradientUnits="userSpaceOnUse" gradientTransform="translate(10.7886 23.7204) scale(9.33638)">
<stop stop-color="#F70A8D" stop-opacity="0.59"/>
<stop offset="1" stop-color="#FF6DC6" stop-opacity="0"/>
</radialGradient>
<radialGradient id="paint8_radial_860_2675" cx="0" cy="0" r="1" gradientUnits="userSpaceOnUse" gradientTransform="translate(35.2261 23.7204) scale(9.33638)">
<stop stop-color="#F70A8D" stop-opacity="0.59"/>
<stop offset="1" stop-color="#FF6DC6" stop-opacity="0"/>
</radialGradient>
<radialGradient id="paint9_radial_860_2675" cx="0" cy="0" r="1" gradientUnits="userSpaceOnUse" gradientTransform="translate(23 24.4375) rotate(90) scale(8.625 13.2018)">
<stop offset="0.517632" stop-color="#4E2553"/>
<stop offset="0.702876" stop-color="#5B4852"/>
<stop offset="1" stop-color="#4E2553"/>
<stop offset="1" stop-color="#4E2553"/>
</radialGradient>
<clipPath id="clip0_860_2675">
<rect width="46" height="46" fill="white"/>
</clipPath>
</defs>
</svg>
