<svg width="400" height="600" viewBox="0 0 400 600" fill="none" xmlns="http://www.w3.org/2000/svg">
<g clip-path="url(#clip0_745_2758)">
<rect width="400" height="600" rx="20" fill="url(#paint0_linear_745_2758)"/>
<circle cx="117" cy="42" r="20" fill="url(#paint1_diamond_745_2758)" fill-opacity="0.2"/>
<circle cx="271" cy="143" r="10" fill="url(#paint2_diamond_745_2758)" fill-opacity="0.2"/>
<circle cx="125" cy="186" r="10" fill="url(#paint3_diamond_745_2758)" fill-opacity="0.2"/>
<circle r="3" transform="matrix(1 0 0 -1 77 130)" fill="url(#paint4_diamond_745_2758)" fill-opacity="0.2"/>
<circle r="3" transform="matrix(1 0 0 -1 342 173)" fill="url(#paint5_diamond_745_2758)" fill-opacity="0.2"/>
<circle r="3" transform="matrix(1 0 0 -1 274 198)" fill="url(#paint6_diamond_745_2758)" fill-opacity="0.2"/>
<circle r="3" transform="matrix(1 0 0 -1 382 215)" fill="url(#paint7_diamond_745_2758)" fill-opacity="0.2"/>
<circle r="3" transform="matrix(1 0 0 -1 355 11)" fill="url(#paint8_diamond_745_2758)" fill-opacity="0.2"/>
<circle r="3" transform="matrix(1 0 0 -1 25 229)" fill="url(#paint9_diamond_745_2758)" fill-opacity="0.2"/>
<circle r="3" transform="matrix(1 0 0 -1 22 156)" fill="url(#paint10_diamond_745_2758)" fill-opacity="0.2"/>
<circle r="3" transform="matrix(1 0 0 -1 268 22)" fill="url(#paint11_diamond_745_2758)" fill-opacity="0.2"/>
<circle r="3" transform="matrix(1 0 0 -1 333 47)" fill="url(#paint12_diamond_745_2758)" fill-opacity="0.2"/>
<circle r="3" transform="matrix(1 0 0 -1 371 121)" fill="url(#paint13_diamond_745_2758)" fill-opacity="0.2"/>
<circle r="3" transform="matrix(1 0 0 -1 57 59)" fill="url(#paint14_diamond_745_2758)" fill-opacity="0.2"/>
<circle r="3" transform="matrix(1 0 0 -1 64 204)" fill="url(#paint15_diamond_745_2758)" fill-opacity="0.2"/>
<circle r="7" transform="matrix(1 0 0 -1 322 173)" fill="url(#paint16_diamond_745_2758)" fill-opacity="0.2"/>
<circle r="7" transform="matrix(1 0 0 -1 315 74)" fill="url(#paint17_diamond_745_2758)" fill-opacity="0.2"/>
<circle r="6" transform="matrix(1 0 0 -1 67 121)" fill="url(#paint18_diamond_745_2758)" fill-opacity="0.2"/>
<circle r="20" transform="matrix(-1 0 0 1 281 508)" fill="url(#paint19_diamond_745_2758)" fill-opacity="0.2"/>
<circle r="10" transform="matrix(-1 0 0 1 127 609)" fill="url(#paint20_diamond_745_2758)" fill-opacity="0.2"/>
<circle cx="321" cy="596" r="3" transform="rotate(180 321 596)" fill="url(#paint21_diamond_745_2758)" fill-opacity="0.2"/>
<circle cx="43" cy="477" r="3" transform="rotate(180 43 477)" fill="url(#paint22_diamond_745_2758)" fill-opacity="0.2"/>
<circle cx="16" cy="416" r="3" transform="rotate(180 16 416)" fill="url(#paint23_diamond_745_2758)" fill-opacity="0.2"/>
<circle cx="130" cy="488" r="3" transform="rotate(180 130 488)" fill="url(#paint24_diamond_745_2758)" fill-opacity="0.2"/>
<circle cx="355" cy="446" r="3" transform="rotate(180 355 446)" fill="url(#paint25_diamond_745_2758)" fill-opacity="0.2"/>
<circle cx="65" cy="513" r="3" transform="rotate(180 65 513)" fill="url(#paint26_diamond_745_2758)" fill-opacity="0.2"/>
<circle cx="27" cy="587" r="3" transform="rotate(180 27 587)" fill="url(#paint27_diamond_745_2758)" fill-opacity="0.2"/>
<circle cx="341" cy="525" r="3" transform="rotate(180 341 525)" fill="url(#paint28_diamond_745_2758)" fill-opacity="0.2"/>
<circle cx="83" cy="540" r="7" transform="rotate(180 83 540)" fill="url(#paint29_diamond_745_2758)" fill-opacity="0.2"/>
<circle cx="331" cy="587" r="6" transform="rotate(180 331 587)" fill="url(#paint30_diamond_745_2758)" fill-opacity="0.2"/>
<path d="M381 20.91L378.09 18L373 23.09L367.91 18L365 20.91L370.09 26L365 31.09L367.91 34L373 28.91L378.09 34L381 31.09L375.91 26L381 20.91Z" fill="#D9D8E8"/>
<path d="M131.742 109.792H129.606C129.726 108.76 129.798 107.704 129.798 106.576H121.206V109.096H126.654C126.246 113.416 124.326 116.608 119.958 119.272L121.758 121.48C125.886 119.032 128.094 115.96 129.078 112.312H131.742V115.312H128.67V117.856H131.742V125.104H134.694V104.44H131.742V109.792ZM136.278 103.936V126.064H139.278V103.936H136.278ZM152.284 123.784C149.164 123.784 147.748 123.4 147.748 122.536C147.748 121.672 149.164 121.288 152.284 121.288C155.428 121.288 156.844 121.672 156.844 122.536C156.844 123.4 155.428 123.784 152.284 123.784ZM152.284 118.984C147.364 118.984 144.532 120.208 144.532 122.536C144.532 124.864 147.364 126.088 152.284 126.088C157.204 126.088 160.036 124.864 160.036 122.536C160.036 120.208 157.204 118.984 152.284 118.984ZM150.58 114.088H154.276V115.552H150.58V114.088ZM157.396 115.552V114.088H160.372V111.712H147.964V110.392H159.916V104.488H144.796V106.888H156.796V108.16H144.844V114.088H147.484V115.552H142.348V118.024H162.364V115.552H157.396ZM168.171 109.072H173.235V106.504H165.051V121.096H166.587C169.419 121.096 171.771 121 174.459 120.496L174.219 117.928C172.107 118.312 170.235 118.432 168.171 118.48V109.072ZM180.387 103.936V112.456H178.395V104.368H175.443V125.032H178.395V115H180.387V126.064H183.387V103.936H180.387ZM198.073 119.44H194.905V125.68H210.241V123.16H198.073V119.44ZM198.169 109.36H206.785V111.28H198.169V109.36ZM204.025 115.624V113.776H209.929V104.752H206.785V106.912H198.169V104.752H195.025V113.776H200.857V115.624H192.481V118.144H212.473V115.624H204.025ZM229.079 112.072H219.983V109.792H229.079V112.072ZM232.199 104.8H229.079V107.32H219.983V104.8H216.839V114.592H232.199V104.8ZM234.575 116.68H214.559V119.2H222.911V126.088H226.079V119.2H234.575V116.68ZM240.381 109.072H245.445V106.504H237.261V121.096H238.797C241.629 121.096 243.981 121 246.669 120.496L246.429 117.928C244.317 118.312 242.445 118.432 240.381 118.48V109.072ZM252.597 103.936V112.456H250.605V104.368H247.653V125.032H250.605V115H252.597V126.064H255.597V103.936H252.597ZM262.46 109.072H267.524V106.504H259.34V121.096H260.876C263.708 121.096 266.06 121 268.748 120.496L268.508 117.928C266.396 118.312 264.524 118.432 262.46 118.48V109.072ZM274.676 103.936V112.456H272.684V104.368H269.732V125.032H272.684V115H274.676V126.064H277.676V103.936H274.676Z" fill="#F9F9FB"/>
<path d="M73.6954 149.46C76.6554 149.14 79.2554 148.08 80.3554 146.32C81.4354 148.08 84.0554 149.14 87.0154 149.46L87.5154 148.18C84.1554 147.9 81.4354 146.54 81.2554 144.6H86.7954V143.3H81.1754V141.48H79.5354V143.3H73.9154V144.6H79.4354C79.2554 146.54 76.5354 147.9 73.1954 148.18L73.6954 149.46ZM84.8154 156.48C84.8154 157.6 83.1754 158.22 80.3354 158.22C77.4954 158.22 75.8554 157.6 75.8554 156.48C75.8554 155.38 77.4954 154.74 80.3354 154.74C83.1754 154.74 84.8154 155.38 84.8154 156.48ZM88.4554 151.72V150.4H72.2354V151.72H79.5354V153.52C76.1554 153.66 74.1954 154.7 74.1954 156.48C74.1954 158.42 76.4754 159.46 80.3554 159.46C84.1954 159.46 86.4754 158.42 86.4754 156.48C86.4754 154.7 84.5154 153.66 81.1554 153.52V151.72H88.4554ZM99.0738 146.64V148H102.654V152.42H104.314V141.54H102.654V146.64H99.0738ZM100.154 150.38C97.5138 149.6 95.6538 147.6 95.6538 145.36V145.02H99.6138V143.7H95.6538V141.44H94.0138V143.7H90.0338V145.02H94.0138V145.36C94.0138 147.78 92.2138 149.96 89.5738 150.86L90.3738 152.12C92.4938 151.42 94.1138 149.9 94.8738 147.94C95.6938 149.68 97.3138 151.02 99.3738 151.66L100.154 150.38ZM98.3738 158.18C95.6738 158.18 94.0538 157.42 94.0538 156.16C94.0538 154.92 95.6738 154.16 98.3738 154.16C101.114 154.16 102.734 154.92 102.734 156.16C102.734 157.42 101.094 158.18 98.3738 158.18ZM98.3738 152.88C94.6938 152.88 92.4138 154.08 92.4138 156.16C92.4138 158.26 94.6938 159.46 98.3738 159.46C102.094 159.46 104.374 158.26 104.374 156.16C104.374 154.08 102.094 152.88 98.3738 152.88ZM113.232 144.74H117.452V143.38H107.432V144.74H111.592V147.02C111.592 150.12 109.412 153.5 106.832 154.72L107.792 156.04C109.832 155 111.592 152.74 112.412 150.12C113.272 152.58 115.032 154.64 117.112 155.6L118.032 154.28C115.392 153.16 113.232 150.06 113.232 147.02V144.74ZM119.872 141.56V159.48H121.512V141.56H119.872ZM126.911 154.44H137.251V159.5H138.911V153.1H126.911V154.44ZM133.431 148.2C133.551 147.78 133.631 147.34 133.631 146.84C133.631 146.36 133.551 145.92 133.431 145.5H137.251V148.2H133.431ZM129.011 149.78C127.271 149.78 125.971 148.56 125.971 146.84C125.971 145.16 127.271 143.94 129.011 143.94C130.771 143.94 132.071 145.16 132.071 146.84C132.071 148.56 130.771 149.78 129.011 149.78ZM137.251 141.56V144.18H132.731C131.891 143.16 130.571 142.54 129.011 142.54C126.371 142.54 124.411 144.32 124.411 146.84C124.411 149.38 126.371 151.18 129.011 151.18C130.571 151.18 131.871 150.56 132.711 149.54H137.251V152.12H138.911V141.54L137.251 141.56ZM157.87 148.68H148.97V146.04H157.87V148.68ZM159.51 142.26H157.87V144.72H148.97V142.26H147.35V150.02H159.51V142.26ZM161.57 152.18H145.29V153.5H152.57V159.5H154.21V153.5H161.57V152.18ZM164.868 145.06H169.928V143.72H163.248V155.06H164.428C167.108 155.06 168.928 154.98 171.068 154.52L170.928 153.16C168.968 153.58 167.268 153.68 164.868 153.7V145.06ZM176.268 141.54V148.74H173.728V141.94H172.188V158.58H173.728V150.08H176.268V159.48H177.848V141.54H176.268ZM185.287 148.86C188.227 148.5 190.927 147.18 191.907 145.2C192.907 147.18 195.587 148.5 198.527 148.86L199.107 147.56C195.967 147.2 193.107 145.66 192.967 143.68H198.547V142.36H185.287V143.68H190.847C190.707 145.66 187.847 147.2 184.707 147.56L185.287 148.86ZM196.367 156.3C196.367 157.5 194.687 158.2 191.887 158.2C189.067 158.2 187.407 157.5 187.407 156.3C187.407 155.1 189.067 154.42 191.887 154.42C194.687 154.42 196.367 155.1 196.367 156.3ZM200.007 151.26V149.94H183.787V151.26H191.067V153.18C187.727 153.34 185.747 154.44 185.747 156.3C185.747 158.34 188.067 159.46 191.907 159.46C195.727 159.46 198.027 158.34 198.027 156.3C198.027 154.44 196.067 153.34 192.727 153.18V151.26H200.007ZM207.586 146.9C207.586 145.24 208.946 144.1 210.766 144.1C212.646 144.1 213.986 145.24 213.986 146.9C213.986 148.58 212.646 149.74 210.766 149.74C208.946 149.74 207.586 148.58 207.586 146.9ZM211.586 151.08C213.966 150.8 215.586 149.16 215.586 146.9C215.586 144.4 213.586 142.7 210.766 142.7C208.006 142.7 205.986 144.4 205.986 146.9C205.986 149.16 207.626 150.78 209.946 151.08V154.18C208.186 154.24 206.526 154.24 205.086 154.24L205.286 155.62C208.526 155.62 212.866 155.58 216.906 154.84L216.766 153.62C215.106 153.88 213.326 154.02 211.586 154.12V151.08ZM217.946 141.52V159.52H219.586V141.52H217.946ZM232.844 150.3C230.244 149.38 228.484 147.12 228.484 144.82V144.1H232.424V142.76H222.844V144.1H226.844V144.82C226.844 147.36 224.984 149.76 222.324 150.7L223.184 152C225.284 151.22 226.924 149.58 227.684 147.52C228.484 149.38 230.024 150.86 232.024 151.58L232.844 150.3ZM225.044 154.58H235.384V159.5H237.044V153.26H225.044V154.58ZM235.384 141.54V146.22H231.884V147.56H235.384V152.28H237.044V141.54H235.384ZM247.123 153.48H245.483V159.08H257.983V157.74H247.123V153.48ZM257.183 149.46C257.623 147.16 257.623 145.42 257.623 143.92V142.5H245.503V143.82H256.003V143.92C256.003 145.44 256.003 147.14 255.523 149.46H243.423V150.78H250.823V155.1H252.463V150.78H259.723V149.46H257.183ZM261.802 143.48V144.8H268.542C268.202 149.06 265.802 152.5 260.982 154.8L261.862 156.14C267.822 153.22 270.202 148.66 270.202 143.48H261.802ZM273.822 141.54V159.48H275.462V141.54H273.822ZM288.361 143.732V158H286.007V146.525L282.521 147.707V145.764L288.077 143.732H288.361ZM306.528 147.04H295.868V143.58H306.408V142.26H294.228V148.36H306.528V147.04ZM300.288 158.18C297.468 158.18 295.808 157.48 295.808 156.22C295.808 154.96 297.468 154.26 300.288 154.26C303.108 154.26 304.768 154.96 304.768 156.22C304.768 157.48 303.088 158.18 300.288 158.18ZM300.288 152.98C296.468 152.98 294.148 154.14 294.148 156.22C294.148 158.3 296.468 159.46 300.288 159.46C304.108 159.46 306.428 158.3 306.428 156.22C306.428 154.14 304.108 152.98 300.288 152.98ZM292.188 150.08V151.44H308.428V150.08H292.188ZM317.586 143.08C320.526 143.08 322.206 143.76 322.206 144.96C322.206 146.16 320.526 146.84 317.586 146.84C314.646 146.84 312.966 146.16 312.966 144.96C312.966 143.76 314.646 143.08 317.586 143.08ZM317.586 148.06C321.526 148.06 323.886 146.98 323.886 144.96C323.886 142.94 321.526 141.84 317.586 141.84C313.646 141.84 311.286 142.94 311.286 144.96C311.286 146.98 313.646 148.06 317.586 148.06ZM313.086 156.18H323.626V152.14H311.426V153.38H322.006V154.98H311.486V159.28H324.166V158H313.086V156.18ZM309.466 149.28V150.6H325.706V149.28H309.466ZM155.647 172.56C158.587 172.26 161.207 171.18 162.287 169.38C163.367 171.18 165.967 172.26 168.907 172.56L169.427 171.32C166.027 170.98 163.307 169.6 163.167 167.6H168.727V166.3H163.107V164.44H161.467V166.3H155.847V167.6H161.387C161.247 169.6 158.527 170.98 155.147 171.32L155.647 172.56ZM170.387 174.88V173.56H154.167V174.88H161.467V176.94H155.967V178.24H166.747V182.42H168.387V176.94H163.107V174.88H170.387ZM176.726 177.12C175.106 177.12 173.926 175.96 173.926 174.36C173.926 172.74 175.106 171.58 176.726 171.58C178.366 171.58 179.546 172.74 179.546 174.36C179.546 175.96 178.366 177.12 176.726 177.12ZM176.726 170.22C174.206 170.22 172.386 171.94 172.386 174.36C172.386 176.8 174.206 178.48 176.726 178.48C179.286 178.48 181.106 176.8 181.106 174.36C181.106 171.94 179.286 170.22 176.726 170.22ZM177.526 164.76H175.886V167.42H171.366V168.74H181.946V167.42H177.526V164.76ZM188.226 171.92H185.286V164.56H183.646V182.48H185.286V173.3H188.226V171.92ZM199.404 166.38H194.924V164.36H193.284V166.38H188.824V167.7H199.404V166.38ZM191.384 171.68C191.384 170.52 192.464 169.78 194.104 169.78C195.744 169.78 196.844 170.52 196.844 171.68C196.844 172.86 195.744 173.58 194.104 173.58C192.464 173.58 191.384 172.86 191.384 171.68ZM198.404 171.68C198.404 169.78 196.664 168.56 194.104 168.56C191.544 168.56 189.824 169.78 189.824 171.68C189.824 173.6 191.544 174.82 194.104 174.82C196.664 174.82 198.404 173.6 198.404 171.68ZM201.064 180.92H193.024V178.94H201.064V180.92ZM201.064 177.66H193.024V175.76H191.404V182.24H202.684V175.76H201.064V177.66ZM205.344 169.1H202.684V164.54H201.044V174.96H202.684V170.48H205.344V169.1ZM208.823 166.28H207.183V177.84H208.663C211.523 177.84 214.343 177.64 217.463 177L217.283 175.6C214.303 176.2 211.523 176.44 208.823 176.44V166.28ZM219.123 164.54V182.46H220.763V164.54H219.123ZM225.761 167.62H232.461V166.26H224.121V178.04H225.541C228.921 178.04 231.281 177.92 234.021 177.4L233.841 176.04C231.241 176.5 228.941 176.64 225.761 176.64V167.62ZM240.121 171.62H237.161V164.54H235.521V182.52H237.161V172.98H240.121V171.62ZM243.525 166.781L243.291 176.811H241.279L241.035 166.781H243.525ZM240.967 179.887C240.967 179.529 241.084 179.229 241.318 178.988C241.559 178.741 241.891 178.617 242.314 178.617C242.731 178.617 243.06 178.741 243.301 178.988C243.542 179.229 243.662 179.529 243.662 179.887C243.662 180.232 243.542 180.528 243.301 180.775C243.06 181.016 242.731 181.137 242.314 181.137C241.891 181.137 241.559 181.016 241.318 180.775C241.084 180.528 240.967 180.232 240.967 179.887Z" fill="#F9F9FB"/>
<g filter="url(#filter0_i_745_2758)">
<path d="M219.646 432.757C222.858 431.357 224.193 429.307 225.159 428.101C233.827 417.275 215.333 385.14 188.93 366.546C160.946 342.179 130.135 333.876 121.467 344.703C119.979 346.561 118.814 349.092 118.328 351.948L101.875 446.611C101.304 458.151 105.714 462.536 107.921 464.678C111.921 468.56 119.699 471.862 127.811 469.005C159.118 456.951 188.447 446.359 219.646 432.757Z" fill="url(#paint31_linear_745_2758)"/>
</g>
<path d="M219.646 432.757C222.858 431.357 224.193 429.307 225.159 428.101C233.827 417.275 215.333 385.14 188.93 366.546C160.946 342.179 130.135 333.876 121.467 344.703C119.979 346.561 118.814 349.092 118.328 351.948L101.875 446.611C101.304 458.151 105.714 462.536 107.921 464.678C111.921 468.56 119.699 471.862 127.811 469.005C159.118 456.951 188.447 446.359 219.646 432.757Z" fill="url(#paint32_linear_745_2758)"/>
<path d="M219.646 432.757C222.858 431.357 224.193 429.307 225.159 428.101C233.827 417.275 215.333 385.14 188.93 366.546C160.946 342.179 130.135 333.876 121.467 344.703C119.979 346.561 118.814 349.092 118.328 351.948L101.875 446.611C101.304 458.151 105.714 462.536 107.921 464.678C111.921 468.56 119.699 471.862 127.811 469.005C159.118 456.951 188.447 446.359 219.646 432.757Z" fill="url(#paint33_linear_745_2758)"/>
<path d="M219.646 432.757C222.858 431.357 224.193 429.307 225.159 428.101C233.827 417.275 215.333 385.14 188.93 366.546C160.946 342.179 130.135 333.876 121.467 344.703C119.979 346.561 118.814 349.092 118.328 351.948L101.875 446.611C101.304 458.151 105.714 462.536 107.921 464.678C111.921 468.56 119.699 471.862 127.811 469.005C159.118 456.951 188.447 446.359 219.646 432.757Z" fill="url(#paint34_linear_745_2758)"/>
<g filter="url(#filter1_f_745_2758)">
<ellipse cx="172.934" cy="387.185" rx="64.1484" ry="25.3321" transform="rotate(39.7456 172.934 387.185)" fill="url(#paint35_linear_745_2758)"/>
</g>
<g filter="url(#filter2_f_745_2758)">
<ellipse cx="174.803" cy="383.992" rx="59.4523" ry="21.3185" transform="rotate(39.7456 174.803 383.992)" fill="url(#paint36_linear_745_2758)"/>
<ellipse cx="174.803" cy="383.992" rx="59.4523" ry="21.3185" transform="rotate(39.7456 174.803 383.992)" fill="url(#paint37_radial_745_2758)"/>
<ellipse cx="174.803" cy="383.992" rx="59.4523" ry="21.3185" transform="rotate(39.7456 174.803 383.992)" fill="url(#paint38_radial_745_2758)"/>
</g>
<circle cx="192.366" cy="368" r="8.79785" fill="url(#paint39_radial_745_2758)"/>
<circle cx="192.366" cy="368" r="8.79785" fill="url(#paint40_radial_745_2758)"/>
<circle cx="264.577" cy="418.502" r="8.79785" fill="url(#paint41_radial_745_2758)"/>
<circle cx="264.577" cy="418.502" r="8.79785" fill="url(#paint42_radial_745_2758)"/>
<circle cx="264.577" cy="418.502" r="8.79785" fill="url(#paint43_radial_745_2758)"/>
<circle cx="257.208" cy="302.302" r="8.79785" fill="url(#paint44_radial_745_2758)"/>
<circle cx="257.208" cy="302.302" r="8.79785" fill="url(#paint45_radial_745_2758)"/>
<circle cx="156.061" cy="275.623" r="8.79785" fill="url(#paint46_radial_745_2758)"/>
<circle cx="156.061" cy="275.623" r="8.79785" fill="url(#paint47_radial_745_2758)"/>
<circle cx="156.061" cy="275.623" r="8.79785" fill="url(#paint48_radial_745_2758)"/>
<circle cx="119.041" cy="310.3" r="8.79785" fill="url(#paint49_radial_745_2758)"/>
<circle cx="119.041" cy="310.3" r="8.79785" fill="url(#paint50_radial_745_2758)"/>
<path d="M199.651 441.191C180.595 439.867 167.23 434.164 145.575 416.273C126.947 400.882 117.699 387.229 114.612 373.306L111.036 393.881C112.498 401.933 118.782 413.188 131.236 424.442C147.525 439.162 163.742 449.579 179.781 449.122C186.381 446.545 192.992 443.916 199.651 441.191Z" fill="url(#paint51_radial_745_2758)"/>
<path d="M159.465 456.94C150.306 457.451 137.92 449.979 125.066 439.296C114.097 429.812 108.687 419.509 107.548 413.95L103.917 434.844C104.815 438.376 107.55 443.177 115.468 451.293C124.322 460.368 133.226 463.9 138.514 464.904C142.265 463.474 145.995 462.058 149.708 460.648C152.971 459.409 156.222 458.175 159.465 456.94Z" fill="url(#paint52_radial_745_2758)"/>
<g filter="url(#filter3_i_745_2758)">
<path fill-rule="evenodd" clip-rule="evenodd" d="M287.043 346.858C260.734 341.719 245.188 353.772 240.26 359.177C237.403 362.311 232.547 362.536 229.413 359.679C226.279 356.822 226.055 351.966 228.912 348.832C236.552 340.45 257.226 325.387 289.988 331.787C294.15 332.6 296.864 336.633 296.051 340.795C295.238 344.957 291.205 347.671 287.043 346.858Z" fill="url(#paint53_radial_745_2758)"/>
<path fill-rule="evenodd" clip-rule="evenodd" d="M287.043 346.858C260.734 341.719 245.188 353.772 240.26 359.177C237.403 362.311 232.547 362.536 229.413 359.679C226.279 356.822 226.055 351.966 228.912 348.832C236.552 340.45 257.226 325.387 289.988 331.787C294.15 332.6 296.864 336.633 296.051 340.795C295.238 344.957 291.205 347.671 287.043 346.858Z" fill="url(#paint54_radial_745_2758)"/>
</g>
<path fill-rule="evenodd" clip-rule="evenodd" d="M222.698 266.225C226.531 266.405 229.492 269.657 229.313 273.489C229.066 278.766 228.106 287.556 225.814 296.945C223.898 304.793 220.948 313.498 216.406 320.961C217.504 326.783 217.534 333.653 216.328 341.465C215.743 345.257 212.195 347.856 208.403 347.271C204.611 346.686 202.012 343.138 202.597 339.346C202.867 337.598 203.058 335.961 203.181 334.429C201.833 335.132 200.451 335.684 199.042 336.078C193.535 337.616 188.253 336.55 184.121 333.798C176.272 328.569 172.653 317.126 178.728 307.772C184.508 298.872 196.554 296.453 205.714 302.784C206.771 303.514 207.762 304.337 208.687 305.25C210.148 301.554 211.35 297.61 212.316 293.65C214.372 285.228 215.224 277.333 215.434 272.84C215.614 269.008 218.866 266.046 222.698 266.225ZM201.147 318.44C200.092 316.244 198.84 314.923 197.814 314.214C194.949 312.233 191.799 313.155 190.38 315.339C188.859 317.681 189.664 320.795 191.824 322.235C192.697 322.816 193.817 323.112 195.303 322.696C196.648 322.321 198.706 321.229 201.147 318.44Z" fill="url(#paint55_linear_745_2758)"/>
<path fill-rule="evenodd" clip-rule="evenodd" d="M222.698 266.225C226.531 266.405 229.492 269.657 229.313 273.489C229.066 278.766 228.106 287.556 225.814 296.945C223.898 304.793 220.948 313.498 216.406 320.961C217.504 326.783 217.534 333.653 216.328 341.465C215.743 345.257 212.195 347.856 208.403 347.271C204.611 346.686 202.012 343.138 202.597 339.346C202.867 337.598 203.058 335.961 203.181 334.429C201.833 335.132 200.451 335.684 199.042 336.078C193.535 337.616 188.253 336.55 184.121 333.798C176.272 328.569 172.653 317.126 178.728 307.772C184.508 298.872 196.554 296.453 205.714 302.784C206.771 303.514 207.762 304.337 208.687 305.25C210.148 301.554 211.35 297.61 212.316 293.65C214.372 285.228 215.224 277.333 215.434 272.84C215.614 269.008 218.866 266.046 222.698 266.225ZM201.147 318.44C200.092 316.244 198.84 314.923 197.814 314.214C194.949 312.233 191.799 313.155 190.38 315.339C188.859 317.681 189.664 320.795 191.824 322.235C192.697 322.816 193.817 323.112 195.303 322.696C196.648 322.321 198.706 321.229 201.147 318.44Z" fill="url(#paint56_radial_745_2758)"/>
<path fill-rule="evenodd" clip-rule="evenodd" d="M222.698 266.225C226.531 266.405 229.492 269.657 229.313 273.489C229.066 278.766 228.106 287.556 225.814 296.945C223.898 304.793 220.948 313.498 216.406 320.961C217.504 326.783 217.534 333.653 216.328 341.465C215.743 345.257 212.195 347.856 208.403 347.271C204.611 346.686 202.012 343.138 202.597 339.346C202.867 337.598 203.058 335.961 203.181 334.429C201.833 335.132 200.451 335.684 199.042 336.078C193.535 337.616 188.253 336.55 184.121 333.798C176.272 328.569 172.653 317.126 178.728 307.772C184.508 298.872 196.554 296.453 205.714 302.784C206.771 303.514 207.762 304.337 208.687 305.25C210.148 301.554 211.35 297.61 212.316 293.65C214.372 285.228 215.224 277.333 215.434 272.84C215.614 269.008 218.866 266.046 222.698 266.225ZM201.147 318.44C200.092 316.244 198.84 314.923 197.814 314.214C194.949 312.233 191.799 313.155 190.38 315.339C188.859 317.681 189.664 320.795 191.824 322.235C192.697 322.816 193.817 323.112 195.303 322.696C196.648 322.321 198.706 321.229 201.147 318.44Z" fill="url(#paint57_radial_745_2758)"/>
<path fill-rule="evenodd" clip-rule="evenodd" d="M222.698 266.225C226.531 266.405 229.492 269.657 229.313 273.489C229.066 278.766 228.106 287.556 225.814 296.945C223.898 304.793 220.948 313.498 216.406 320.961C217.504 326.783 217.534 333.653 216.328 341.465C215.743 345.257 212.195 347.856 208.403 347.271C204.611 346.686 202.012 343.138 202.597 339.346C202.867 337.598 203.058 335.961 203.181 334.429C201.833 335.132 200.451 335.684 199.042 336.078C193.535 337.616 188.253 336.55 184.121 333.798C176.272 328.569 172.653 317.126 178.728 307.772C184.508 298.872 196.554 296.453 205.714 302.784C206.771 303.514 207.762 304.337 208.687 305.25C210.148 301.554 211.35 297.61 212.316 293.65C214.372 285.228 215.224 277.333 215.434 272.84C215.614 269.008 218.866 266.046 222.698 266.225ZM201.147 318.44C200.092 316.244 198.84 314.923 197.814 314.214C194.949 312.233 191.799 313.155 190.38 315.339C188.859 317.681 189.664 320.795 191.824 322.235C192.697 322.816 193.817 323.112 195.303 322.696C196.648 322.321 198.706 321.229 201.147 318.44Z" fill="url(#paint58_radial_745_2758)"/>
<path fill-rule="evenodd" clip-rule="evenodd" d="M184.213 416.305C179.21 413.539 173.995 410.188 168.749 406.32C176.693 396.474 190.883 383.56 209.384 374.234C239.786 358.91 273.306 367.227 286.964 372.642C291.657 374.502 293.954 379.815 292.093 384.508C290.233 389.201 284.92 391.497 280.227 389.636C268.521 384.996 241.145 378.697 217.613 390.559C202.093 398.382 190.553 408.899 184.213 416.305Z" fill="url(#paint59_linear_745_2758)"/>
<path fill-rule="evenodd" clip-rule="evenodd" d="M184.213 416.305C179.21 413.539 173.995 410.188 168.749 406.32C176.693 396.474 190.883 383.56 209.384 374.234C239.786 358.91 273.306 367.227 286.964 372.642C291.657 374.502 293.954 379.815 292.093 384.508C290.233 389.201 284.92 391.497 280.227 389.636C268.521 384.996 241.145 378.697 217.613 390.559C202.093 398.382 190.553 408.899 184.213 416.305Z" fill="url(#paint60_radial_745_2758)"/>
<path fill-rule="evenodd" clip-rule="evenodd" d="M184.213 416.305C179.21 413.539 173.995 410.188 168.749 406.32C176.693 396.474 190.883 383.56 209.384 374.234C239.786 358.91 273.306 367.227 286.964 372.642C291.657 374.502 293.954 379.815 292.093 384.508C290.233 389.201 284.92 391.497 280.227 389.636C268.521 384.996 241.145 378.697 217.613 390.559C202.093 398.382 190.553 408.899 184.213 416.305Z" fill="url(#paint61_radial_745_2758)"/>
<path fill-rule="evenodd" clip-rule="evenodd" d="M184.213 416.305C179.21 413.539 173.995 410.188 168.749 406.32C176.693 396.474 190.883 383.56 209.384 374.234C239.786 358.91 273.306 367.227 286.964 372.642C291.657 374.502 293.954 379.815 292.093 384.508C290.233 389.201 284.92 391.497 280.227 389.636C268.521 384.996 241.145 378.697 217.613 390.559C202.093 398.382 190.553 408.899 184.213 416.305Z" fill="url(#paint62_radial_745_2758)"/>
<g filter="url(#filter4_i_745_2758)">
<path fill-rule="evenodd" clip-rule="evenodd" d="M157.529 299.651C155.074 295.24 149.508 293.654 145.097 296.109C140.686 298.563 139.1 304.129 141.554 308.54C145.261 315.202 149.825 324.606 150.409 336.714C150.918 347.267 148.433 360.652 138.329 376.707C141.825 381.333 146.046 386.128 150.875 390.889C165.12 370.168 169.43 351.609 168.669 335.833C167.882 319.52 161.706 307.158 157.529 299.651Z" fill="url(#paint63_radial_745_2758)"/>
<path fill-rule="evenodd" clip-rule="evenodd" d="M157.529 299.651C155.074 295.24 149.508 293.654 145.097 296.109C140.686 298.563 139.1 304.129 141.554 308.54C145.261 315.202 149.825 324.606 150.409 336.714C150.918 347.267 148.433 360.652 138.329 376.707C141.825 381.333 146.046 386.128 150.875 390.889C165.12 370.168 169.43 351.609 168.669 335.833C167.882 319.52 161.706 307.158 157.529 299.651Z" fill="url(#paint64_radial_745_2758)"/>
</g>
<path d="M177.006 311.047C177.455 309.937 178.022 308.842 178.716 307.774C184.496 298.874 196.542 296.455 205.702 302.786C206.758 303.517 207.75 304.339 208.674 305.252C208.973 304.497 209.261 303.731 209.538 302.957C209.552 303.004 209.565 303.051 209.578 303.097C207.697 309.024 203.474 315.369 201.129 318.43C200.075 316.241 198.826 314.923 197.802 314.216C194.936 312.235 191.786 313.157 190.368 315.341C190.313 315.426 190.261 315.512 190.211 315.599L177.006 311.047Z" fill="url(#paint65_radial_745_2758)"/>
<path d="M177.006 311.047C177.455 309.937 178.022 308.842 178.716 307.774C184.496 298.874 196.542 296.455 205.702 302.786C206.758 303.517 207.75 304.339 208.674 305.252C208.973 304.497 209.261 303.731 209.538 302.957C209.552 303.004 209.565 303.051 209.578 303.097C207.697 309.024 203.474 315.369 201.129 318.43C200.075 316.241 198.826 314.923 197.802 314.216C194.936 312.235 191.786 313.157 190.368 315.341C190.313 315.426 190.261 315.512 190.211 315.599L177.006 311.047Z" fill="url(#paint66_radial_745_2758)"/>
<g filter="url(#filter5_i_745_2758)">
<path d="M216.392 320.969C217.489 326.79 217.518 333.657 216.313 341.467C215.728 345.258 212.179 347.858 208.388 347.272C204.596 346.687 201.997 343.139 202.582 339.347C202.851 337.603 203.042 335.969 203.165 334.439C210.346 329.931 215.086 323.932 216.392 320.969Z" fill="#44B6FF"/>
</g>
<path d="M216.392 320.969C217.489 326.79 217.518 333.657 216.313 341.467C215.728 345.258 212.179 347.858 208.388 347.272C204.596 346.687 201.997 343.139 202.582 339.347C202.851 337.603 203.042 335.969 203.165 334.439C210.346 329.931 215.086 323.932 216.392 320.969Z" fill="url(#paint67_radial_745_2758)"/>
<g filter="url(#filter6_f_745_2758)">
<path d="M204.02 310.758C202.078 308.13 195.85 303.445 188.024 308.301C185.398 309.93 183.853 316.071 185.053 320.241" stroke="url(#paint68_linear_745_2758)" stroke-width="2.19375" stroke-linecap="round"/>
</g>
<g filter="url(#filter7_f_745_2758)">
<path d="M225.387 273.052C224.777 284.097 219.994 310.163 205.734 326.067" stroke="url(#paint69_linear_745_2758)" stroke-width="2.19375" stroke-linecap="round"/>
</g>
</g>
<defs>
<filter id="filter0_i_745_2758" x="101.824" y="336.379" width="125.495" height="133.704" filterUnits="userSpaceOnUse" color-interpolation-filters="sRGB">
<feFlood flood-opacity="0" result="BackgroundImageFix"/>
<feBlend mode="normal" in="SourceGraphic" in2="BackgroundImageFix" result="shape"/>
<feColorMatrix in="SourceAlpha" type="matrix" values="0 0 0 0 0 0 0 0 0 0 0 0 0 0 0 0 0 0 127 0" result="hardAlpha"/>
<feOffset dy="-3.65625"/>
<feGaussianBlur stdDeviation="3.65625"/>
<feComposite in2="hardAlpha" operator="arithmetic" k2="-1" k3="1"/>
<feColorMatrix type="matrix" values="0 0 0 0 0.92549 0 0 0 0 0.34902 0 0 0 0 0.384314 0 0 0 1 0"/>
<feBlend mode="normal" in2="shape" result="effect1_innerShadow_745_2758"/>
</filter>
<filter id="filter1_f_745_2758" x="117.349" y="338.113" width="111.169" height="98.144" filterUnits="userSpaceOnUse" color-interpolation-filters="sRGB">
<feFlood flood-opacity="0" result="BackgroundImageFix"/>
<feBlend mode="normal" in="SourceGraphic" in2="BackgroundImageFix" result="shape"/>
<feGaussianBlur stdDeviation="1.82812" result="effect1_foregroundBlur_745_2758"/>
</filter>
<filter id="filter2_f_745_2758" x="125.626" y="341.123" width="98.3527" height="85.7385" filterUnits="userSpaceOnUse" color-interpolation-filters="sRGB">
<feFlood flood-opacity="0" result="BackgroundImageFix"/>
<feBlend mode="normal" in="SourceGraphic" in2="BackgroundImageFix" result="shape"/>
<feGaussianBlur stdDeviation="0.73125" result="effect1_foregroundBlur_745_2758"/>
</filter>
<filter id="filter3_i_745_2758" x="226.908" y="328.417" width="71.1157" height="33.2656" filterUnits="userSpaceOnUse" color-interpolation-filters="sRGB">
<feFlood flood-opacity="0" result="BackgroundImageFix"/>
<feBlend mode="normal" in="SourceGraphic" in2="BackgroundImageFix" result="shape"/>
<feColorMatrix in="SourceAlpha" type="matrix" values="0 0 0 0 0 0 0 0 0 0 0 0 0 0 0 0 0 0 127 0" result="hardAlpha"/>
<feOffset dx="1.82812" dy="-1.82812"/>
<feGaussianBlur stdDeviation="1.82812"/>
<feComposite in2="hardAlpha" operator="arithmetic" k2="-1" k3="1"/>
<feColorMatrix type="matrix" values="0 0 0 0 0.721569 0 0 0 0 0.270588 0 0 0 0 0.470588 0 0 0 1 0"/>
<feBlend mode="normal" in2="shape" result="effect1_innerShadow_745_2758"/>
</filter>
<filter id="filter4_i_745_2758" x="138.329" y="294.954" width="31.5207" height="97.7632" filterUnits="userSpaceOnUse" color-interpolation-filters="sRGB">
<feFlood flood-opacity="0" result="BackgroundImageFix"/>
<feBlend mode="normal" in="SourceGraphic" in2="BackgroundImageFix" result="shape"/>
<feColorMatrix in="SourceAlpha" type="matrix" values="0 0 0 0 0 0 0 0 0 0 0 0 0 0 0 0 0 0 127 0" result="hardAlpha"/>
<feOffset dx="1.09688" dy="1.82812"/>
<feGaussianBlur stdDeviation="3.65625"/>
<feComposite in2="hardAlpha" operator="arithmetic" k2="-1" k3="1"/>
<feColorMatrix type="matrix" values="0 0 0 0 0.721569 0 0 0 0 0.184314 0 0 0 0 0.447059 0 0 0 1 0"/>
<feBlend mode="normal" in2="shape" result="effect1_innerShadow_745_2758"/>
</filter>
<filter id="filter5_i_745_2758" x="202.5" y="319.141" width="18.3726" height="28.2139" filterUnits="userSpaceOnUse" color-interpolation-filters="sRGB">
<feFlood flood-opacity="0" result="BackgroundImageFix"/>
<feBlend mode="normal" in="SourceGraphic" in2="BackgroundImageFix" result="shape"/>
<feColorMatrix in="SourceAlpha" type="matrix" values="0 0 0 0 0 0 0 0 0 0 0 0 0 0 0 0 0 0 127 0" result="hardAlpha"/>
<feOffset dx="3.65625" dy="-1.82812"/>
<feGaussianBlur stdDeviation="2.37656"/>
<feComposite in2="hardAlpha" operator="arithmetic" k2="-1" k3="1"/>
<feColorMatrix type="matrix" values="0 0 0 0 0.239216 0 0 0 0 0.439216 0 0 0 0 0.768627 0 0 0 1 0"/>
<feBlend mode="normal" in2="shape" result="effect1_innerShadow_745_2758"/>
</filter>
<filter id="filter6_f_745_2758" x="181.35" y="302.9" width="25.9612" height="20.6326" filterUnits="userSpaceOnUse" color-interpolation-filters="sRGB">
<feFlood flood-opacity="0" result="BackgroundImageFix"/>
<feBlend mode="normal" in="SourceGraphic" in2="BackgroundImageFix" result="shape"/>
<feGaussianBlur stdDeviation="1.09688" result="effect1_foregroundBlur_745_2758"/>
</filter>
<filter id="filter7_f_745_2758" x="201.347" y="268.664" width="28.427" height="61.7902" filterUnits="userSpaceOnUse" color-interpolation-filters="sRGB">
<feFlood flood-opacity="0" result="BackgroundImageFix"/>
<feBlend mode="normal" in="SourceGraphic" in2="BackgroundImageFix" result="shape"/>
<feGaussianBlur stdDeviation="1.64531" result="effect1_foregroundBlur_745_2758"/>
</filter>
<linearGradient id="paint0_linear_745_2758" x1="200" y1="0" x2="200" y2="600" gradientUnits="userSpaceOnUse">
<stop stop-color="#47237D"/>
<stop offset="0.498264" stop-color="#623FAC"/>
<stop offset="1" stop-color="#47237D"/>
</linearGradient>
<radialGradient id="paint1_diamond_745_2758" cx="0" cy="0" r="1" gradientUnits="userSpaceOnUse" gradientTransform="translate(117 42) rotate(90) scale(20)">
<stop stop-color="white"/>
<stop offset="1" stop-color="white" stop-opacity="0"/>
</radialGradient>
<radialGradient id="paint2_diamond_745_2758" cx="0" cy="0" r="1" gradientUnits="userSpaceOnUse" gradientTransform="translate(271 143) rotate(90) scale(10)">
<stop stop-color="white"/>
<stop offset="1" stop-color="white" stop-opacity="0"/>
</radialGradient>
<radialGradient id="paint3_diamond_745_2758" cx="0" cy="0" r="1" gradientUnits="userSpaceOnUse" gradientTransform="translate(125 186) rotate(90) scale(10)">
<stop stop-color="white"/>
<stop offset="1" stop-color="white" stop-opacity="0"/>
</radialGradient>
<radialGradient id="paint4_diamond_745_2758" cx="0" cy="0" r="1" gradientUnits="userSpaceOnUse" gradientTransform="translate(3 3) rotate(90) scale(3)">
<stop stop-color="white"/>
<stop offset="1" stop-color="white" stop-opacity="0"/>
</radialGradient>
<radialGradient id="paint5_diamond_745_2758" cx="0" cy="0" r="1" gradientUnits="userSpaceOnUse" gradientTransform="translate(3 3) rotate(90) scale(3)">
<stop stop-color="white"/>
<stop offset="1" stop-color="white" stop-opacity="0"/>
</radialGradient>
<radialGradient id="paint6_diamond_745_2758" cx="0" cy="0" r="1" gradientUnits="userSpaceOnUse" gradientTransform="translate(3 3) rotate(90) scale(3)">
<stop stop-color="white"/>
<stop offset="1" stop-color="white" stop-opacity="0"/>
</radialGradient>
<radialGradient id="paint7_diamond_745_2758" cx="0" cy="0" r="1" gradientUnits="userSpaceOnUse" gradientTransform="translate(3 3) rotate(90) scale(3)">
<stop stop-color="white"/>
<stop offset="1" stop-color="white" stop-opacity="0"/>
</radialGradient>
<radialGradient id="paint8_diamond_745_2758" cx="0" cy="0" r="1" gradientUnits="userSpaceOnUse" gradientTransform="translate(3 3) rotate(90) scale(3)">
<stop stop-color="white"/>
<stop offset="1" stop-color="white" stop-opacity="0"/>
</radialGradient>
<radialGradient id="paint9_diamond_745_2758" cx="0" cy="0" r="1" gradientUnits="userSpaceOnUse" gradientTransform="translate(3 3) rotate(90) scale(3)">
<stop stop-color="white"/>
<stop offset="1" stop-color="white" stop-opacity="0"/>
</radialGradient>
<radialGradient id="paint10_diamond_745_2758" cx="0" cy="0" r="1" gradientUnits="userSpaceOnUse" gradientTransform="translate(3 3) rotate(90) scale(3)">
<stop stop-color="white"/>
<stop offset="1" stop-color="white" stop-opacity="0"/>
</radialGradient>
<radialGradient id="paint11_diamond_745_2758" cx="0" cy="0" r="1" gradientUnits="userSpaceOnUse" gradientTransform="translate(3 3) rotate(90) scale(3)">
<stop stop-color="white"/>
<stop offset="1" stop-color="white" stop-opacity="0"/>
</radialGradient>
<radialGradient id="paint12_diamond_745_2758" cx="0" cy="0" r="1" gradientUnits="userSpaceOnUse" gradientTransform="translate(3 3) rotate(90) scale(3)">
<stop stop-color="white"/>
<stop offset="1" stop-color="white" stop-opacity="0"/>
</radialGradient>
<radialGradient id="paint13_diamond_745_2758" cx="0" cy="0" r="1" gradientUnits="userSpaceOnUse" gradientTransform="translate(3 3) rotate(90) scale(3)">
<stop stop-color="white"/>
<stop offset="1" stop-color="white" stop-opacity="0"/>
</radialGradient>
<radialGradient id="paint14_diamond_745_2758" cx="0" cy="0" r="1" gradientUnits="userSpaceOnUse" gradientTransform="translate(3 3) rotate(90) scale(3)">
<stop stop-color="white"/>
<stop offset="1" stop-color="white" stop-opacity="0"/>
</radialGradient>
<radialGradient id="paint15_diamond_745_2758" cx="0" cy="0" r="1" gradientUnits="userSpaceOnUse" gradientTransform="translate(3 3) rotate(90) scale(3)">
<stop stop-color="white"/>
<stop offset="1" stop-color="white" stop-opacity="0"/>
</radialGradient>
<radialGradient id="paint16_diamond_745_2758" cx="0" cy="0" r="1" gradientUnits="userSpaceOnUse" gradientTransform="translate(7 7) rotate(90) scale(7)">
<stop stop-color="white"/>
<stop offset="1" stop-color="white" stop-opacity="0"/>
</radialGradient>
<radialGradient id="paint17_diamond_745_2758" cx="0" cy="0" r="1" gradientUnits="userSpaceOnUse" gradientTransform="translate(7 7) rotate(90) scale(7)">
<stop stop-color="white"/>
<stop offset="1" stop-color="white" stop-opacity="0"/>
</radialGradient>
<radialGradient id="paint18_diamond_745_2758" cx="0" cy="0" r="1" gradientUnits="userSpaceOnUse" gradientTransform="translate(6 6) rotate(90) scale(6)">
<stop stop-color="white"/>
<stop offset="1" stop-color="white" stop-opacity="0"/>
</radialGradient>
<radialGradient id="paint19_diamond_745_2758" cx="0" cy="0" r="1" gradientUnits="userSpaceOnUse" gradientTransform="translate(20 20) rotate(90) scale(20)">
<stop stop-color="white"/>
<stop offset="1" stop-color="white" stop-opacity="0"/>
</radialGradient>
<radialGradient id="paint20_diamond_745_2758" cx="0" cy="0" r="1" gradientUnits="userSpaceOnUse" gradientTransform="translate(10 10) rotate(90) scale(10)">
<stop stop-color="white"/>
<stop offset="1" stop-color="white" stop-opacity="0"/>
</radialGradient>
<radialGradient id="paint21_diamond_745_2758" cx="0" cy="0" r="1" gradientUnits="userSpaceOnUse" gradientTransform="translate(321 596) rotate(90) scale(3)">
<stop stop-color="white"/>
<stop offset="1" stop-color="white" stop-opacity="0"/>
</radialGradient>
<radialGradient id="paint22_diamond_745_2758" cx="0" cy="0" r="1" gradientUnits="userSpaceOnUse" gradientTransform="translate(43 477) rotate(90) scale(3)">
<stop stop-color="white"/>
<stop offset="1" stop-color="white" stop-opacity="0"/>
</radialGradient>
<radialGradient id="paint23_diamond_745_2758" cx="0" cy="0" r="1" gradientUnits="userSpaceOnUse" gradientTransform="translate(16 416) rotate(90) scale(3)">
<stop stop-color="white"/>
<stop offset="1" stop-color="white" stop-opacity="0"/>
</radialGradient>
<radialGradient id="paint24_diamond_745_2758" cx="0" cy="0" r="1" gradientUnits="userSpaceOnUse" gradientTransform="translate(130 488) rotate(90) scale(3)">
<stop stop-color="white"/>
<stop offset="1" stop-color="white" stop-opacity="0"/>
</radialGradient>
<radialGradient id="paint25_diamond_745_2758" cx="0" cy="0" r="1" gradientUnits="userSpaceOnUse" gradientTransform="translate(355 446) rotate(90) scale(3)">
<stop stop-color="white"/>
<stop offset="1" stop-color="white" stop-opacity="0"/>
</radialGradient>
<radialGradient id="paint26_diamond_745_2758" cx="0" cy="0" r="1" gradientUnits="userSpaceOnUse" gradientTransform="translate(65 513) rotate(90) scale(3)">
<stop stop-color="white"/>
<stop offset="1" stop-color="white" stop-opacity="0"/>
</radialGradient>
<radialGradient id="paint27_diamond_745_2758" cx="0" cy="0" r="1" gradientUnits="userSpaceOnUse" gradientTransform="translate(27 587) rotate(90) scale(3)">
<stop stop-color="white"/>
<stop offset="1" stop-color="white" stop-opacity="0"/>
</radialGradient>
<radialGradient id="paint28_diamond_745_2758" cx="0" cy="0" r="1" gradientUnits="userSpaceOnUse" gradientTransform="translate(341 525) rotate(90) scale(3)">
<stop stop-color="white"/>
<stop offset="1" stop-color="white" stop-opacity="0"/>
</radialGradient>
<radialGradient id="paint29_diamond_745_2758" cx="0" cy="0" r="1" gradientUnits="userSpaceOnUse" gradientTransform="translate(83 540) rotate(90) scale(7)">
<stop stop-color="white"/>
<stop offset="1" stop-color="white" stop-opacity="0"/>
</radialGradient>
<radialGradient id="paint30_diamond_745_2758" cx="0" cy="0" r="1" gradientUnits="userSpaceOnUse" gradientTransform="translate(331 587) rotate(90) scale(6)">
<stop stop-color="white"/>
<stop offset="1" stop-color="white" stop-opacity="0"/>
</radialGradient>
<linearGradient id="paint31_linear_745_2758" x1="113.872" y1="397.137" x2="172.829" y2="448.325" gradientUnits="userSpaceOnUse">
<stop stop-color="#B3843C"/>
<stop offset="1" stop-color="#F17A61"/>
</linearGradient>
<linearGradient id="paint32_linear_745_2758" x1="107.357" y1="405.059" x2="124.612" y2="408.563" gradientUnits="userSpaceOnUse">
<stop stop-color="#B1853B"/>
<stop offset="1" stop-color="#B1853B" stop-opacity="0"/>
</linearGradient>
<linearGradient id="paint33_linear_745_2758" x1="227.319" y1="425.245" x2="198.194" y2="430.043" gradientUnits="userSpaceOnUse">
<stop stop-color="#F9C26C"/>
<stop offset="1" stop-color="#F9C26C" stop-opacity="0"/>
</linearGradient>
<linearGradient id="paint34_linear_745_2758" x1="164.572" y1="341.608" x2="145.864" y2="373.372" gradientUnits="userSpaceOnUse">
<stop stop-color="#E6BF69"/>
<stop offset="1" stop-color="#E6BF69" stop-opacity="0"/>
</linearGradient>
<linearGradient id="paint35_linear_745_2758" x1="173.116" y1="410.439" x2="180.641" y2="360.124" gradientUnits="userSpaceOnUse">
<stop stop-color="#FCCB57"/>
<stop offset="1" stop-color="#F5BD55"/>
</linearGradient>
<linearGradient id="paint36_linear_745_2758" x1="120.638" y1="381.636" x2="241.148" y2="387.526" gradientUnits="userSpaceOnUse">
<stop stop-color="#F3AB2C"/>
<stop offset="1" stop-color="#B57F1E"/>
</linearGradient>
<radialGradient id="paint37_radial_745_2758" cx="0" cy="0" r="1" gradientUnits="userSpaceOnUse" gradientTransform="translate(144.815 401.059) rotate(-109.125) scale(47.3667 13.2669)">
<stop offset="0.423414" stop-color="#CA851E"/>
<stop offset="1" stop-color="#CA851E" stop-opacity="0"/>
</radialGradient>
<radialGradient id="paint38_radial_745_2758" cx="0" cy="0" r="1" gradientUnits="userSpaceOnUse" gradientTransform="translate(194.407 401.726) rotate(-73.0972) scale(47.601 27.8756)">
<stop stop-color="#BC7F28"/>
<stop offset="1" stop-color="#BC7F28" stop-opacity="0"/>
</radialGradient>
<radialGradient id="paint39_radial_745_2758" cx="0" cy="0" r="1" gradientUnits="userSpaceOnUse" gradientTransform="translate(196.251 365.601) rotate(138.668) scale(12.6295)">
<stop stop-color="#5AC0FF"/>
<stop offset="1" stop-color="#3279B6"/>
</radialGradient>
<radialGradient id="paint40_radial_745_2758" cx="0" cy="0" r="1" gradientUnits="userSpaceOnUse" gradientTransform="translate(194.097 366.788) rotate(160.051) scale(12.6827 13.9018)">
<stop offset="0.534713" stop-color="#3A619E" stop-opacity="0"/>
<stop offset="1" stop-color="#3A619E"/>
</radialGradient>
<radialGradient id="paint41_radial_745_2758" cx="0" cy="0" r="1" gradientUnits="userSpaceOnUse" gradientTransform="translate(269.675 414.784) rotate(134.569) scale(14.4607)">
<stop stop-color="#FDD46C"/>
<stop offset="1" stop-color="#F09C53"/>
</radialGradient>
<radialGradient id="paint42_radial_745_2758" cx="0" cy="0" r="1" gradientUnits="userSpaceOnUse" gradientTransform="translate(266.215 414.015) rotate(100.827) scale(14.3239)">
<stop offset="0.792052" stop-color="#E76260" stop-opacity="0"/>
<stop offset="0.964251" stop-color="#E76260"/>
</radialGradient>
<radialGradient id="paint43_radial_745_2758" cx="0" cy="0" r="1" gradientUnits="userSpaceOnUse" gradientTransform="translate(268.775 419.954) rotate(-147.558) scale(14.5059 17.0827)">
<stop offset="0.482355" stop-color="#AA885A" stop-opacity="0"/>
<stop offset="0.90682" stop-color="#AA885A"/>
</radialGradient>
<radialGradient id="paint44_radial_745_2758" cx="0" cy="0" r="1" gradientUnits="userSpaceOnUse" gradientTransform="translate(263.508 298.878) rotate(132.387) scale(15.0646)">
<stop stop-color="#FF46AA"/>
<stop offset="1" stop-color="#E3189D"/>
</radialGradient>
<radialGradient id="paint45_radial_745_2758" cx="0" cy="0" r="1" gradientUnits="userSpaceOnUse" gradientTransform="translate(260.921 303.901) rotate(-173.29) scale(13.6905 18.3221)">
<stop offset="0.522105" stop-color="#B63173" stop-opacity="0"/>
<stop offset="1" stop-color="#B63173"/>
</radialGradient>
<radialGradient id="paint46_radial_745_2758" cx="0" cy="0" r="1" gradientUnits="userSpaceOnUse" gradientTransform="translate(161.825 272.101) rotate(139.574) scale(13.4636)">
<stop stop-color="#FFF46F"/>
<stop offset="1" stop-color="#EFB93C"/>
</radialGradient>
<radialGradient id="paint47_radial_745_2758" cx="0" cy="0" r="1" gradientUnits="userSpaceOnUse" gradientTransform="translate(159.899 274.198) rotate(-178.519) scale(14.0008 13.3305)">
<stop offset="0.558644" stop-color="#AA904B" stop-opacity="0"/>
<stop offset="0.943632" stop-color="#AA904B"/>
</radialGradient>
<radialGradient id="paint48_radial_745_2758" cx="0" cy="0" r="1" gradientUnits="userSpaceOnUse" gradientTransform="translate(158.319 270.652) rotate(102.339) scale(14.9708)">
<stop offset="0.771901" stop-color="#C47072" stop-opacity="0"/>
<stop offset="1" stop-color="#C47072"/>
</radialGradient>
<radialGradient id="paint49_radial_745_2758" cx="0" cy="0" r="1" gradientUnits="userSpaceOnUse" gradientTransform="translate(125.341 306.876) rotate(132.387) scale(15.0646)">
<stop stop-color="#FF46AA"/>
<stop offset="1" stop-color="#E3189D"/>
</radialGradient>
<radialGradient id="paint50_radial_745_2758" cx="0" cy="0" r="1" gradientUnits="userSpaceOnUse" gradientTransform="translate(122.754 311.899) rotate(-173.29) scale(13.6905 18.3221)">
<stop offset="0.522105" stop-color="#B63173" stop-opacity="0"/>
<stop offset="1" stop-color="#B63173"/>
</radialGradient>
<radialGradient id="paint51_radial_745_2758" cx="0" cy="0" r="1" gradientUnits="userSpaceOnUse" gradientTransform="translate(165.056 434.383) rotate(133.21) scale(31.0395 67.9587)">
<stop stop-color="#3365FF"/>
<stop offset="1" stop-color="#356DB9"/>
</radialGradient>
<radialGradient id="paint52_radial_745_2758" cx="0" cy="0" r="1" gradientUnits="userSpaceOnUse" gradientTransform="translate(137.177 455.863) rotate(131.598) scale(19.16 48.4668)">
<stop stop-color="#3365FF"/>
<stop offset="1" stop-color="#356DB9"/>
</radialGradient>
<radialGradient id="paint53_radial_745_2758" cx="0" cy="0" r="1" gradientUnits="userSpaceOnUse" gradientTransform="translate(284.345 337.951) rotate(168.283) scale(31.5062 11.7542)">
<stop stop-color="#FF3BA9"/>
<stop offset="1" stop-color="#F422A7"/>
</radialGradient>
<radialGradient id="paint54_radial_745_2758" cx="0" cy="0" r="1" gradientUnits="userSpaceOnUse" gradientTransform="translate(261.551 363.088) rotate(-127.355) scale(32.4851 57.8951)">
<stop offset="0.752144" stop-color="#B8306F" stop-opacity="0"/>
<stop offset="1" stop-color="#B8306F"/>
</radialGradient>
<linearGradient id="paint55_linear_745_2758" x1="222.393" y1="266.218" x2="189.619" y2="344.766" gradientUnits="userSpaceOnUse">
<stop stop-color="#20B2EE"/>
<stop offset="1" stop-color="#2689DA"/>
</linearGradient>
<radialGradient id="paint56_radial_745_2758" cx="0" cy="0" r="1" gradientUnits="userSpaceOnUse" gradientTransform="translate(215.199 291.734) rotate(128.217) scale(56.7497 34.7125)">
<stop offset="0.80204" stop-color="#4274D2" stop-opacity="0"/>
<stop offset="0.950917" stop-color="#4274D2"/>
</radialGradient>
<radialGradient id="paint57_radial_745_2758" cx="0" cy="0" r="1" gradientUnits="userSpaceOnUse" gradientTransform="translate(212.36 285.162) rotate(12.0948) scale(8.17961 27.4596)">
<stop stop-color="#4D8EC0"/>
<stop offset="1" stop-color="#4D8EC0" stop-opacity="0"/>
</radialGradient>
<radialGradient id="paint58_radial_745_2758" cx="0" cy="0" r="1" gradientUnits="userSpaceOnUse" gradientTransform="translate(228.585 267.452) rotate(141.953) scale(10.0111 9.00065)">
<stop stop-color="#5ADEFF"/>
<stop offset="1" stop-color="#5ADEFF" stop-opacity="0"/>
</radialGradient>
<linearGradient id="paint59_linear_745_2758" x1="188.665" y1="409.642" x2="286.717" y2="383.945" gradientUnits="userSpaceOnUse">
<stop stop-color="#3797E2"/>
<stop offset="1" stop-color="#37AEFF"/>
</linearGradient>
<radialGradient id="paint60_radial_745_2758" cx="0" cy="0" r="1" gradientUnits="userSpaceOnUse" gradientTransform="translate(224.934 425.675) rotate(-129.838) scale(58.3525 146.273)">
<stop offset="0.622552" stop-color="#526579" stop-opacity="0"/>
<stop offset="0.962126" stop-color="#526579"/>
</radialGradient>
<radialGradient id="paint61_radial_745_2758" cx="0" cy="0" r="1" gradientUnits="userSpaceOnUse" gradientTransform="translate(257.707 394.182) rotate(94.3988) scale(20.0298 40.2708)">
<stop offset="0.396078" stop-color="#6972FF"/>
<stop offset="1" stop-color="#6972FF" stop-opacity="0"/>
</radialGradient>
<radialGradient id="paint62_radial_745_2758" cx="0" cy="0" r="1" gradientUnits="userSpaceOnUse" gradientTransform="translate(287.408 377.348) rotate(-68.8183) scale(5.49174 4.33094)">
<stop stop-color="#55BFFF"/>
<stop offset="1" stop-color="#55BFFF" stop-opacity="0"/>
</radialGradient>
<radialGradient id="paint63_radial_745_2758" cx="0" cy="0" r="1" gradientUnits="userSpaceOnUse" gradientTransform="translate(162.295 298.064) rotate(99.4232) scale(53.469 20.0322)">
<stop stop-color="#FF3AAA"/>
<stop offset="1" stop-color="#FD2F89"/>
</radialGradient>
<radialGradient id="paint64_radial_745_2758" cx="0" cy="0" r="1" gradientUnits="userSpaceOnUse" gradientTransform="translate(134.378 353.2) rotate(31.1749) scale(35.1633 110.351)">
<stop offset="0.803698" stop-color="#DB2C6E" stop-opacity="0"/>
<stop offset="1" stop-color="#DB2C6E"/>
</radialGradient>
<radialGradient id="paint65_radial_745_2758" cx="0" cy="0" r="1" gradientUnits="userSpaceOnUse" gradientTransform="translate(203.07 320.613) rotate(-119.23) scale(20.0241 14.9682)">
<stop stop-color="#336BAF"/>
<stop offset="1" stop-color="#336BAF" stop-opacity="0"/>
</radialGradient>
<radialGradient id="paint66_radial_745_2758" cx="0" cy="0" r="1" gradientUnits="userSpaceOnUse" gradientTransform="translate(209.578 305.501) rotate(-127.657) scale(13.5655 5.49613)">
<stop stop-color="#49A4D4"/>
<stop offset="1" stop-color="#49A4D4" stop-opacity="0"/>
</radialGradient>
<radialGradient id="paint67_radial_745_2758" cx="0" cy="0" r="1" gradientUnits="userSpaceOnUse" gradientTransform="translate(215.674 320.355) rotate(94.8498) scale(18.9203 10.53)">
<stop stop-color="#4AB5F8"/>
<stop offset="1" stop-color="#4AB5F8" stop-opacity="0"/>
</radialGradient>
<linearGradient id="paint68_linear_745_2758" x1="182.425" y1="310.885" x2="202.763" y2="305.902" gradientUnits="userSpaceOnUse">
<stop stop-color="#4EAFF2"/>
<stop offset="1" stop-color="#4EAFF2" stop-opacity="0"/>
</linearGradient>
<linearGradient id="paint69_linear_745_2758" x1="223.787" y1="265.282" x2="195.223" y2="331.095" gradientUnits="userSpaceOnUse">
<stop stop-color="#5BDDFF"/>
<stop offset="1" stop-color="#5BDDFF" stop-opacity="0"/>
</linearGradient>
<clipPath id="clip0_745_2758">
<rect width="400" height="600" rx="20" fill="white"/>
</clipPath>
</defs>
</svg>
