<svg width="366" height="363" viewBox="0 0 366 363" fill="none" xmlns="http://www.w3.org/2000/svg">
<path fill-rule="evenodd" clip-rule="evenodd" d="M58.5481 172.527C12.3891 155.726 -11.4119 104.691 5.38714 58.5383C22.1851 12.3843 73.2232 -11.4117 119.382 5.38832C165.541 22.1893 189.342 73.2243 172.543 119.378C155.745 165.532 104.707 189.327 58.5481 172.527Z" fill="#9C9DB2"/>
<path fill-rule="evenodd" clip-rule="evenodd" d="M65.7952 152.157C30.7932 139.418 12.7452 100.719 25.4832 65.7223C38.2212 30.7243 76.9222 12.6803 111.923 25.4203C146.925 38.1593 164.973 76.8583 152.235 111.856C139.497 146.853 100.796 164.897 65.7952 152.157Z" fill="white"/>
<path d="M102.455 172.23C100.091 164.954 104.073 157.14 111.349 154.776C118.624 152.412 126.439 156.393 128.803 163.669L139.615 196.945L113.267 205.505L102.455 172.23Z" fill="#9C9DB2"/>
<path d="M136.925 187.855L108.713 197.022C105.399 198.098 103.585 201.658 104.662 204.973L145.577 330.895C146.653 334.21 150.213 336.023 153.528 334.947L181.74 325.78C185.054 324.703 186.868 321.143 185.791 317.829L144.876 191.906C143.799 188.592 140.24 186.778 136.925 187.855Z" fill="#4A3070"/>
<path fill-rule="evenodd" clip-rule="evenodd" d="M280.065 296.192L270.266 280.83C258.239 261.975 241.195 246.845 221.047 237.139L180.863 217.782C174.385 214.661 167.287 213.04 160.096 213.04H151.568L154.809 223.796L109.146 212.643C103.833 211.345 98.603 215.055 98.071 220.498C97.9164 222.078 98.1833 223.671 98.8445 225.114C99.5056 226.558 100.537 227.8 101.835 228.716L114.458 237.618C106.549 241.428 105.452 252.247 112.435 257.567L118.849 262.454C112.761 266.219 112.409 274.945 118.174 279.188L127.479 286.037C126.904 288.946 127.314 291.964 128.643 294.615C129.972 297.266 132.146 299.399 134.821 300.679L144.771 305.435C146.245 306.139 147.778 306.712 149.353 307.145L195.364 319.796L246.712 354.219L280.065 296.192Z" fill="#F8AE9D"/>
<path fill-rule="evenodd" clip-rule="evenodd" d="M365.132 362.315L253.831 255.739L177.206 332.993L207.951 362.315H365.132Z" fill="#9155EB"/>
<path d="M256.798 281.315C253.484 281.315 250.798 284.002 250.798 287.315C250.798 290.629 253.484 293.315 256.798 293.315C260.112 293.315 262.798 290.629 262.798 287.315C262.798 284.002 260.112 281.315 256.798 281.315Z" fill="white"/>
</svg>
