<svg width="55" height="24" viewBox="0 0 55 24" fill="none" xmlns="http://www.w3.org/2000/svg">
<rect width="55" height="24" rx="4" fill="#F9F9FB"/>
<path d="M12 5C15.871 5 19 8.129 19 12C19 15.871 15.871 19 12 19C8.129 19 5 15.871 5 12C5 8.129 8.129 5 12 5ZM14.513 8.5L12 11.013L9.487 8.5L8.5 9.487L11.013 12L8.5 14.513L9.487 15.5L12 12.987L14.513 15.5L15.5 14.513L12.987 12L15.5 9.487L14.513 8.5Z" fill="#FF5467"/>
<path d="M31.946 8.46H26.92V7.704H31.946V8.46ZM33.78 5.506H31.946V6.36H26.92V5.506H25.086V9.818H33.78V5.506ZM35.264 11.96V10.504H23.602V11.96H28.488V12.758H24.932V14.116H32.016V14.76H24.946V18.106H34.172V16.734H26.78V16.034H33.836V12.758H30.336V11.96H35.264ZM37.1929 8.572V12.548H38.2989C40.8749 12.548 42.5129 12.492 44.3049 12.156L44.1509 10.672C42.5409 10.966 41.1269 11.05 39.0269 11.064V9.944H43.0589V6.066H37.1789V7.55H41.2389V8.572H37.1929ZM42.6389 16.804C40.9589 16.804 40.0909 16.482 40.0909 15.768C40.0909 15.054 40.9589 14.732 42.6389 14.732C44.3189 14.732 45.1869 15.054 45.1869 15.768C45.1869 16.482 44.3189 16.804 42.6389 16.804ZM42.6389 13.318C39.9509 13.318 38.2709 14.214 38.2709 15.768C38.2709 17.308 39.9509 18.218 42.6389 18.218C45.3269 18.218 47.0069 17.308 47.0069 15.768C47.0069 14.214 45.3269 13.318 42.6389 13.318ZM48.5889 8.544V7.046H46.8809V5.31H45.0329V13.08H46.8809V11.26H48.5889V9.762H46.8809V8.544H48.5889Z" fill="#FF5467"/>
</svg>