<svg width="57" height="24" viewBox="0 0 57 24" fill="none" xmlns="http://www.w3.org/2000/svg">
<rect width="57" height="24" rx="4" fill="#F9F9FB"/>
<path d="M13 5.3335C9.33337 5.3335 6.33337 8.3335 6.33337 12.0002C6.33337 15.6668 9.33337 18.6668 13 18.6668C16.6667 18.6668 19.6667 15.6668 19.6667 12.0002C19.6667 8.3335 16.6667 5.3335 13 5.3335ZM11.6667 15.3335L8.33337 12.0002L9.27337 11.0602L11.6667 13.4468L16.7267 8.38683L17.6667 9.3335L11.6667 15.3335Z" fill="#3FC6B8"/>
<path d="M35.192 6.878V8.39H37.432V6.878H35.192ZM35.192 9.692V11.204H37.432V9.692H35.192ZM29.172 5.982C27.17 5.982 25.644 7.298 25.644 9.132C25.644 10.952 27.17 12.268 29.172 12.268C31.174 12.268 32.7 10.952 32.7 9.132C32.7 7.298 31.174 5.982 29.172 5.982ZM29.172 7.536C30.152 7.536 30.88 8.138 30.88 9.132C30.88 10.14 30.152 10.714 29.172 10.714C28.192 10.714 27.464 10.14 27.464 9.132C27.464 8.138 28.192 7.536 29.172 7.536ZM33.904 5.282V12.842H35.766V5.282H33.904ZM31.538 13.122C28.85 13.122 27.142 14.088 27.142 15.684C27.142 17.294 28.85 18.246 31.538 18.246C34.212 18.246 35.92 17.294 35.92 15.684C35.92 14.088 34.212 13.122 31.538 13.122ZM31.538 14.592C33.19 14.592 34.072 14.942 34.072 15.684C34.072 16.44 33.19 16.79 31.538 16.79C29.886 16.79 28.99 16.44 28.99 15.684C28.99 14.942 29.886 14.592 31.538 14.592ZM39.1929 6.892V8.376H49.8889V6.892H39.1929ZM38.7029 15.446V16.944H50.4349V15.446H38.7029ZM43.6169 13.738V16.034H45.4649V13.738H43.6169ZM44.5269 8.936C41.8249 8.936 40.1309 9.874 40.1309 11.47C40.1309 13.066 41.8249 14.004 44.5269 14.004C47.2289 14.004 48.9229 13.066 48.9229 11.47C48.9229 9.874 47.2289 8.936 44.5269 8.936ZM44.5269 10.378C46.1509 10.378 47.0189 10.728 47.0189 11.47C47.0189 12.212 46.1509 12.548 44.5269 12.548C42.9029 12.548 42.0349 12.212 42.0349 11.47C42.0349 10.728 42.9029 10.378 44.5269 10.378ZM43.6169 5.422V7.816H45.4649V5.422H43.6169Z" fill="#3FC6B8"/>
</svg>