<svg width="16" height="16" viewBox="0 0 16 16" fill="none" xmlns="http://www.w3.org/2000/svg">
<path d="M6.66667 13.9999H9.33333C9.33333 14.7333 8.73333 15.3333 8 15.3333C7.26667 15.3333 6.66667 14.7333 6.66667 13.9999ZM14 12.6666V13.3333H2V12.6666L3.33333 11.3333V7.33325C3.33333 5.26659 4.66667 3.46659 6.66667 2.86659V2.66659C6.66667 1.93325 7.26667 1.33325 8 1.33325C8.73333 1.33325 9.33333 1.93325 9.33333 2.66659V2.86659C11.3333 3.46659 12.6667 5.26659 12.6667 7.33325V11.3333L14 12.6666ZM11.3333 7.33325C11.3333 5.46659 9.86667 3.99992 8 3.99992C6.13333 3.99992 4.66667 5.46659 4.66667 7.33325V11.9999H11.3333V7.33325Z" fill="#9155EB"/>
</svg>
