<svg width="400" height="212" viewBox="0 0 400 212" fill="none" xmlns="http://www.w3.org/2000/svg">
<g filter="url(#filter0_dd_389_266)">
<rect x="8" y="4" width="384" height="196" rx="20" fill="white"/>
<rect x="39" y="52" width="56" height="56" rx="8" fill="#9155EB" fill-opacity="0.2"/>
<path d="M75 66.6665C73.8 66.6665 72.3333 67.9998 72.3333 69.3332H61.6666C61.6666 67.9998 60.2 66.6665 59 66.6665H53.6666V78.6665C53.6666 79.9998 55 81.3332 56.3333 81.3332H59.2666C59.8 83.9998 61.5333 86.2665 65.6666 86.6665V89.4398C61.6666 90.0532 61.6666 93.3332 61.6666 93.3332H72.3333C72.3333 93.3332 72.3333 90.0532 68.3333 89.4398V86.6665C72.4666 86.2665 74.2 83.9998 74.7333 81.3332H77.6666C79 81.3332 80.3333 79.9998 80.3333 78.6665V66.6665H75ZM59 78.6665H56.3333V69.3332H59V78.6665ZM72.3333 79.3332C72.3333 81.9065 71.56 83.9998 67 83.9998C62.4533 83.9998 61.6666 81.9065 61.6666 79.3332V71.9998H72.3333V79.3332ZM77.6666 78.6665H75V69.3332H77.6666V78.6665Z" fill="#9155EB"/>
<path d="M162.103 53.624V68.408H164.215V53.624H162.103ZM156.295 54.664C154.071 54.664 152.423 56.68 152.423 59.912C152.423 63.16 154.071 65.192 156.295 65.192C158.519 65.192 160.167 63.16 160.167 59.912C160.167 56.68 158.519 54.664 156.295 54.664ZM156.295 56.568C157.383 56.568 158.135 57.736 158.135 59.912C158.135 62.104 157.383 63.272 156.295 63.272C155.207 63.272 154.455 62.104 154.455 59.912C154.455 57.736 155.207 56.568 156.295 56.568ZM172.396 60.552H169.596V58.472H172.396V60.552ZM174.46 59.256H177.084V64.52H179.196V53.656H177.084V57.56H174.46V54.632H172.396V56.856H169.596V54.616H167.5V62.232H174.46V59.256ZM171.58 66.44V63.464H169.468V68.12H179.516V66.44H171.58ZM194.231 58.504C192.551 58.856 191.015 58.968 188.487 58.984V56.056H192.983V54.408H186.391V60.648H187.623C190.759 60.648 192.535 60.568 194.439 60.152L194.231 58.504ZM189.863 65.624H197.479V61.56H187.751V63.224H195.399V64.088H187.767V68.2H197.911V66.552H189.863V65.624ZM197.479 56.424V53.624H195.367V60.952H197.479V58.136H199.431V56.424H197.479ZM212.53 57.528H211.106C211.186 56.84 211.234 56.136 211.234 55.384H205.506V57.064H209.138C208.866 59.944 207.586 62.072 204.674 63.848L205.874 65.32C208.626 63.688 210.098 61.64 210.754 59.208H212.53V61.208H210.482V62.904H212.53V67.736H214.498V53.96H212.53V57.528ZM215.554 53.624V68.376H217.554V53.624H215.554ZM226.375 66.856C224.295 66.856 223.351 66.6 223.351 66.024C223.351 65.448 224.295 65.192 226.375 65.192C228.471 65.192 229.415 65.448 229.415 66.024C229.415 66.6 228.471 66.856 226.375 66.856ZM226.375 63.656C223.095 63.656 221.207 64.472 221.207 66.024C221.207 67.576 223.095 68.392 226.375 68.392C229.655 68.392 231.543 67.576 231.543 66.024C231.543 64.472 229.655 63.656 226.375 63.656ZM225.239 60.392H227.703V61.368H225.239V60.392ZM229.783 61.368V60.392H231.767V58.808H223.495V57.928H231.463V53.992H221.383V55.592H229.383V56.44H221.415V60.392H223.175V61.368H219.751V63.016H233.095V61.368H229.783ZM237.115 57.048H240.491V55.336H235.035V65.064H236.059C237.947 65.064 239.515 65 241.307 64.664L241.147 62.952C239.739 63.208 238.491 63.288 237.115 63.32V57.048ZM245.259 53.624V59.304H243.931V53.912H241.963V67.688H243.931V61H245.259V68.376H247.259V53.624H245.259ZM260.278 54.376C257.19 54.376 254.79 56.072 254.79 58.648C254.79 61.208 257.19 62.904 260.278 62.904C263.382 62.904 265.782 61.208 265.782 58.648C265.782 56.072 263.382 54.376 260.278 54.376ZM260.278 56.104C262.294 56.104 263.718 57.048 263.718 58.648C263.718 60.216 262.294 61.176 260.278 61.176C258.278 61.176 256.854 60.216 256.854 58.648C256.854 57.048 258.278 56.104 260.278 56.104ZM253.622 64.888V66.616H266.966V64.888H253.622ZM280.859 60.488H277.643V56.712H280.795V55.032H275.547V62.168H280.859V60.488ZM274.875 60.168C273.803 60.376 272.843 60.44 271.707 60.456V56.712H274.827V55.032H269.595V62.168H270.507C272.283 62.168 273.547 62.136 275.019 61.848L274.875 60.168ZM268.491 64.856V66.568H281.819V64.856H268.491ZM288.848 59.816H286.048V56.376H288.848V59.816ZM293.568 57.448V58.712H290.912V57.448H293.568ZM290.912 60.392H293.568V62.28H295.68V53.64H293.568V55.768H290.912V54.696H283.968V61.48H290.912V60.392ZM290.688 66.76C288.768 66.76 287.76 66.36 287.76 65.512C287.76 64.664 288.768 64.264 290.688 64.264C292.624 64.264 293.632 64.664 293.632 65.512C293.632 66.36 292.624 66.76 290.688 66.76ZM290.688 62.648C287.568 62.648 285.648 63.704 285.648 65.512C285.648 67.32 287.568 68.376 290.688 68.376C293.824 68.376 295.744 67.32 295.744 65.512C295.744 63.704 293.824 62.648 290.688 62.648ZM303.653 54.776H301.525V56.92C301.525 59.656 300.405 62.472 297.925 63.64L299.189 65.352C300.853 64.536 301.957 62.984 302.597 61.112C303.205 62.872 304.245 64.296 305.781 65.08L307.061 63.416C304.693 62.248 303.653 59.576 303.653 56.92V54.776ZM311.909 59.304H309.765V53.64H307.653V68.376H309.765V61.064H311.909V59.304ZM318.16 54.488V56.152H322.72C322.416 58.104 320.576 59.72 317.312 60.536L318.112 62.184C322.496 61.064 324.976 58.408 324.976 54.488H318.16ZM321.808 64.136H327.392V66.552H321.808V64.136ZM319.728 68.2H329.472V62.472H319.728V68.2ZM327.344 53.656V61.848H329.472V53.656H327.344ZM344.341 53.64H342.213V64.12H344.341V53.64ZM337.925 60.264H334.917V56.472H337.925V60.264ZM339.989 54.808H332.837V61.928H339.989V54.808ZM336.645 66.376V63.192H334.533V68.072H344.709V66.376H336.645ZM359.625 58.392C356.377 57.944 354.713 56.104 354.713 54.488V54.024H352.537V54.488C352.537 56.152 350.889 57.976 347.641 58.424L348.425 60.088C350.905 59.688 352.713 58.552 353.641 57.048C354.569 58.536 356.361 59.656 358.825 60.04L359.625 58.392ZM350.617 63.816H348.505V68.12H358.825V66.44H350.617V63.816ZM346.953 60.888V62.552H352.761V65.064H354.873V62.552H360.313V60.888H346.953Z" fill="#585767"/>
<path d="M235.175 81.906C237.093 81.906 238.395 82.62 238.395 83.726C238.395 84.846 237.093 85.56 235.175 85.56C233.271 85.56 231.969 84.846 231.969 83.726C231.969 82.62 233.271 81.906 235.175 81.906ZM235.175 86.484C237.793 86.484 239.571 85.42 239.571 83.726C239.571 82.046 237.793 80.982 235.175 80.982C232.571 80.982 230.793 82.046 230.793 83.726C230.793 85.42 232.571 86.484 235.175 86.484ZM240.887 87.674H229.519V88.626H234.601V93.05H235.749V88.626H240.887V87.674ZM244.524 86.12H249.158V81.64H243.334V82.578H247.996V85.196H243.376V90.012H244.412C246.568 90.012 248.472 89.928 250.74 89.55L250.628 88.612C248.43 88.962 246.582 89.06 244.524 89.06V86.12ZM251.804 80.464V93.05H252.952V80.464H251.804ZM268.292 85.476H262.062V83.628H268.292V85.476ZM269.44 80.982H268.292V82.704H262.062V80.982H260.928V86.414H269.44V80.982ZM270.882 87.926H259.486V88.85H264.582V93.05H265.73V88.85H270.882V87.926ZM274.211 82.942H277.753V82.004H273.077V89.942H273.903C275.779 89.942 277.053 89.886 278.551 89.564L278.453 88.612C277.081 88.906 275.891 88.976 274.211 88.99V82.942ZM282.191 80.478V85.518H280.413V80.758H279.335V92.406H280.413V86.456H282.191V93.036H283.297V80.478H282.191ZM295.15 81.262C292.546 81.262 290.586 82.648 290.586 84.734C290.586 86.834 292.546 88.206 295.15 88.206C297.754 88.206 299.714 86.834 299.714 84.734C299.714 82.648 297.754 81.262 295.15 81.262ZM295.15 82.2C297.138 82.2 298.622 83.222 298.622 84.734C298.622 86.26 297.138 87.268 295.15 87.268C293.176 87.268 291.678 86.26 291.678 84.734C291.678 83.222 293.176 82.2 295.15 82.2ZM289.466 90.418V91.37H300.876V90.418H289.466ZM312.983 84.272H309.791V81.934H312.871V81.01H308.657V85.196H312.983V84.272ZM308.125 83.922C306.949 84.174 305.899 84.258 304.821 84.272V81.934H307.943V81.01H303.687V85.196H304.373C305.675 85.196 306.837 85.154 308.237 84.846L308.125 83.922ZM305.129 89.634H311.471V91.944H305.129V89.634ZM304.009 92.868H312.591V88.71H304.009V92.868ZM302.609 86.4V87.324H313.963V86.4H302.609ZM324.922 83.46V85.098H322.024V83.46H324.922ZM320.89 86.232H317.502V84.174H320.89V86.232ZM322.024 86.036H324.922V88.094H326.084V80.492H324.922V82.536H322.024V81.262H320.89V83.264H317.502V81.262H316.368V87.156H322.024V86.036ZM321.926 92.126C320.05 92.126 318.902 91.594 318.902 90.684C318.902 89.774 320.05 89.228 321.926 89.228C323.83 89.228 324.978 89.774 324.978 90.684C324.978 91.594 323.83 92.126 321.926 92.126ZM321.926 88.346C319.35 88.346 317.754 89.2 317.754 90.684C317.754 92.168 319.35 93.022 321.926 93.022C324.516 93.022 326.126 92.168 326.126 90.684C326.126 89.2 324.516 88.346 321.926 88.346ZM333.081 81.57H331.947V83.824C331.947 86.106 330.519 88.514 328.713 89.438L329.399 90.362C330.813 89.606 331.975 88.038 332.521 86.204C333.095 87.926 334.229 89.396 335.559 90.11L336.273 89.2C334.509 88.318 333.081 86.036 333.081 83.824V81.57ZM340.599 85.574H338.527V80.492H337.379V93.036H338.527V86.526H340.599V85.574ZM352.062 84.258H344.67V80.94H343.522V85.196H352.062V84.258ZM344.586 89.06H343.438V92.728H352.132V91.79H344.586V89.06ZM341.982 86.876V87.8H353.364V86.876H341.982ZM358.095 89.1973H356.823C356.828 88.7598 356.867 88.402 356.939 88.124C357.017 87.8415 357.142 87.584 357.315 87.3516C357.489 87.1191 357.719 86.8548 358.006 86.5586C358.215 86.3444 358.407 86.1439 358.58 85.957C358.758 85.7656 358.901 85.5605 359.011 85.3418C359.12 85.1185 359.175 84.8519 359.175 84.542C359.175 84.2275 359.118 83.9564 359.004 83.7285C358.895 83.5007 358.73 83.3252 358.512 83.2021C358.298 83.0791 358.031 83.0176 357.712 83.0176C357.448 83.0176 357.197 83.0654 356.96 83.1611C356.723 83.2568 356.532 83.4049 356.386 83.6055C356.24 83.8014 356.165 84.0589 356.16 84.3779H354.896C354.905 83.863 355.032 83.4209 355.278 83.0518C355.529 82.6826 355.866 82.4001 356.29 82.2041C356.714 82.0081 357.188 81.9102 357.712 81.9102C358.291 81.9102 358.783 82.015 359.188 82.2246C359.599 82.4342 359.911 82.735 360.125 83.127C360.339 83.5143 360.446 83.9746 360.446 84.5078C360.446 84.918 360.362 85.2962 360.193 85.6426C360.029 85.9844 359.817 86.3057 359.558 86.6064C359.298 86.9072 359.022 87.1943 358.73 87.4678C358.48 87.7002 358.311 87.9622 358.225 88.2539C358.138 88.5456 358.095 88.86 358.095 89.1973ZM356.769 91.3643C356.769 91.1592 356.832 90.986 356.96 90.8447C357.088 90.7035 357.272 90.6328 357.514 90.6328C357.76 90.6328 357.947 90.7035 358.074 90.8447C358.202 90.986 358.266 91.1592 358.266 91.3643C358.266 91.5602 358.202 91.7288 358.074 91.8701C357.947 92.0114 357.76 92.082 357.514 92.082C357.272 92.082 357.088 92.0114 356.96 91.8701C356.832 91.7288 356.769 91.5602 356.769 91.3643Z" fill="#78798D"/>
<rect x="262" y="121" width="99" height="32" rx="8" fill="#9155EB"/>
<path d="M278.97 132.718H281.756V131.766H274.966V132.718H277.836V134.314C277.836 136.442 276.324 138.822 274.532 139.718L275.204 140.628C276.618 139.9 277.836 138.304 278.41 136.47C278.984 138.15 280.16 139.62 281.56 140.32L282.218 139.396C280.398 138.542 278.97 136.316 278.97 134.314V132.718ZM286.474 135.546H284.402V130.492H283.254V143.036H284.402V136.512H286.474V135.546ZM292.595 131.668H291.489V134.062C291.489 136.218 290.453 138.472 288.731 139.48L289.445 140.334C290.691 139.564 291.601 138.15 292.049 136.484C292.497 138.01 293.337 139.34 294.527 140.068L295.185 139.172C293.533 138.164 292.595 136.036 292.595 134.02V131.668ZM295.899 134.986H293.827V135.938H295.899V142.42H296.977V130.758H295.899V134.986ZM298.447 130.478V143.036H299.539V130.478H298.447ZM307.06 139.284C305.898 139.284 305.058 138.472 305.058 137.338C305.058 136.218 305.898 135.406 307.06 135.406C308.222 135.406 309.076 136.218 309.076 137.338C309.076 138.472 308.222 139.284 307.06 139.284ZM307.06 134.454C305.268 134.454 303.966 135.644 303.966 137.338C303.966 139.06 305.268 140.236 307.06 140.236C308.88 140.236 310.168 139.06 310.168 137.338C310.168 135.644 308.88 134.454 307.06 134.454ZM307.62 130.604H306.472V132.508H303.28V133.446H310.812V132.508H307.62V130.604ZM312.128 130.478V143.036H313.276V130.478H312.128ZM324.343 134.552H330.755V136.862H324.343V134.552ZM328.123 140.488V137.786H331.875V131.374H330.755V133.614H324.343V131.374H323.209V137.786H326.961V140.488H321.865V141.426H333.247V140.488H328.123ZM336.736 131.836V132.76H341.454C341.216 135.742 339.536 138.15 336.162 139.76L336.778 140.698C340.95 138.654 342.616 135.462 342.616 131.836H336.736ZM345.15 130.478V143.036H346.298V130.478H345.15Z" fill="white"/>
</g>
<defs>
<filter id="filter0_dd_389_266" x="0" y="0" width="400" height="212" filterUnits="userSpaceOnUse" color-interpolation-filters="sRGB">
<feFlood flood-opacity="0" result="BackgroundImageFix"/>
<feColorMatrix in="SourceAlpha" type="matrix" values="0 0 0 0 0 0 0 0 0 0 0 0 0 0 0 0 0 0 127 0" result="hardAlpha"/>
<feOffset dy="4"/>
<feGaussianBlur stdDeviation="4"/>
<feComposite in2="hardAlpha" operator="out"/>
<feColorMatrix type="matrix" values="0 0 0 0 0 0 0 0 0 0 0 0 0 0 0 0 0 0 0.05 0"/>
<feBlend mode="normal" in2="BackgroundImageFix" result="effect1_dropShadow_389_266"/>
<feColorMatrix in="SourceAlpha" type="matrix" values="0 0 0 0 0 0 0 0 0 0 0 0 0 0 0 0 0 0 127 0" result="hardAlpha"/>
<feOffset dy="2"/>
<feGaussianBlur stdDeviation="2"/>
<feComposite in2="hardAlpha" operator="out"/>
<feColorMatrix type="matrix" values="0 0 0 0 0 0 0 0 0 0 0 0 0 0 0 0 0 0 0.04 0"/>
<feBlend mode="normal" in2="effect1_dropShadow_389_266" result="effect2_dropShadow_389_266"/>
<feBlend mode="normal" in="SourceGraphic" in2="effect2_dropShadow_389_266" result="shape"/>
</filter>
</defs>
</svg>
