<svg width="196" height="212" viewBox="0 0 196 212" fill="none" xmlns="http://www.w3.org/2000/svg">
<g filter="url(#filter0_dd_176_317)">
<rect x="8" y="4" width="180" height="196" rx="20" fill="white"/>
<rect x="69" y="25" width="56" height="56" rx="8" fill="#FFD744" fill-opacity="0.2"/>
<path d="M105.547 41.5466L102.333 42.9999L105.547 44.4533L107 47.6666L108.467 44.4533L111.667 42.9999L108.467 41.5466L107 38.3333M97 39.6666C89.6666 39.6666 83.6666 45.6666 83.6666 52.9999C83.6666 60.3333 89.6666 66.3333 97 66.3333C104.333 66.3333 110.333 60.3333 110.333 52.9999C110.333 51.0399 109.893 49.1733 109.133 47.4933L107.48 51.1199C107.587 51.7333 107.667 52.3333 107.667 52.9999C107.667 58.9066 102.907 63.6666 97 63.6666C91.0933 63.6666 86.3333 58.9066 86.3333 52.9999C86.3333 52.9466 86.3333 52.8799 86.3333 52.8266C88.0501 52.1835 89.6158 51.1932 90.9327 49.9176C92.2495 48.6421 93.2891 47.1087 93.9866 45.4133C95.2372 46.9507 96.8148 48.1901 98.6046 49.0412C100.394 49.8923 102.351 50.3337 104.333 50.3333C104.926 50.3327 105.519 50.2927 106.107 50.2133L104.133 45.8666L97.8 42.9999L102.507 40.8666C100.827 40.1066 98.96 39.6666 97 39.6666ZM93 52.6666C92.5579 52.6666 92.134 52.8422 91.8214 53.1547C91.5089 53.4673 91.3333 53.8912 91.3333 54.3333C91.3333 54.7753 91.5089 55.1992 91.8214 55.5118C92.134 55.8243 92.5579 55.9999 93 55.9999C93.2188 55.9999 93.4356 55.9568 93.6378 55.8731C93.84 55.7893 94.0237 55.6665 94.1785 55.5118C94.3332 55.357 94.456 55.1733 94.5398 54.9711C94.6235 54.7688 94.6666 54.5521 94.6666 54.3333C94.6666 54.1144 94.6235 53.8977 94.5398 53.6954C94.456 53.4932 94.3332 53.3095 94.1785 53.1547C94.0237 53 93.84 52.8772 93.6378 52.7935C93.4356 52.7097 93.2188 52.6666 93 52.6666ZM101 52.6666C100.558 52.6666 100.134 52.8422 99.8214 53.1547C99.5089 53.4673 99.3333 53.8912 99.3333 54.3333C99.3333 54.7753 99.5089 55.1992 99.8214 55.5118C100.134 55.8243 100.558 55.9999 101 55.9999C101.442 55.9999 101.866 55.8243 102.178 55.5118C102.491 55.1992 102.667 54.7753 102.667 54.3333C102.667 53.8912 102.491 53.4673 102.178 53.1547C101.866 52.8422 101.442 52.6666 101 52.6666Z" fill="#FFD744"/>
<path d="M62.349 100.176H54.093V96.752H62.173V95.68H52.749V101.232H62.349V100.176ZM63.981 103.104H50.973V104.176H56.781V109.12H58.093V104.176H63.981V103.104ZM72.1438 100.64H68.0798V98.496H72.1438V100.64ZM73.4237 95.424H72.1438V97.488H68.0798V95.424H66.7838V101.696H73.4237V95.424ZM69.5358 106.416H77.3278V102.928H68.2078V103.968H76.0318V105.44H68.2558V109.024H77.8558V107.984H69.5358V106.416ZM77.3278 97.92V94.848H76.0158V102.256H77.3278V99.008H79.4558V97.92H77.3278ZM87.4313 99.056C87.4313 97.712 88.4553 96.784 89.8953 96.784C91.3193 96.784 92.3593 97.712 92.3593 99.056C92.3593 100.4 91.3193 101.344 89.8953 101.344C88.4553 101.344 87.4313 100.4 87.4313 99.056ZM93.6393 99.056C93.6393 97.072 92.0553 95.696 89.8953 95.696C87.7193 95.696 86.1513 97.072 86.1513 99.056C86.1513 101.056 87.7193 102.448 89.8953 102.448C92.0553 102.448 93.6393 101.056 93.6393 99.056ZM92.4553 108.128C90.3273 108.128 89.0312 107.504 89.0312 106.48C89.0312 105.44 90.3273 104.832 92.4553 104.832C94.5673 104.832 95.8633 105.44 95.8633 106.48C95.8633 107.504 94.5673 108.128 92.4553 108.128ZM92.4553 103.792C89.5433 103.792 87.7193 104.768 87.7193 106.48C87.7193 108.176 89.5433 109.168 92.4553 109.168C95.3513 109.168 97.1753 108.176 97.1753 106.48C97.1753 104.768 95.3513 103.792 92.4553 103.792ZM99.1113 98.048V96.976H97.0313V94.848H95.7193V103.344H97.0313V101.12H99.1113V100.032H97.0313V98.048H99.1113ZM113.386 96.928H108.25V95.056H106.938V96.928H101.738V98H113.386V96.928ZM104.202 101.696C104.202 100.64 105.498 100 107.594 100C109.658 100 110.938 100.64 110.938 101.696C110.938 102.768 109.658 103.408 107.594 103.408C105.498 103.408 104.202 102.768 104.202 101.696ZM108.25 106.432V104.416C110.746 104.256 112.266 103.296 112.266 101.696C112.266 99.968 110.458 98.976 107.594 98.976C104.682 98.976 102.874 99.968 102.874 101.696C102.874 103.296 104.41 104.272 106.938 104.416V106.432H101.098V107.504H114.106V106.432H108.25ZM132.562 94.848H131.25V105.328H132.562V94.848ZM122.402 99.36C122.402 97.968 123.458 96.976 124.85 96.976C126.274 96.976 127.33 97.968 127.33 99.36C127.33 100.784 126.274 101.776 124.85 101.776C123.458 101.776 122.402 100.784 122.402 99.36ZM128.61 99.36C128.61 97.296 126.994 95.84 124.85 95.84C122.722 95.84 121.122 97.296 121.122 99.36C121.122 101.44 122.722 102.912 124.85 102.912C126.994 102.912 128.61 101.44 128.61 99.36ZM124.641 107.792V104.256H123.33V108.864H132.994V107.792H124.641ZM143.524 103.312V104.288H146.436V105.76H147.748V94.832H146.436V103.312H143.524ZM140.596 96.384C141.956 96.384 142.884 96.992 142.884 97.904C142.884 98.832 141.956 99.44 140.596 99.44C139.236 99.44 138.308 98.832 138.308 97.904C138.308 96.992 139.236 96.384 140.596 96.384ZM140.596 100.416C142.692 100.416 144.132 99.44 144.132 97.904C144.132 96.4 142.692 95.408 140.596 95.408C138.5 95.408 137.06 96.4 137.06 97.904C137.06 99.44 138.5 100.416 140.596 100.416ZM140.084 105.248H141.396V102.416C142.692 102.336 144.02 102.192 145.284 102L145.172 101.056C142.132 101.44 138.58 101.472 135.924 101.472L136.1 102.56C137.284 102.56 138.66 102.544 140.084 102.48V105.248ZM139.284 107.792V104.688H137.972V108.864H148.116V107.792H139.284Z" fill="#585767"/>
<path d="M54.5322 146.762V171H50.1328V151.892L44.3057 153.817V150.265L54.0342 146.762H54.5322ZM79.2861 167.547V171H62.917V168.045L70.7695 159.562C71.5885 158.632 72.236 157.824 72.7119 157.138C73.1878 156.451 73.5254 155.832 73.7246 155.278C73.9349 154.714 74.04 154.177 74.04 153.668C74.04 152.926 73.9072 152.279 73.6416 151.726C73.376 151.161 72.9886 150.724 72.4795 150.414C71.9814 150.104 71.3672 149.949 70.6367 149.949C69.8288 149.949 69.137 150.137 68.5615 150.514C67.9971 150.879 67.5654 151.388 67.2666 152.041C66.9788 152.694 66.835 153.441 66.835 154.282H62.4355C62.4355 152.854 62.7676 151.554 63.4316 150.381C64.0957 149.197 65.0475 148.25 66.2871 147.542C67.5267 146.834 68.9987 146.479 70.7031 146.479C72.3633 146.479 73.7689 146.756 74.9199 147.31C76.071 147.852 76.9453 148.627 77.543 149.634C78.1406 150.641 78.4395 151.842 78.4395 153.236C78.4395 154.011 78.3122 154.775 78.0576 155.527C77.8031 156.28 77.4434 157.027 76.9785 157.769C76.5247 158.499 75.9824 159.241 75.3516 159.993C74.7207 160.746 74.0179 161.515 73.2432 162.301L68.5283 167.547H79.2861ZM94.793 146.629H95.3906V150.165H95.1084C93.7692 150.165 92.5905 150.37 91.5723 150.779C90.5651 151.189 89.724 151.764 89.0488 152.506C88.3848 153.236 87.8812 154.105 87.5381 155.112C87.195 156.108 87.0234 157.199 87.0234 158.383V162.301C87.0234 163.219 87.1175 164.027 87.3057 164.725C87.5049 165.411 87.776 165.992 88.1191 166.468C88.4733 166.933 88.8828 167.281 89.3477 167.514C89.8236 167.746 90.3438 167.862 90.9082 167.862C91.4727 167.862 91.9818 167.746 92.4355 167.514C92.8893 167.281 93.2767 166.955 93.5977 166.534C93.9297 166.103 94.1787 165.599 94.3447 165.023C94.5218 164.448 94.6104 163.817 94.6104 163.131C94.6104 162.456 94.5273 161.83 94.3613 161.255C94.1953 160.679 93.9518 160.176 93.6309 159.744C93.3099 159.301 92.9115 158.964 92.4355 158.731C91.9707 158.488 91.4395 158.366 90.8418 158.366C90.0671 158.366 89.3753 158.549 88.7666 158.914C88.1579 159.268 87.6764 159.733 87.3223 160.309C86.9681 160.884 86.7744 161.493 86.7412 162.135L85.2637 161.404C85.319 160.464 85.5182 159.6 85.8613 158.814C86.2155 158.029 86.6859 157.342 87.2725 156.756C87.8701 156.169 88.5729 155.715 89.3809 155.395C90.1999 155.074 91.1074 154.913 92.1035 154.913C93.2546 154.913 94.2617 155.134 95.125 155.577C95.9883 156.009 96.7021 156.601 97.2666 157.354C97.8421 158.106 98.2738 158.975 98.5615 159.96C98.8493 160.934 98.9932 161.963 98.9932 163.048C98.9932 164.21 98.805 165.295 98.4287 166.302C98.0635 167.309 97.5322 168.189 96.835 168.941C96.1377 169.694 95.2965 170.281 94.3115 170.701C93.3265 171.122 92.2197 171.332 90.9912 171.332C89.6963 171.332 88.5342 171.089 87.5049 170.602C86.4867 170.115 85.6123 169.439 84.8818 168.576C84.1514 167.713 83.5924 166.706 83.2051 165.555C82.8177 164.404 82.624 163.159 82.624 161.819V160.06C82.624 158.167 82.8841 156.407 83.4043 154.78C83.9245 153.153 84.6937 151.731 85.7119 150.514C86.7412 149.285 88.014 148.333 89.5303 147.658C91.0465 146.972 92.8008 146.629 94.793 146.629Z" fill="#32313F"/>
<path d="M118.634 153.5C119.019 152.833 119.981 152.833 120.366 153.5L124.696 161C125.081 161.667 124.6 162.5 123.83 162.5H115.17C114.4 162.5 113.919 161.667 114.304 161L118.634 153.5Z" fill="#3FC6B8"/>
<path d="M134.771 154.422V163H133.688V155.775L131.502 156.572V155.594L134.602 154.422H134.771ZM143.949 162.109V163H138.365V162.221L141.16 159.109C141.504 158.727 141.769 158.402 141.957 158.137C142.148 157.867 142.281 157.627 142.355 157.416C142.433 157.201 142.472 156.982 142.472 156.76C142.472 156.479 142.414 156.225 142.296 155.998C142.183 155.768 142.015 155.584 141.793 155.447C141.57 155.311 141.3 155.242 140.984 155.242C140.605 155.242 140.289 155.316 140.035 155.465C139.785 155.609 139.597 155.812 139.472 156.074C139.347 156.336 139.285 156.637 139.285 156.977H138.201C138.201 156.496 138.306 156.057 138.517 155.658C138.728 155.26 139.041 154.943 139.455 154.709C139.869 154.471 140.379 154.352 140.984 154.352C141.523 154.352 141.984 154.447 142.367 154.639C142.75 154.826 143.043 155.092 143.246 155.436C143.453 155.775 143.556 156.174 143.556 156.631C143.556 156.881 143.513 157.135 143.427 157.393C143.345 157.646 143.23 157.9 143.082 158.154C142.937 158.408 142.767 158.658 142.572 158.904C142.38 159.15 142.175 159.393 141.957 159.631L139.671 162.109H143.949ZM145.415 156.561V156.109C145.415 155.785 145.486 155.49 145.626 155.225C145.767 154.959 145.968 154.746 146.23 154.586C146.491 154.426 146.802 154.346 147.161 154.346C147.529 154.346 147.841 154.426 148.099 154.586C148.361 154.746 148.562 154.959 148.702 155.225C148.843 155.49 148.913 155.785 148.913 156.109V156.561C148.913 156.877 148.843 157.168 148.702 157.434C148.566 157.699 148.366 157.912 148.105 158.072C147.847 158.232 147.536 158.312 147.173 158.312C146.81 158.312 146.495 158.232 146.23 158.072C145.968 157.912 145.767 157.699 145.626 157.434C145.486 157.168 145.415 156.877 145.415 156.561ZM146.23 156.109V156.561C146.23 156.74 146.263 156.91 146.329 157.07C146.4 157.23 146.505 157.361 146.646 157.463C146.786 157.561 146.962 157.609 147.173 157.609C147.384 157.609 147.558 157.561 147.695 157.463C147.831 157.361 147.933 157.23 147.999 157.07C148.066 156.91 148.099 156.74 148.099 156.561V156.109C148.099 155.926 148.064 155.754 147.993 155.594C147.927 155.43 147.823 155.299 147.683 155.201C147.546 155.1 147.372 155.049 147.161 155.049C146.954 155.049 146.78 155.1 146.64 155.201C146.503 155.299 146.4 155.43 146.329 155.594C146.263 155.754 146.23 155.926 146.23 156.109ZM149.57 161.365V160.908C149.57 160.588 149.64 160.295 149.78 160.029C149.921 159.764 150.122 159.551 150.384 159.391C150.646 159.23 150.956 159.15 151.316 159.15C151.683 159.15 151.995 159.23 152.253 159.391C152.515 159.551 152.716 159.764 152.857 160.029C152.997 160.295 153.068 160.588 153.068 160.908V161.365C153.068 161.686 152.997 161.979 152.857 162.244C152.72 162.51 152.521 162.723 152.259 162.883C152.001 163.043 151.691 163.123 151.327 163.123C150.964 163.123 150.652 163.043 150.39 162.883C150.128 162.723 149.925 162.51 149.78 162.244C149.64 161.979 149.57 161.686 149.57 161.365ZM150.384 160.908V161.365C150.384 161.545 150.417 161.717 150.484 161.881C150.554 162.041 150.659 162.172 150.8 162.273C150.941 162.371 151.116 162.42 151.327 162.42C151.538 162.42 151.712 162.371 151.849 162.273C151.989 162.172 152.093 162.041 152.159 161.881C152.226 161.721 152.259 161.549 152.259 161.365V160.908C152.259 160.725 152.224 160.553 152.154 160.393C152.087 160.232 151.984 160.104 151.843 160.006C151.706 159.904 151.53 159.854 151.316 159.854C151.109 159.854 150.935 159.904 150.794 160.006C150.657 160.104 150.554 160.232 150.484 160.393C150.417 160.553 150.384 160.725 150.384 160.908ZM151.585 155.682L147.419 162.35L146.81 161.963L150.976 155.295L151.585 155.682Z" fill="#3FC6B8"/>
<path d="M73.73 118.37H75.84V117.69H70.83V118.37H72.91V119.51C72.91 121.06 71.82 122.75 70.53 123.36L71.01 124.02C72.03 123.5 72.91 122.37 73.32 121.06C73.75 122.29 74.63 123.32 75.67 123.8L76.13 123.14C74.81 122.58 73.73 121.03 73.73 119.51V118.37ZM77.05 116.78V125.74H77.87V116.78H77.05ZM86.4692 120.56C85.0392 120.85 83.7492 120.94 82.4792 120.95V117.43H81.6692V121.64H82.3692C83.7092 121.64 85.0592 121.54 86.5592 121.24L86.4692 120.56ZM83.4592 122.63H82.6392V125.54H88.5092V124.87H83.4592V122.63ZM88.1892 119.44V116.78H87.3692V123.26H88.1892V120.13H89.5092V119.44H88.1892ZM101.109 119.98C99.9087 120.22 98.8687 120.29 97.1287 120.29V117.95H100.279V117.29H96.3187V120.95H97.0087C98.8587 120.95 99.9487 120.89 101.209 120.63L101.109 119.98ZM98.0087 123.95H102.879V121.74H97.1787V122.39H102.069V123.33H97.2087V125.62H103.209V124.96H98.0087V123.95ZM102.879 118.66V116.77H102.059V121.28H102.879V119.33H104.209V118.66H102.879ZM111.738 118.53H114.268V117.86H110.928V123.53H111.518C112.858 123.53 113.768 123.49 114.838 123.26L114.768 122.58C113.788 122.79 112.938 122.84 111.738 122.85V118.53ZM117.438 116.77V120.37H116.168V116.97H115.398V125.29H116.168V121.04H117.438V125.74H118.228V116.77H117.438ZM127.827 116.77V125.75H128.647V116.77H127.827ZM121.817 117.53V123.58H126.037V117.53H125.227V119.9H122.627V117.53H121.817ZM122.627 120.55H125.227V122.91H122.627V120.55Z" fill="#9C9DB2"/>
</g>
<defs>
<filter id="filter0_dd_176_317" x="0" y="0" width="196" height="212" filterUnits="userSpaceOnUse" color-interpolation-filters="sRGB">
<feFlood flood-opacity="0" result="BackgroundImageFix"/>
<feColorMatrix in="SourceAlpha" type="matrix" values="0 0 0 0 0 0 0 0 0 0 0 0 0 0 0 0 0 0 127 0" result="hardAlpha"/>
<feOffset dy="4"/>
<feGaussianBlur stdDeviation="4"/>
<feComposite in2="hardAlpha" operator="out"/>
<feColorMatrix type="matrix" values="0 0 0 0 0 0 0 0 0 0 0 0 0 0 0 0 0 0 0.05 0"/>
<feBlend mode="normal" in2="BackgroundImageFix" result="effect1_dropShadow_176_317"/>
<feColorMatrix in="SourceAlpha" type="matrix" values="0 0 0 0 0 0 0 0 0 0 0 0 0 0 0 0 0 0 127 0" result="hardAlpha"/>
<feOffset dy="2"/>
<feGaussianBlur stdDeviation="2"/>
<feComposite in2="hardAlpha" operator="out"/>
<feColorMatrix type="matrix" values="0 0 0 0 0 0 0 0 0 0 0 0 0 0 0 0 0 0 0.04 0"/>
<feBlend mode="normal" in2="effect1_dropShadow_176_317" result="effect2_dropShadow_176_317"/>
<feBlend mode="normal" in="SourceGraphic" in2="effect2_dropShadow_176_317" result="shape"/>
</filter>
</defs>
</svg>
