<svg width="196" height="212" viewBox="0 0 196 212" fill="none" xmlns="http://www.w3.org/2000/svg">
<g filter="url(#filter0_dd_176_375)">
<rect x="8" y="4" width="180" height="196" rx="20" fill="white"/>
<rect x="69" y="25" width="56" height="56" rx="8" fill="#3FC6B8" fill-opacity="0.2"/>
<path d="M91.6667 41C90.1867 41 89 42.1867 89 43.6667V65H105V43.6667C105 42.1867 103.813 41 102.333 41H91.6667ZM91.6667 43.6667H102.333V62.3333H91.6667V43.6667ZM98.3333 51.6667V54.3333H101V51.6667H98.3333Z" fill="#3FC6B8"/>
<path d="M69.9981 100.56C72.4141 100.368 74.5421 99.632 75.4221 98.304C76.3021 99.632 78.4141 100.368 80.8141 100.56L81.2141 99.568C78.5421 99.392 76.3821 98.512 76.1581 97.088H80.5741V96.096H76.0781V94.736H74.7661V96.096H70.2541V97.088H74.6861C74.4621 98.512 72.2701 99.392 69.6141 99.568L69.9981 100.56ZM81.8861 102.208V101.2H68.9421V102.208H74.7501V103.536H70.4781V104.512H78.9421V105.728H70.5261V109.024H80.6701V108.032H71.8061V106.672H80.2381V103.536H76.0781V102.208H81.8861ZM94.6089 94.848V102.544H95.9209V94.848H94.6089ZM86.6729 103.248V108.992H95.9209V103.248H94.6249V105.008H87.9689V103.248H86.6729ZM87.9689 106.032H94.6249V107.936H87.9689V106.032ZM88.2089 95.52C86.0489 95.52 84.4809 96.864 84.4809 98.816C84.4809 100.8 86.0489 102.128 88.2089 102.128C90.3849 102.128 91.9689 100.8 91.9689 98.816C91.9689 96.864 90.3849 95.52 88.2089 95.52ZM88.2089 96.608C89.6649 96.608 90.6889 97.52 90.6889 98.816C90.6889 100.128 89.6649 101.04 88.2089 101.04C86.7849 101.04 85.7609 100.128 85.7609 98.816C85.7609 97.52 86.7849 96.608 88.2089 96.608ZM115.608 94.848H114.296V105.328H115.608V94.848ZM105.448 99.36C105.448 97.968 106.504 96.976 107.896 96.976C109.32 96.976 110.376 97.968 110.376 99.36C110.376 100.784 109.32 101.776 107.896 101.776C106.504 101.776 105.448 100.784 105.448 99.36ZM111.656 99.36C111.656 97.296 110.04 95.84 107.896 95.84C105.768 95.84 104.168 97.296 104.168 99.36C104.168 101.44 105.768 102.912 107.896 102.912C110.04 102.912 111.656 101.44 111.656 99.36ZM107.688 107.792V104.256H106.376V108.864H116.04V107.792H107.688ZM126.571 103.312V104.288H129.483V105.76H130.795V94.832H129.483V103.312H126.571ZM123.643 96.384C125.003 96.384 125.931 96.992 125.931 97.904C125.931 98.832 125.003 99.44 123.643 99.44C122.283 99.44 121.355 98.832 121.355 97.904C121.355 96.992 122.283 96.384 123.643 96.384ZM123.643 100.416C125.739 100.416 127.179 99.44 127.179 97.904C127.179 96.4 125.739 95.408 123.643 95.408C121.547 95.408 120.107 96.4 120.107 97.904C120.107 99.44 121.547 100.416 123.643 100.416ZM123.131 105.248H124.443V102.416C125.739 102.336 127.067 102.192 128.331 102L128.219 101.056C125.179 101.44 121.627 101.472 118.971 101.472L119.147 102.56C120.331 102.56 121.707 102.544 123.131 102.48V105.248ZM122.331 107.792V104.688H121.019V108.864H131.163V107.792H122.331Z" fill="#585767"/>
<path d="M57.0928 159.877L53.5898 159.03L54.9346 146.828H68.2324V150.464H58.5703L57.9395 156.108C58.2826 155.898 58.7806 155.688 59.4336 155.478C60.0977 155.256 60.8447 155.146 61.6748 155.146C62.8258 155.146 63.8551 155.334 64.7627 155.71C65.6702 156.075 66.4395 156.606 67.0703 157.304C67.7122 158.001 68.1937 158.853 68.5146 159.86C68.8467 160.856 69.0127 161.985 69.0127 163.247C69.0127 164.354 68.8467 165.394 68.5146 166.368C68.1937 167.331 67.7012 168.189 67.0371 168.941C66.373 169.683 65.5374 170.27 64.5303 170.701C63.5231 171.122 62.3389 171.332 60.9775 171.332C59.9482 171.332 58.9577 171.183 58.0059 170.884C57.0651 170.574 56.2184 170.126 55.4658 169.539C54.7132 168.941 54.11 168.211 53.6562 167.348C53.2135 166.484 52.9701 165.494 52.9258 164.376H57.2588C57.3363 165.118 57.5355 165.748 57.8564 166.269C58.1774 166.789 58.598 167.187 59.1182 167.464C59.6494 167.741 60.2637 167.879 60.9609 167.879C61.5918 167.879 62.1341 167.763 62.5879 167.53C63.0527 167.287 63.4346 166.949 63.7334 166.518C64.0322 166.086 64.2536 165.577 64.3975 164.99C64.5413 164.404 64.6133 163.762 64.6133 163.064C64.6133 162.389 64.5303 161.775 64.3643 161.222C64.1982 160.657 63.9437 160.17 63.6006 159.761C63.2575 159.351 62.8258 159.036 62.3057 158.814C61.7965 158.593 61.1989 158.482 60.5127 158.482C59.5941 158.482 58.8857 158.621 58.3877 158.897C57.9007 159.174 57.4691 159.501 57.0928 159.877ZM77.2148 156.972H79.6885C80.5628 156.972 81.2822 156.822 81.8467 156.523C82.4222 156.214 82.8483 155.793 83.125 155.262C83.4128 154.719 83.5566 154.094 83.5566 153.386C83.5566 152.688 83.4294 152.085 83.1748 151.576C82.9202 151.056 82.5329 150.658 82.0127 150.381C81.5036 150.093 80.8506 149.949 80.0537 149.949C79.4118 149.949 78.8197 150.076 78.2773 150.331C77.7461 150.586 77.32 150.951 76.999 151.427C76.6891 151.892 76.5342 152.451 76.5342 153.104H72.1348C72.1348 151.798 72.4779 150.652 73.1641 149.667C73.8613 148.671 74.8021 147.891 75.9863 147.326C77.1706 146.762 78.4932 146.479 79.9541 146.479C81.5479 146.479 82.9424 146.745 84.1377 147.276C85.3441 147.797 86.2793 148.566 86.9434 149.584C87.6185 150.602 87.9561 151.864 87.9561 153.369C87.9561 154.089 87.7845 154.808 87.4414 155.527C87.1094 156.236 86.6169 156.878 85.9639 157.453C85.3219 158.018 84.5306 158.477 83.5898 158.831C82.6602 159.174 81.5921 159.346 80.3857 159.346H77.2148V156.972ZM77.2148 160.358V158.018H80.3857C81.7471 158.018 82.9258 158.178 83.9219 158.499C84.929 158.809 85.7591 159.252 86.4121 159.827C87.0651 160.392 87.5465 161.05 87.8564 161.803C88.1774 162.555 88.3379 163.363 88.3379 164.227C88.3379 165.355 88.1276 166.363 87.707 167.248C87.2865 168.122 86.6943 168.864 85.9307 169.473C85.1781 170.081 84.2926 170.546 83.2744 170.867C82.2562 171.177 81.1549 171.332 79.9707 171.332C78.9414 171.332 77.9398 171.194 76.9658 170.917C76.0029 170.629 75.1341 170.203 74.3594 169.639C73.5846 169.063 72.9704 168.344 72.5166 167.48C72.0628 166.606 71.8359 165.593 71.8359 164.442H76.2354C76.2354 165.106 76.3958 165.699 76.7168 166.219C77.0488 166.739 77.5026 167.148 78.0781 167.447C78.6647 167.735 79.3232 167.879 80.0537 167.879C80.8617 167.879 81.5534 167.735 82.1289 167.447C82.7155 167.148 83.1637 166.728 83.4736 166.186C83.7835 165.632 83.9385 164.974 83.9385 164.21C83.9385 163.302 83.7669 162.566 83.4238 162.002C83.0807 161.438 82.5882 161.022 81.9463 160.757C81.3154 160.491 80.5628 160.358 79.6885 160.358H77.2148Z" fill="#32313F"/>
<path d="M109.134 153.5C109.519 152.833 110.481 152.833 110.866 153.5L115.196 161C115.581 161.667 115.1 162.5 114.33 162.5H105.67C104.9 162.5 104.419 161.667 104.804 161L109.134 153.5Z" fill="#3FC6B8"/>
<path d="M127.299 162.109V163H121.715V162.221L124.51 159.109C124.854 158.727 125.119 158.402 125.307 158.137C125.498 157.867 125.631 157.627 125.705 157.416C125.783 157.201 125.822 156.982 125.822 156.76C125.822 156.479 125.764 156.225 125.646 155.998C125.533 155.768 125.365 155.584 125.143 155.447C124.92 155.311 124.65 155.242 124.334 155.242C123.955 155.242 123.639 155.316 123.385 155.465C123.135 155.609 122.947 155.812 122.822 156.074C122.697 156.336 122.635 156.637 122.635 156.977H121.551C121.551 156.496 121.656 156.057 121.867 155.658C122.078 155.26 122.391 154.943 122.805 154.709C123.219 154.471 123.729 154.352 124.334 154.352C124.873 154.352 125.334 154.447 125.717 154.639C126.1 154.826 126.393 155.092 126.596 155.436C126.803 155.775 126.906 156.174 126.906 156.631C126.906 156.881 126.863 157.135 126.777 157.393C126.695 157.646 126.58 157.9 126.432 158.154C126.287 158.408 126.117 158.658 125.922 158.904C125.73 159.15 125.525 159.393 125.307 159.631L123.021 162.109H127.299ZM134.625 160.129V161.02H128.461V160.381L132.281 154.469H133.166L132.216 156.18L129.691 160.129H134.625ZM133.435 154.469V163H132.351V154.469H133.435ZM135.915 156.561V156.109C135.915 155.785 135.986 155.49 136.126 155.225C136.267 154.959 136.468 154.746 136.73 154.586C136.991 154.426 137.302 154.346 137.661 154.346C138.029 154.346 138.341 154.426 138.599 154.586C138.861 154.746 139.062 154.959 139.202 155.225C139.343 155.49 139.413 155.785 139.413 156.109V156.561C139.413 156.877 139.343 157.168 139.202 157.434C139.066 157.699 138.866 157.912 138.605 158.072C138.347 158.232 138.036 158.312 137.673 158.312C137.31 158.312 136.995 158.232 136.73 158.072C136.468 157.912 136.267 157.699 136.126 157.434C135.986 157.168 135.915 156.877 135.915 156.561ZM136.73 156.109V156.561C136.73 156.74 136.763 156.91 136.829 157.07C136.9 157.23 137.005 157.361 137.146 157.463C137.286 157.561 137.462 157.609 137.673 157.609C137.884 157.609 138.058 157.561 138.195 157.463C138.331 157.361 138.433 157.23 138.499 157.07C138.566 156.91 138.599 156.74 138.599 156.561V156.109C138.599 155.926 138.564 155.754 138.493 155.594C138.427 155.43 138.323 155.299 138.183 155.201C138.046 155.1 137.872 155.049 137.661 155.049C137.454 155.049 137.28 155.1 137.14 155.201C137.003 155.299 136.9 155.43 136.829 155.594C136.763 155.754 136.73 155.926 136.73 156.109ZM140.07 161.365V160.908C140.07 160.588 140.14 160.295 140.28 160.029C140.421 159.764 140.622 159.551 140.884 159.391C141.146 159.23 141.456 159.15 141.816 159.15C142.183 159.15 142.495 159.23 142.753 159.391C143.015 159.551 143.216 159.764 143.357 160.029C143.497 160.295 143.568 160.588 143.568 160.908V161.365C143.568 161.686 143.497 161.979 143.357 162.244C143.22 162.51 143.021 162.723 142.759 162.883C142.501 163.043 142.191 163.123 141.827 163.123C141.464 163.123 141.152 163.043 140.89 162.883C140.628 162.723 140.425 162.51 140.28 162.244C140.14 161.979 140.07 161.686 140.07 161.365ZM140.884 160.908V161.365C140.884 161.545 140.917 161.717 140.984 161.881C141.054 162.041 141.159 162.172 141.3 162.273C141.441 162.371 141.616 162.42 141.827 162.42C142.038 162.42 142.212 162.371 142.349 162.273C142.489 162.172 142.593 162.041 142.659 161.881C142.726 161.721 142.759 161.549 142.759 161.365V160.908C142.759 160.725 142.724 160.553 142.654 160.393C142.587 160.232 142.484 160.104 142.343 160.006C142.206 159.904 142.03 159.854 141.816 159.854C141.609 159.854 141.435 159.904 141.294 160.006C141.157 160.104 141.054 160.232 140.984 160.393C140.917 160.553 140.884 160.725 140.884 160.908ZM142.085 155.682L137.919 162.35L137.31 161.963L141.476 155.295L142.085 155.682Z" fill="#3FC6B8"/>
<path d="M73.73 118.37H75.84V117.69H70.83V118.37H72.91V119.51C72.91 121.06 71.82 122.75 70.53 123.36L71.01 124.02C72.03 123.5 72.91 122.37 73.32 121.06C73.75 122.29 74.63 123.32 75.67 123.8L76.13 123.14C74.81 122.58 73.73 121.03 73.73 119.51V118.37ZM77.05 116.78V125.74H77.87V116.78H77.05ZM86.4692 120.56C85.0392 120.85 83.7492 120.94 82.4792 120.95V117.43H81.6692V121.64H82.3692C83.7092 121.64 85.0592 121.54 86.5592 121.24L86.4692 120.56ZM83.4592 122.63H82.6392V125.54H88.5092V124.87H83.4592V122.63ZM88.1892 119.44V116.78H87.3692V123.26H88.1892V120.13H89.5092V119.44H88.1892ZM101.109 119.98C99.9087 120.22 98.8687 120.29 97.1287 120.29V117.95H100.279V117.29H96.3187V120.95H97.0087C98.8587 120.95 99.9487 120.89 101.209 120.63L101.109 119.98ZM98.0087 123.95H102.879V121.74H97.1787V122.39H102.069V123.33H97.2087V125.62H103.209V124.96H98.0087V123.95ZM102.879 118.66V116.77H102.059V121.28H102.879V119.33H104.209V118.66H102.879ZM111.738 118.53H114.268V117.86H110.928V123.53H111.518C112.858 123.53 113.768 123.49 114.838 123.26L114.768 122.58C113.788 122.79 112.938 122.84 111.738 122.85V118.53ZM117.438 116.77V120.37H116.168V116.97H115.398V125.29H116.168V121.04H117.438V125.74H118.228V116.77H117.438ZM127.827 116.77V125.75H128.647V116.77H127.827ZM121.817 117.53V123.58H126.037V117.53H125.227V119.9H122.627V117.53H121.817ZM122.627 120.55H125.227V122.91H122.627V120.55Z" fill="#9C9DB2"/>
</g>
<defs>
<filter id="filter0_dd_176_375" x="0" y="0" width="196" height="212" filterUnits="userSpaceOnUse" color-interpolation-filters="sRGB">
<feFlood flood-opacity="0" result="BackgroundImageFix"/>
<feColorMatrix in="SourceAlpha" type="matrix" values="0 0 0 0 0 0 0 0 0 0 0 0 0 0 0 0 0 0 127 0" result="hardAlpha"/>
<feOffset dy="4"/>
<feGaussianBlur stdDeviation="4"/>
<feComposite in2="hardAlpha" operator="out"/>
<feColorMatrix type="matrix" values="0 0 0 0 0 0 0 0 0 0 0 0 0 0 0 0 0 0 0.05 0"/>
<feBlend mode="normal" in2="BackgroundImageFix" result="effect1_dropShadow_176_375"/>
<feColorMatrix in="SourceAlpha" type="matrix" values="0 0 0 0 0 0 0 0 0 0 0 0 0 0 0 0 0 0 127 0" result="hardAlpha"/>
<feOffset dy="2"/>
<feGaussianBlur stdDeviation="2"/>
<feComposite in2="hardAlpha" operator="out"/>
<feColorMatrix type="matrix" values="0 0 0 0 0 0 0 0 0 0 0 0 0 0 0 0 0 0 0.04 0"/>
<feBlend mode="normal" in2="effect1_dropShadow_176_375" result="effect2_dropShadow_176_375"/>
<feBlend mode="normal" in="SourceGraphic" in2="effect2_dropShadow_176_375" result="shape"/>
</filter>
</defs>
</svg>
