<svg width="400" height="578" viewBox="0 0 400 578" fill="none" xmlns="http://www.w3.org/2000/svg">
<g filter="url(#filter0_dd_207_574)">
<rect x="8" y="4" width="384" height="562" rx="20" fill="white"/>
<path d="M330 284.5C330 356.573 271.573 415 199.5 415C127.427 415 69 356.573 69 284.5C69 212.427 127.427 154 199.5 154C271.573 154 330 212.427 330 284.5ZM141.304 284.5C141.304 316.641 167.359 342.696 199.5 342.696C231.641 342.696 257.696 316.641 257.696 284.5C257.696 252.359 231.641 226.304 199.5 226.304C167.359 226.304 141.304 252.359 141.304 284.5Z" fill="#F5F5F5"/>
<path d="M180.64 392.879C160.769 389.284 142.28 380.263 127.217 366.815C112.154 353.367 101.103 336.016 95.2855 316.679C89.4684 297.342 89.1119 276.773 94.2555 257.246C99.3991 237.72 109.842 219.995 124.431 206.034L142.567 224.984C131.474 235.601 123.532 249.079 119.621 263.928C115.71 278.777 115.981 294.418 120.404 309.123C124.828 323.827 133.231 337.022 144.686 347.248C156.141 357.474 170.2 364.334 185.31 367.068L180.64 392.879Z" fill="#BD91FF"/>
<path d="M117.401 213.418C127.775 201.451 140.621 191.877 155.054 185.356C169.486 178.835 185.162 175.523 200.999 175.647L200.792 201.877C188.749 201.782 176.829 204.301 165.854 209.26C154.879 214.219 145.11 221.499 137.222 230.6L117.401 213.418Z" fill="#EDE2FF"/>
<path d="M200.136 175.644C216.018 175.644 231.709 179.099 246.121 185.769C260.534 192.438 273.323 202.164 283.602 214.27C293.881 226.376 301.403 240.573 305.647 255.877C309.891 271.18 310.755 287.224 308.18 302.895C305.604 318.566 299.65 333.489 290.731 346.629C281.812 359.769 270.141 370.812 256.528 378.991C242.915 387.17 227.686 392.29 211.897 393.996C196.108 395.702 180.136 393.952 165.09 388.869L173.486 364.018C184.928 367.884 197.073 369.214 209.079 367.917C221.086 366.62 232.667 362.726 243.019 356.507C253.37 350.287 262.245 341.89 269.028 331.897C275.81 321.905 280.337 310.557 282.296 298.641C284.255 286.724 283.598 274.524 280.37 262.886C277.143 251.249 271.423 240.453 263.607 231.247C255.79 222.041 246.065 214.646 235.105 209.574C224.145 204.502 212.213 201.875 200.136 201.875V175.644Z" fill="#9155EB"/>
<path d="M8 24C8 12.9543 16.9543 4 28 4H372C383.046 4 392 12.9543 392 24V50H8V24Z" fill="#F9F9FB"/>
<path d="M44.192 22.696H45.712V29.192C45.2 29.208 44.688 29.224 44.192 29.24V22.696ZM47.744 22.696H49.008V21H40.88V22.696H42.144V29.288C41.568 29.288 41.008 29.288 40.496 29.288L40.72 31.016C43.232 31.016 46.576 30.952 49.568 30.424L49.44 28.888C48.896 28.968 48.32 29 47.744 29.048V22.696ZM54.368 25.208H52.224V19.656H50.112V34.392H52.224V26.952H54.368V25.208ZM56.7887 29.064C59.3967 28.68 61.2527 27.496 62.2287 25.912C63.2048 27.496 65.0608 28.68 67.6687 29.064L68.4528 27.352C65.1088 26.888 63.4607 25.096 63.3167 23.352H67.7488V21.672H63.2847V19.864H61.1727V21.672H56.7087V23.352H61.1407C60.9967 25.096 59.3487 26.888 56.0047 27.352L56.7887 29.064ZM55.5567 30.968V32.68H68.9008V30.968H55.5567ZM84.7679 23.096V24.184H82.1439V23.096H84.7679ZM80.0799 25.16H77.2799V23.56H80.0799V25.16ZM82.1439 25.784H84.7679V27.208H86.8799V19.656H84.7679V21.496H82.1439V20.248H80.0799V21.976H77.2799V20.248H75.1839V26.808H82.1439V25.784ZM79.2639 32.568V31.704H86.8799V27.768H77.1519V29.4H84.7839V30.184H77.1839V34.2H87.2959V32.568H79.2639ZM103.099 23.24H97.355V22.376H103.099V23.24ZM105.195 19.864H103.099V20.84H97.355V19.864H95.259V24.792H105.195V19.864ZM106.891 27.24V25.576H93.563V27.24H99.147V28.152H95.083V29.704H103.179V30.44H95.099V34.264H105.643V32.696H97.195V31.896H105.259V28.152H101.259V27.24H106.891ZM108.96 23.368V27.912H110.224C113.168 27.912 115.04 27.848 117.088 27.464L116.912 25.768C115.072 26.104 113.456 26.2 111.056 26.216V24.936H115.664V20.504H108.944V22.2H113.584V23.368H108.96ZM115.184 32.776C113.264 32.776 112.272 32.408 112.272 31.592C112.272 30.776 113.264 30.408 115.184 30.408C117.104 30.408 118.096 30.776 118.096 31.592C118.096 32.408 117.104 32.776 115.184 32.776ZM115.184 28.792C112.112 28.792 110.192 29.816 110.192 31.592C110.192 33.352 112.112 34.392 115.184 34.392C118.256 34.392 120.176 33.352 120.176 31.592C120.176 29.816 118.256 28.792 115.184 28.792ZM121.984 23.336V21.624H120.032V19.64H117.92V28.52H120.032V26.44H121.984V24.728H120.032V23.336H121.984ZM133.397 19.624V34.408H135.509V19.624H133.397ZM124.021 20.808V30.968H131.285V20.808H129.189V24.376H126.117V20.808H124.021ZM126.117 26.024H129.189V29.288H126.117V26.024ZM144.825 21.32C146.969 21.32 147.977 21.624 147.977 22.28C147.977 22.968 146.969 23.256 144.825 23.256C142.697 23.256 141.689 22.968 141.689 22.28C141.689 21.624 142.697 21.32 144.825 21.32ZM144.825 24.792C148.201 24.792 150.169 23.912 150.169 22.28C150.169 20.664 148.201 19.768 144.825 19.768C141.465 19.768 139.497 20.664 139.497 22.28C139.497 23.912 141.465 24.792 144.825 24.792ZM146.089 28.056H143.593V27.032H146.089V28.056ZM151.497 27.032V25.368H138.153V27.032H141.481V28.056H139.673V29.608H147.785V30.392H139.705V34.264H150.249V32.68H141.801V31.848H149.865V28.056H148.201V27.032H151.497Z" fill="#78798D"/>
</g>
<defs>
<filter id="filter0_dd_207_574" x="0" y="0" width="400" height="578" filterUnits="userSpaceOnUse" color-interpolation-filters="sRGB">
<feFlood flood-opacity="0" result="BackgroundImageFix"/>
<feColorMatrix in="SourceAlpha" type="matrix" values="0 0 0 0 0 0 0 0 0 0 0 0 0 0 0 0 0 0 127 0" result="hardAlpha"/>
<feOffset dy="4"/>
<feGaussianBlur stdDeviation="4"/>
<feComposite in2="hardAlpha" operator="out"/>
<feColorMatrix type="matrix" values="0 0 0 0 0 0 0 0 0 0 0 0 0 0 0 0 0 0 0.05 0"/>
<feBlend mode="normal" in2="BackgroundImageFix" result="effect1_dropShadow_207_574"/>
<feColorMatrix in="SourceAlpha" type="matrix" values="0 0 0 0 0 0 0 0 0 0 0 0 0 0 0 0 0 0 127 0" result="hardAlpha"/>
<feOffset dy="2"/>
<feGaussianBlur stdDeviation="2"/>
<feComposite in2="hardAlpha" operator="out"/>
<feColorMatrix type="matrix" values="0 0 0 0 0 0 0 0 0 0 0 0 0 0 0 0 0 0 0.04 0"/>
<feBlend mode="normal" in2="effect1_dropShadow_207_574" result="effect2_dropShadow_207_574"/>
<feBlend mode="normal" in="SourceGraphic" in2="effect2_dropShadow_207_574" result="shape"/>
</filter>
</defs>
</svg>
