<svg width="808" height="433" viewBox="0 0 808 433" fill="none" xmlns="http://www.w3.org/2000/svg">
<g filter="url(#filter0_dd_212_637)">
<rect x="8" y="4" width="792" height="417" rx="20" fill="white"/>
<line x1="109" y1="308" x2="747" y2="308" stroke="#F3F3F3" stroke-width="2" stroke-dasharray="4 4"/>
<line x1="109" y1="260" x2="747" y2="260" stroke="#F3F3F3" stroke-width="2" stroke-dasharray="4 4"/>
<line x1="109" y1="213" x2="747" y2="213" stroke="#F3F3F3" stroke-width="2" stroke-dasharray="4 4"/>
<line x1="109" y1="164" x2="747" y2="164" stroke="#F3F3F3" stroke-width="2" stroke-dasharray="4 4"/>
<line x1="109" y1="116" x2="747" y2="116" stroke="#F3F3F3" stroke-width="2" stroke-dasharray="4 4"/>
<path d="M74.0752 306.23V307.748C74.0752 308.564 74.0023 309.252 73.8564 309.812C73.7106 310.373 73.501 310.824 73.2275 311.166C72.9541 311.508 72.6237 311.756 72.2363 311.911C71.8535 312.062 71.4206 312.137 70.9375 312.137C70.5547 312.137 70.2015 312.089 69.8779 311.993C69.5544 311.897 69.2627 311.745 69.0029 311.535C68.7477 311.321 68.529 311.043 68.3467 310.701C68.1644 310.359 68.0254 309.945 67.9297 309.457C67.834 308.969 67.7861 308.4 67.7861 307.748V306.23C67.7861 305.415 67.859 304.731 68.0049 304.18C68.1553 303.628 68.3672 303.186 68.6406 302.854C68.9141 302.516 69.2422 302.275 69.625 302.129C70.0124 301.983 70.4453 301.91 70.9238 301.91C71.3112 301.91 71.6667 301.958 71.9902 302.054C72.3184 302.145 72.61 302.293 72.8652 302.498C73.1204 302.699 73.3369 302.967 73.5146 303.305C73.6969 303.637 73.8359 304.045 73.9316 304.528C74.0273 305.011 74.0752 305.579 74.0752 306.23ZM72.8037 307.953V306.019C72.8037 305.572 72.7764 305.18 72.7217 304.843C72.6715 304.501 72.5964 304.209 72.4961 303.968C72.3958 303.726 72.2682 303.53 72.1133 303.38C71.9629 303.229 71.7874 303.12 71.5869 303.052C71.391 302.979 71.1699 302.942 70.9238 302.942C70.623 302.942 70.3564 302.999 70.124 303.113C69.8916 303.223 69.6956 303.398 69.5361 303.64C69.3812 303.881 69.2627 304.198 69.1807 304.59C69.0986 304.982 69.0576 305.458 69.0576 306.019V307.953C69.0576 308.4 69.0827 308.794 69.1328 309.136C69.1875 309.478 69.2673 309.774 69.3721 310.024C69.4769 310.271 69.6045 310.473 69.7549 310.633C69.9053 310.792 70.0785 310.911 70.2744 310.988C70.4749 311.061 70.696 311.098 70.9375 311.098C71.2474 311.098 71.5186 311.038 71.751 310.92C71.9834 310.801 72.1771 310.617 72.332 310.366C72.4915 310.111 72.61 309.785 72.6875 309.389C72.765 308.988 72.8037 308.509 72.8037 307.953Z" fill="#A7A7A7"/>
<path d="M63.3486 262.961V264H56.834V263.091L60.0947 259.461C60.4958 259.014 60.8057 258.636 61.0244 258.326C61.2477 258.012 61.4027 257.731 61.4893 257.485C61.5804 257.235 61.626 256.979 61.626 256.72C61.626 256.392 61.5576 256.095 61.4209 255.831C61.2887 255.562 61.0928 255.348 60.833 255.188C60.5732 255.029 60.2588 254.949 59.8896 254.949C59.4476 254.949 59.0785 255.036 58.7822 255.209C58.4906 255.378 58.2718 255.615 58.126 255.92C57.9801 256.225 57.9072 256.576 57.9072 256.973H56.6426C56.6426 256.412 56.7656 255.899 57.0117 255.435C57.2578 254.97 57.6224 254.601 58.1055 254.327C58.5885 254.049 59.1833 253.91 59.8896 253.91C60.5186 253.91 61.0563 254.022 61.5029 254.245C61.9495 254.464 62.2913 254.774 62.5283 255.175C62.7699 255.571 62.8906 256.036 62.8906 256.569C62.8906 256.861 62.8405 257.157 62.7402 257.458C62.6445 257.754 62.5101 258.05 62.3369 258.347C62.1683 258.643 61.9701 258.935 61.7422 259.222C61.5189 259.509 61.2796 259.791 61.0244 260.069L58.3584 262.961H63.3486ZM71.2002 258.23V259.748C71.2002 260.564 71.1273 261.252 70.9814 261.812C70.8356 262.373 70.626 262.824 70.3525 263.166C70.0791 263.508 69.7487 263.756 69.3613 263.911C68.9785 264.062 68.5456 264.137 68.0625 264.137C67.6797 264.137 67.3265 264.089 67.0029 263.993C66.6794 263.897 66.3877 263.745 66.1279 263.535C65.8727 263.321 65.654 263.043 65.4717 262.701C65.2894 262.359 65.1504 261.945 65.0547 261.457C64.959 260.969 64.9111 260.4 64.9111 259.748V258.23C64.9111 257.415 64.984 256.731 65.1299 256.18C65.2803 255.628 65.4922 255.186 65.7656 254.854C66.0391 254.516 66.3672 254.275 66.75 254.129C67.1374 253.983 67.5703 253.91 68.0488 253.91C68.4362 253.91 68.7917 253.958 69.1152 254.054C69.4434 254.145 69.735 254.293 69.9902 254.498C70.2454 254.699 70.4619 254.967 70.6396 255.305C70.8219 255.637 70.9609 256.045 71.0566 256.528C71.1523 257.011 71.2002 257.579 71.2002 258.23ZM69.9287 259.953V258.019C69.9287 257.572 69.9014 257.18 69.8467 256.843C69.7965 256.501 69.7214 256.209 69.6211 255.968C69.5208 255.726 69.3932 255.53 69.2383 255.38C69.0879 255.229 68.9124 255.12 68.7119 255.052C68.516 254.979 68.2949 254.942 68.0488 254.942C67.748 254.942 67.4814 254.999 67.249 255.113C67.0166 255.223 66.8206 255.398 66.6611 255.64C66.5062 255.881 66.3877 256.198 66.3057 256.59C66.2236 256.982 66.1826 257.458 66.1826 258.019V259.953C66.1826 260.4 66.2077 260.794 66.2578 261.136C66.3125 261.478 66.3923 261.774 66.4971 262.024C66.6019 262.271 66.7295 262.473 66.8799 262.633C67.0303 262.792 67.2035 262.911 67.3994 262.988C67.5999 263.061 67.821 263.098 68.0625 263.098C68.3724 263.098 68.6436 263.038 68.876 262.92C69.1084 262.801 69.3021 262.617 69.457 262.366C69.6165 262.111 69.735 261.785 69.8125 261.389C69.89 260.988 69.9287 260.509 69.9287 259.953Z" fill="#A7A7A7"/>
<path d="M63.5537 210.65V211.689H56.3623V210.944L60.8193 204.047H61.8516L60.7441 206.043L57.7979 210.65H63.5537ZM62.166 204.047V214H60.9014V204.047H62.166ZM71.2002 208.23V209.748C71.2002 210.564 71.1273 211.252 70.9814 211.812C70.8356 212.373 70.626 212.824 70.3525 213.166C70.0791 213.508 69.7487 213.756 69.3613 213.911C68.9785 214.062 68.5456 214.137 68.0625 214.137C67.6797 214.137 67.3265 214.089 67.0029 213.993C66.6794 213.897 66.3877 213.745 66.1279 213.535C65.8727 213.321 65.654 213.043 65.4717 212.701C65.2894 212.359 65.1504 211.945 65.0547 211.457C64.959 210.969 64.9111 210.4 64.9111 209.748V208.23C64.9111 207.415 64.984 206.731 65.1299 206.18C65.2803 205.628 65.4922 205.186 65.7656 204.854C66.0391 204.516 66.3672 204.275 66.75 204.129C67.1374 203.983 67.5703 203.91 68.0488 203.91C68.4362 203.91 68.7917 203.958 69.1152 204.054C69.4434 204.145 69.735 204.293 69.9902 204.498C70.2454 204.699 70.4619 204.967 70.6396 205.305C70.8219 205.637 70.9609 206.045 71.0566 206.528C71.1523 207.011 71.2002 207.579 71.2002 208.23ZM69.9287 209.953V208.019C69.9287 207.572 69.9014 207.18 69.8467 206.843C69.7965 206.501 69.7214 206.209 69.6211 205.968C69.5208 205.726 69.3932 205.53 69.2383 205.38C69.0879 205.229 68.9124 205.12 68.7119 205.052C68.516 204.979 68.2949 204.942 68.0488 204.942C67.748 204.942 67.4814 204.999 67.249 205.113C67.0166 205.223 66.8206 205.398 66.6611 205.64C66.5062 205.881 66.3877 206.198 66.3057 206.59C66.2236 206.982 66.1826 207.458 66.1826 208.019V209.953C66.1826 210.4 66.2077 210.794 66.2578 211.136C66.3125 211.478 66.3923 211.774 66.4971 212.024C66.6019 212.271 66.7295 212.473 66.8799 212.633C67.0303 212.792 67.2035 212.911 67.3994 212.988C67.5999 213.061 67.821 213.098 68.0625 213.098C68.3724 213.098 68.6436 213.038 68.876 212.92C69.1084 212.801 69.3021 212.617 69.457 212.366C69.6165 212.111 69.735 211.785 69.8125 211.389C69.89 210.988 69.9287 210.509 69.9287 209.953Z" fill="#A7A7A7"/>
<path d="M58.4268 162.263L57.415 162.003L57.9141 157.047H63.0205V158.216H58.9873L58.6865 160.923C58.8688 160.818 59.099 160.72 59.377 160.629C59.6595 160.538 59.9831 160.492 60.3477 160.492C60.8079 160.492 61.2204 160.572 61.585 160.731C61.9495 160.886 62.2594 161.11 62.5146 161.401C62.7744 161.693 62.9727 162.044 63.1094 162.454C63.2461 162.864 63.3145 163.322 63.3145 163.828C63.3145 164.307 63.2484 164.746 63.1162 165.147C62.9886 165.549 62.7949 165.899 62.5352 166.2C62.2754 166.496 61.9473 166.727 61.5508 166.891C61.1589 167.055 60.6963 167.137 60.1631 167.137C59.762 167.137 59.3815 167.082 59.0215 166.973C58.666 166.859 58.347 166.688 58.0645 166.46C57.7865 166.228 57.5586 165.94 57.3809 165.599C57.2077 165.252 57.0983 164.847 57.0527 164.382H58.2559C58.3105 164.756 58.4199 165.07 58.584 165.325C58.748 165.58 58.9622 165.774 59.2266 165.906C59.4954 166.034 59.8076 166.098 60.1631 166.098C60.4639 166.098 60.7305 166.045 60.9629 165.94C61.1953 165.836 61.3913 165.685 61.5508 165.489C61.7103 165.293 61.8311 165.056 61.9131 164.778C61.9997 164.5 62.043 164.188 62.043 163.842C62.043 163.527 61.9997 163.236 61.9131 162.967C61.8265 162.698 61.6966 162.463 61.5234 162.263C61.3548 162.062 61.1475 161.907 60.9014 161.798C60.6553 161.684 60.3727 161.627 60.0537 161.627C59.6299 161.627 59.3086 161.684 59.0898 161.798C58.8757 161.912 58.6546 162.067 58.4268 162.263ZM71.2002 161.23V162.748C71.2002 163.564 71.1273 164.252 70.9814 164.812C70.8356 165.373 70.626 165.824 70.3525 166.166C70.0791 166.508 69.7487 166.756 69.3613 166.911C68.9785 167.062 68.5456 167.137 68.0625 167.137C67.6797 167.137 67.3265 167.089 67.0029 166.993C66.6794 166.897 66.3877 166.745 66.1279 166.535C65.8727 166.321 65.654 166.043 65.4717 165.701C65.2894 165.359 65.1504 164.945 65.0547 164.457C64.959 163.969 64.9111 163.4 64.9111 162.748V161.23C64.9111 160.415 64.984 159.731 65.1299 159.18C65.2803 158.628 65.4922 158.186 65.7656 157.854C66.0391 157.516 66.3672 157.275 66.75 157.129C67.1374 156.983 67.5703 156.91 68.0488 156.91C68.4362 156.91 68.7917 156.958 69.1152 157.054C69.4434 157.145 69.735 157.293 69.9902 157.498C70.2454 157.699 70.4619 157.967 70.6396 158.305C70.8219 158.637 70.9609 159.045 71.0566 159.528C71.1523 160.011 71.2002 160.579 71.2002 161.23ZM69.9287 162.953V161.019C69.9287 160.572 69.9014 160.18 69.8467 159.843C69.7965 159.501 69.7214 159.209 69.6211 158.968C69.5208 158.726 69.3932 158.53 69.2383 158.38C69.0879 158.229 68.9124 158.12 68.7119 158.052C68.516 157.979 68.2949 157.942 68.0488 157.942C67.748 157.942 67.4814 157.999 67.249 158.113C67.0166 158.223 66.8206 158.398 66.6611 158.64C66.5062 158.881 66.3877 159.198 66.3057 159.59C66.2236 159.982 66.1826 160.458 66.1826 161.019V162.953C66.1826 163.4 66.2077 163.794 66.2578 164.136C66.3125 164.478 66.3923 164.774 66.4971 165.024C66.6019 165.271 66.7295 165.473 66.8799 165.633C67.0303 165.792 67.2035 165.911 67.3994 165.988C67.5999 166.061 67.821 166.098 68.0625 166.098C68.3724 166.098 68.6436 166.038 68.876 165.92C69.1084 165.801 69.3021 165.617 69.457 165.366C69.6165 165.111 69.735 164.785 69.8125 164.389C69.89 163.988 69.9287 163.509 69.9287 162.953Z" fill="#A7A7A7"/>
<path d="M49.9834 108.992V119H48.7188V110.571L46.1689 111.501V110.359L49.7852 108.992H49.9834ZM60.2002 113.23V114.748C60.2002 115.564 60.1273 116.252 59.9814 116.812C59.8356 117.373 59.626 117.824 59.3525 118.166C59.0791 118.508 58.7487 118.756 58.3613 118.911C57.9785 119.062 57.5456 119.137 57.0625 119.137C56.6797 119.137 56.3265 119.089 56.0029 118.993C55.6794 118.897 55.3877 118.745 55.1279 118.535C54.8727 118.321 54.654 118.043 54.4717 117.701C54.2894 117.359 54.1504 116.945 54.0547 116.457C53.959 115.969 53.9111 115.4 53.9111 114.748V113.23C53.9111 112.415 53.984 111.731 54.1299 111.18C54.2803 110.628 54.4922 110.186 54.7656 109.854C55.0391 109.516 55.3672 109.275 55.75 109.129C56.1374 108.983 56.5703 108.91 57.0488 108.91C57.4362 108.91 57.7917 108.958 58.1152 109.054C58.4434 109.145 58.735 109.293 58.9902 109.498C59.2454 109.699 59.4619 109.967 59.6396 110.305C59.8219 110.637 59.9609 111.045 60.0566 111.528C60.1523 112.011 60.2002 112.579 60.2002 113.23ZM58.9287 114.953V113.019C58.9287 112.572 58.9014 112.18 58.8467 111.843C58.7965 111.501 58.7214 111.209 58.6211 110.968C58.5208 110.726 58.3932 110.53 58.2383 110.38C58.0879 110.229 57.9124 110.12 57.7119 110.052C57.516 109.979 57.2949 109.942 57.0488 109.942C56.748 109.942 56.4814 109.999 56.249 110.113C56.0166 110.223 55.8206 110.398 55.6611 110.64C55.5062 110.881 55.3877 111.198 55.3057 111.59C55.2236 111.982 55.1826 112.458 55.1826 113.019V114.953C55.1826 115.4 55.2077 115.794 55.2578 116.136C55.3125 116.478 55.3923 116.774 55.4971 117.024C55.6019 117.271 55.7295 117.473 55.8799 117.633C56.0303 117.792 56.2035 117.911 56.3994 117.988C56.5999 118.061 56.821 118.098 57.0625 118.098C57.3724 118.098 57.6436 118.038 57.876 117.92C58.1084 117.801 58.3021 117.617 58.457 117.366C58.6165 117.111 58.735 116.785 58.8125 116.389C58.89 115.988 58.9287 115.509 58.9287 114.953ZM68.3252 113.23V114.748C68.3252 115.564 68.2523 116.252 68.1064 116.812C67.9606 117.373 67.751 117.824 67.4775 118.166C67.2041 118.508 66.8737 118.756 66.4863 118.911C66.1035 119.062 65.6706 119.137 65.1875 119.137C64.8047 119.137 64.4515 119.089 64.1279 118.993C63.8044 118.897 63.5127 118.745 63.2529 118.535C62.9977 118.321 62.779 118.043 62.5967 117.701C62.4144 117.359 62.2754 116.945 62.1797 116.457C62.084 115.969 62.0361 115.4 62.0361 114.748V113.23C62.0361 112.415 62.109 111.731 62.2549 111.18C62.4053 110.628 62.6172 110.186 62.8906 109.854C63.1641 109.516 63.4922 109.275 63.875 109.129C64.2624 108.983 64.6953 108.91 65.1738 108.91C65.5612 108.91 65.9167 108.958 66.2402 109.054C66.5684 109.145 66.86 109.293 67.1152 109.498C67.3704 109.699 67.5869 109.967 67.7646 110.305C67.9469 110.637 68.0859 111.045 68.1816 111.528C68.2773 112.011 68.3252 112.579 68.3252 113.23ZM67.0537 114.953V113.019C67.0537 112.572 67.0264 112.18 66.9717 111.843C66.9215 111.501 66.8464 111.209 66.7461 110.968C66.6458 110.726 66.5182 110.53 66.3633 110.38C66.2129 110.229 66.0374 110.12 65.8369 110.052C65.641 109.979 65.4199 109.942 65.1738 109.942C64.873 109.942 64.6064 109.999 64.374 110.113C64.1416 110.223 63.9456 110.398 63.7861 110.64C63.6312 110.881 63.5127 111.198 63.4307 111.59C63.3486 111.982 63.3076 112.458 63.3076 113.019V114.953C63.3076 115.4 63.3327 115.794 63.3828 116.136C63.4375 116.478 63.5173 116.774 63.6221 117.024C63.7269 117.271 63.8545 117.473 64.0049 117.633C64.1553 117.792 64.3285 117.911 64.5244 117.988C64.7249 118.061 64.946 118.098 65.1875 118.098C65.4974 118.098 65.7686 118.038 66.001 117.92C66.2334 117.801 66.4271 117.617 66.582 117.366C66.7415 117.111 66.86 116.785 66.9375 116.389C67.015 115.988 67.0537 115.509 67.0537 114.953Z" fill="#A7A7A7"/>
<path d="M8 24C8 12.9543 16.9543 4 28 4H780C791.046 4 800 12.9543 800 24V50H8V24Z" fill="#F9F9FB"/>
<path d="M48.368 26.456V27.736H50.976V28.168H53.088V19.64H50.976V26.456H48.368ZM45.376 21.24C46.432 21.24 47.088 21.512 47.088 22.072C47.088 22.616 46.432 22.888 45.376 22.888C44.32 22.888 43.648 22.616 43.648 22.072C43.648 21.512 44.32 21.24 45.376 21.24ZM45.376 24.248C47.568 24.248 49.056 23.4 49.056 22.072C49.056 20.712 47.568 19.864 45.376 19.864C43.168 19.864 41.696 20.712 41.696 22.072C41.696 23.4 43.168 24.248 45.376 24.248ZM44.256 28.184H46.368V26.152C47.664 26.088 48.96 25.976 50.24 25.8L50.112 24.504C47.024 24.824 43.52 24.824 40.704 24.824L40.912 26.264C41.952 26.264 43.088 26.264 44.256 26.248V28.184ZM44.896 32.824V32.072H53.088V28.616H42.8V30.04H51.008V30.744H42.816V34.264H53.424V32.824H44.896ZM56.0847 20.744V22.424H60.8847C60.5487 24.488 58.7247 26.2 55.4447 27.096L56.3247 28.776C60.7087 27.512 63.1728 24.744 63.1728 20.744H56.0847ZM59.7487 29.128H57.6367V34.12H67.6528V32.44H59.7487V29.128ZM67.1407 23.752V19.64H65.0288V30.184H67.1407V25.48H69.1088V23.752H67.1407ZM86.3679 24.856H78.3999V22.104H86.2079V20.424H76.2399V26.536H86.3679V24.856ZM87.9039 27.976H74.5439V29.688H80.1279V34.36H82.2399V29.688H87.9039V27.976ZM94.8366 25.096H91.9406V23.624H94.8366V25.096ZM96.9166 20.28H94.8366V22.04H91.9406V20.28H89.8606V26.744H96.9166V20.28ZM93.4126 31.704H101.029V27.704H91.3006V29.304H98.9486V30.2H91.3166V34.264H101.461V32.632H93.4126V31.704ZM101.029 22.488V19.64H98.9166V27.128H101.029V24.2H102.965V22.488H101.029ZM120.656 19.656H118.544V28.008H120.656V19.656ZM114.256 25.112H111.248V22.184H114.256V25.112ZM116.32 20.52H109.168V26.76H116.32V20.52ZM120.896 30.36V28.792H116.784V27.592H114.64V28.792H110.512V30.36H114.592C114.368 31.384 112.896 32.504 109.952 32.76L110.608 34.328C113.088 34.12 114.816 33.256 115.712 32.12C116.608 33.24 118.32 34.12 120.768 34.328L121.44 32.76C118.528 32.52 117.056 31.336 116.832 30.36H120.896ZM128.907 31.288H137.035V34.392H139.147V29.608H128.907V31.288ZM131.227 22.904H136.971V24.056H131.227V22.904ZM135.131 26.92V25.704H139.067V20.024H136.971V21.32H131.227V20.024H129.131V25.704H133.019V26.92H127.435V28.6H140.763V26.92H135.131ZM151.088 26.328C148.768 25.64 147.76 23.992 147.728 22.312H150.608V20.616H142.64V22.312H145.568C145.536 24.152 144.48 26.024 142.096 26.824L143.152 28.472C144.88 27.912 146.048 26.744 146.704 25.288C147.344 26.504 148.464 27.48 150.08 27.96L151.088 26.328ZM149.088 32.76C147.2 32.76 146.192 32.36 146.192 31.528C146.192 30.68 147.2 30.28 149.088 30.28C150.96 30.28 151.968 30.68 151.968 31.528C151.968 32.36 150.96 32.76 149.088 32.76ZM149.088 28.648C146.016 28.648 144.096 29.72 144.096 31.528C144.096 33.32 146.016 34.376 149.088 34.376C152.144 34.376 154.064 33.32 154.064 31.528C154.064 29.72 152.144 28.648 149.088 28.648ZM153.904 23.032V19.64H151.792V28.392H153.904V24.76H155.856V23.032H153.904ZM163.483 24.024C163.483 22.888 164.299 22.216 165.419 22.216C166.523 22.216 167.355 22.888 167.355 24.024C167.355 25.144 166.523 25.816 165.419 25.816C164.299 25.816 163.483 25.144 163.483 24.024ZM169.403 24.024C169.403 21.928 167.675 20.44 165.419 20.44C163.147 20.44 161.419 21.928 161.419 24.024C161.419 26.088 163.147 27.592 165.419 27.592C167.675 27.592 169.403 26.088 169.403 24.024ZM168.091 32.728C166.203 32.728 165.195 32.328 165.195 31.464C165.195 30.616 166.203 30.2 168.091 30.2C169.963 30.2 170.971 30.616 170.971 31.464C170.971 32.328 169.963 32.728 168.091 32.728ZM168.091 28.552C165.035 28.552 163.099 29.64 163.099 31.464C163.099 33.304 165.035 34.376 168.091 34.376C171.131 34.376 173.067 33.304 173.067 31.464C173.067 29.64 171.131 28.552 168.091 28.552ZM174.795 23.176V21.448H172.907V19.64H170.795V28.232H172.907V26.376H174.795V24.648H172.907V23.176H174.795ZM188.912 21.48H183.872V19.784H181.76V21.48H176.752V23.16H188.912V21.48ZM179.984 26.664C179.984 25.832 180.976 25.416 182.8 25.416C184.656 25.416 185.648 25.832 185.648 26.664C185.648 27.512 184.656 27.896 182.8 27.896C180.976 27.896 179.984 27.512 179.984 26.664ZM183.872 31.192V29.496C186.32 29.256 187.808 28.248 187.808 26.664C187.808 24.856 185.888 23.784 182.8 23.784C179.744 23.784 177.808 24.856 177.808 26.664C177.808 28.248 179.312 29.272 181.76 29.496V31.192H176.176V32.904H189.536V31.192H183.872ZM203.284 19.64H201.156V30.472H203.284V19.64ZM196.868 26.504H193.876V24.408H196.868V26.504ZM198.948 20.696H196.868V22.792H193.876V20.696H191.78V28.184H198.948V20.696ZM195.556 32.44V29.416H193.428V34.12H203.62V32.44H195.556ZM213.625 30.984V27.912H217.833V26.216H209.593V22.344H217.721V20.648H207.465V27.912H211.513V30.984H205.913V32.712H219.257V30.984H213.625Z" fill="#78798D"/>
</g>
<defs>
<filter id="filter0_dd_212_637" x="0" y="0" width="808" height="433" filterUnits="userSpaceOnUse" color-interpolation-filters="sRGB">
<feFlood flood-opacity="0" result="BackgroundImageFix"/>
<feColorMatrix in="SourceAlpha" type="matrix" values="0 0 0 0 0 0 0 0 0 0 0 0 0 0 0 0 0 0 127 0" result="hardAlpha"/>
<feOffset dy="4"/>
<feGaussianBlur stdDeviation="4"/>
<feComposite in2="hardAlpha" operator="out"/>
<feColorMatrix type="matrix" values="0 0 0 0 0 0 0 0 0 0 0 0 0 0 0 0 0 0 0.05 0"/>
<feBlend mode="normal" in2="BackgroundImageFix" result="effect1_dropShadow_212_637"/>
<feColorMatrix in="SourceAlpha" type="matrix" values="0 0 0 0 0 0 0 0 0 0 0 0 0 0 0 0 0 0 127 0" result="hardAlpha"/>
<feOffset dy="2"/>
<feGaussianBlur stdDeviation="2"/>
<feComposite in2="hardAlpha" operator="out"/>
<feColorMatrix type="matrix" values="0 0 0 0 0 0 0 0 0 0 0 0 0 0 0 0 0 0 0.04 0"/>
<feBlend mode="normal" in2="effect1_dropShadow_212_637" result="effect2_dropShadow_212_637"/>
<feBlend mode="normal" in="SourceGraphic" in2="effect2_dropShadow_212_637" result="shape"/>
</filter>
</defs>
</svg>
