<svg width="65" height="93" viewBox="0 0 65 93" fill="none" xmlns="http://www.w3.org/2000/svg">
<g filter="url(#filter0_i_10_2)">
<path d="M32.5595 8.5416C32.6345 5.82003 34.0805 3.20282 36.6067 1.74428C40.4002 -0.44584 45.2474 0.777309 47.5475 4.50504L62.7806 29.1929C65.3784 33.4031 63.9651 38.9285 59.6647 41.3742C55.4463 43.7732 50.0811 42.2744 47.7168 38.0364L46.6762 36.1711C46.153 38.6073 44.6349 40.8226 42.2902 42.1569C40.4266 43.2174 38.3474 43.5455 36.3842 43.234L36.5076 43.4479C37.8297 45.7379 37.9694 48.3905 37.1104 50.693L64.0993 89.3123C60.9743 91.1873 52.6305 94.7498 40.8805 91.6873C30.0368 88.1873 24.6617 81.9998 20.9118 75.6248L1.30469 42.1595C-1.06432 38.1035 0.317512 32.8945 4.38538 30.5459C5.89735 29.6729 7.56653 29.3188 9.18665 29.4284L7.66468 26.6965C5.45728 22.7344 6.83826 17.7341 10.7661 15.4664C12.5355 14.4448 14.5247 14.1486 16.3892 14.4855L16.0802 13.931C13.8391 9.90813 15.2412 4.83122 19.2293 2.52872C23.1744 0.250949 28.2156 1.51987 30.6123 5.394L32.5595 8.5416Z" fill="url(#paint0_radial_10_2)"/>
<path d="M32.5595 8.5416C32.6345 5.82003 34.0805 3.20282 36.6067 1.74428C40.4002 -0.44584 45.2474 0.777309 47.5475 4.50504L62.7806 29.1929C65.3784 33.4031 63.9651 38.9285 59.6647 41.3742C55.4463 43.7732 50.0811 42.2744 47.7168 38.0364L46.6762 36.1711C46.153 38.6073 44.6349 40.8226 42.2902 42.1569C40.4266 43.2174 38.3474 43.5455 36.3842 43.234L36.5076 43.4479C37.8297 45.7379 37.9694 48.3905 37.1104 50.693L64.0993 89.3123C60.9743 91.1873 52.6305 94.7498 40.8805 91.6873C30.0368 88.1873 24.6617 81.9998 20.9118 75.6248L1.30469 42.1595C-1.06432 38.1035 0.317512 32.8945 4.38538 30.5459C5.89735 29.6729 7.56653 29.3188 9.18665 29.4284L7.66468 26.6965C5.45728 22.7344 6.83826 17.7341 10.7661 15.4664C12.5355 14.4448 14.5247 14.1486 16.3892 14.4855L16.0802 13.931C13.8391 9.90813 15.2412 4.83122 19.2293 2.52872C23.1744 0.250949 28.2156 1.51987 30.6123 5.394L32.5595 8.5416Z" fill="url(#paint1_radial_10_2)"/>
</g>
<path d="M10.7657 15.4672C6.83782 17.7349 5.45683 22.7352 7.66423 26.6973L9.1862 29.4292C11.9096 29.6132 14.4944 31.1072 15.9617 33.6487L29.0008 56.2331C30.5408 56.2574 32.1075 55.8646 33.5273 55.0085C37.504 52.6106 38.829 47.4703 36.5071 43.4487L22.1065 18.5059C19.8139 14.5351 14.7365 13.1746 10.7657 15.4672Z" fill="url(#paint2_radial_10_2)"/>
<path d="M10.7657 15.4672C6.83782 17.7349 5.45683 22.7352 7.66423 26.6973L9.1862 29.4292C11.9096 29.6132 14.4944 31.1072 15.9617 33.6487L29.0008 56.2331C30.5408 56.2574 32.1075 55.8646 33.5273 55.0085C37.504 52.6106 38.829 47.4703 36.5071 43.4487L22.1065 18.5059C19.8139 14.5351 14.7365 13.1746 10.7657 15.4672Z" fill="url(#paint3_radial_10_2)"/>
<path d="M19.2297 2.52892C15.2417 4.83142 13.8396 9.90833 16.0806 13.9312L16.3896 14.4857C18.7094 14.9048 20.8364 16.3039 22.1074 18.5053L36.3846 43.2342C38.3479 43.5457 40.4271 43.2176 42.2906 42.1571C46.7612 39.6131 48.2268 33.8664 45.5207 29.4921L30.6127 5.3942C28.216 1.52008 23.1749 0.25115 19.2297 2.52892Z" fill="url(#paint4_radial_10_2)"/>
<path d="M19.2297 2.52892C15.2417 4.83142 13.8396 9.90833 16.0806 13.9312L16.3896 14.4857C18.7094 14.9048 20.8364 16.3039 22.1074 18.5053L36.3846 43.2342C38.3479 43.5457 40.4271 43.2176 42.2906 42.1571C46.7612 39.6131 48.2268 33.8664 45.5207 29.4921L30.6127 5.3942C28.216 1.52008 23.1749 0.25115 19.2297 2.52892Z" fill="url(#paint5_radial_10_2)"/>
<path d="M32.5586 8.5416L45.5193 29.4919C46.8062 31.5719 47.1497 33.9623 46.6753 36.1711L47.7159 38.0364C50.0802 42.2744 55.4454 43.7732 59.6638 41.3742C63.9642 38.9285 65.3776 33.4031 62.7798 29.1929L47.5466 4.50504C45.2466 0.777309 40.3993 -0.44584 36.6058 1.74428C34.0796 3.20282 32.6337 5.82003 32.5586 8.5416Z" fill="url(#paint6_radial_10_2)"/>
<path d="M32.5586 8.5416L45.5193 29.4919C46.8062 31.5719 47.1497 33.9623 46.6753 36.1711L47.7159 38.0364C50.0802 42.2744 55.4454 43.7732 59.6638 41.3742C63.9642 38.9285 65.3776 33.4031 62.7798 29.1929L47.5466 4.50504C45.2466 0.777309 40.3993 -0.44584 36.6058 1.74428C34.0796 3.20282 32.6337 5.82003 32.5586 8.5416Z" fill="url(#paint7_radial_10_2)"/>
<rect x="-2.97266" y="35.0742" width="16.8944" height="58.3015" rx="8.44719" transform="rotate(-31.6469 -2.97266 35.0742)" fill="url(#paint8_radial_10_2)"/>
<g filter="url(#filter1_f_10_2)">
<path d="M12.254 33.7754L22.1322 50.7541" stroke="url(#paint9_linear_10_2)" stroke-width="4" stroke-linecap="round"/>
</g>
<g filter="url(#filter2_f_10_2)">
<path d="M18.3672 19.6797L27.1434 34.4587" stroke="url(#paint10_linear_10_2)" stroke-width="4" stroke-linecap="round"/>
</g>
<g filter="url(#filter3_f_10_2)">
<path d="M26.0879 6.58984L38.1563 26.512" stroke="url(#paint11_linear_10_2)" stroke-width="4" stroke-linecap="round"/>
</g>
<defs>
<filter id="filter0_i_10_2" x="0.146484" y="-0.341797" width="64.5526" height="93.2261" filterUnits="userSpaceOnUse" color-interpolation-filters="sRGB">
<feFlood flood-opacity="0" result="BackgroundImageFix"/>
<feBlend mode="normal" in="SourceGraphic" in2="BackgroundImageFix" result="shape"/>
<feColorMatrix in="SourceAlpha" type="matrix" values="0 0 0 0 0 0 0 0 0 0 0 0 0 0 0 0 0 0 127 0" result="hardAlpha"/>
<feOffset dx="0.6" dy="-1"/>
<feGaussianBlur stdDeviation="1"/>
<feComposite in2="hardAlpha" operator="arithmetic" k2="-1" k3="1"/>
<feColorMatrix type="matrix" values="0 0 0 0 0.819608 0 0 0 0 0.6 0 0 0 0 0.552941 0 0 0 1 0"/>
<feBlend mode="normal" in2="shape" result="effect1_innerShadow_10_2"/>
</filter>
<filter id="filter1_f_10_2" x="7.25342" y="28.7749" width="19.8794" height="26.9795" filterUnits="userSpaceOnUse" color-interpolation-filters="sRGB">
<feFlood flood-opacity="0" result="BackgroundImageFix"/>
<feBlend mode="normal" in="SourceGraphic" in2="BackgroundImageFix" result="shape"/>
<feGaussianBlur stdDeviation="1.5" result="effect1_foregroundBlur_10_2"/>
</filter>
<filter id="filter2_f_10_2" x="13.3667" y="14.6792" width="18.7769" height="24.7798" filterUnits="userSpaceOnUse" color-interpolation-filters="sRGB">
<feFlood flood-opacity="0" result="BackgroundImageFix"/>
<feBlend mode="normal" in="SourceGraphic" in2="BackgroundImageFix" result="shape"/>
<feGaussianBlur stdDeviation="1.5" result="effect1_foregroundBlur_10_2"/>
</filter>
<filter id="filter3_f_10_2" x="21.0874" y="1.58936" width="22.0693" height="29.9229" filterUnits="userSpaceOnUse" color-interpolation-filters="sRGB">
<feFlood flood-opacity="0" result="BackgroundImageFix"/>
<feBlend mode="normal" in="SourceGraphic" in2="BackgroundImageFix" result="shape"/>
<feGaussianBlur stdDeviation="1.5" result="effect1_foregroundBlur_10_2"/>
</filter>
<radialGradient id="paint0_radial_10_2" cx="0" cy="0" r="1" gradientUnits="userSpaceOnUse" gradientTransform="translate(45.2186 83.7846) rotate(-93.8883) scale(86.4263 59.9312)">
<stop stop-color="#B17883"/>
<stop offset="1" stop-color="#CF9A84"/>
</radialGradient>
<radialGradient id="paint1_radial_10_2" cx="0" cy="0" r="1" gradientUnits="userSpaceOnUse" gradientTransform="translate(54.8134 71.1626) rotate(-141.582) scale(39.2527 20.2691)">
<stop stop-color="#B0736C"/>
<stop offset="1" stop-color="#B0736C" stop-opacity="0"/>
</radialGradient>
<radialGradient id="paint2_radial_10_2" cx="0" cy="0" r="1" gradientUnits="userSpaceOnUse" gradientTransform="translate(16.9614 39.6698) rotate(58.0919) scale(18.4627 7.17335)">
<stop stop-color="#B87C69"/>
<stop offset="1" stop-color="#B87C69" stop-opacity="0"/>
</radialGradient>
<radialGradient id="paint3_radial_10_2" cx="0" cy="0" r="1" gradientUnits="userSpaceOnUse" gradientTransform="translate(16.3712 14.3535) rotate(88.5215) scale(13.1994 16.3303)">
<stop stop-color="#DEB198"/>
<stop offset="1" stop-color="#B48E70" stop-opacity="0"/>
<stop offset="1" stop-color="#DEB198" stop-opacity="0"/>
</radialGradient>
<radialGradient id="paint4_radial_10_2" cx="0" cy="0" r="1" gradientUnits="userSpaceOnUse" gradientTransform="translate(24.0369 25.5795) rotate(58.6713) scale(23.0671 9.05851)">
<stop stop-color="#BC8067"/>
<stop offset="1" stop-color="#BC8067" stop-opacity="0"/>
</radialGradient>
<radialGradient id="paint5_radial_10_2" cx="0" cy="0" r="1" gradientUnits="userSpaceOnUse" gradientTransform="translate(25.0878 1.39844) rotate(92.1622) scale(11.9979 11.9116)">
<stop stop-color="#E6BFA5"/>
<stop offset="1" stop-color="#E6BFA5" stop-opacity="0"/>
</radialGradient>
<radialGradient id="paint6_radial_10_2" cx="0" cy="0" r="1" gradientUnits="userSpaceOnUse" gradientTransform="translate(35.3867 15.299) rotate(56.2463) scale(31.6656 12.3894)">
<stop stop-color="#BA8567"/>
<stop offset="1" stop-color="#BA8567" stop-opacity="0"/>
</radialGradient>
<radialGradient id="paint7_radial_10_2" cx="0" cy="0" r="1" gradientUnits="userSpaceOnUse" gradientTransform="translate(45.667 -5.68988) rotate(106.04) scale(17.8278 17.5492)">
<stop stop-color="#DDB49A"/>
<stop offset="1" stop-color="#DDB49A" stop-opacity="0"/>
</radialGradient>
<radialGradient id="paint8_radial_10_2" cx="0" cy="0" r="1" gradientUnits="userSpaceOnUse" gradientTransform="translate(13.9649 37.2089) rotate(122.177) scale(15.7702 17.1769)">
<stop stop-color="#CE9F87"/>
<stop offset="1" stop-color="#CE9F87" stop-opacity="0"/>
</radialGradient>
<linearGradient id="paint9_linear_10_2" x1="22.6358" y1="51.3295" x2="6.26046" y2="33.5645" gradientUnits="userSpaceOnUse">
<stop stop-color="#D3A48D"/>
<stop offset="1" stop-color="#D3A48D" stop-opacity="0"/>
</linearGradient>
<linearGradient id="paint10_linear_10_2" x1="18.3672" y1="21.0398" x2="41.9411" y2="45.6815" gradientUnits="userSpaceOnUse">
<stop stop-color="#E2B49D"/>
<stop offset="1" stop-color="#E2B49D" stop-opacity="0"/>
</linearGradient>
<linearGradient id="paint11_linear_10_2" x1="29.2334" y1="3.88784" x2="54.5325" y2="31.0017" gradientUnits="userSpaceOnUse">
<stop stop-color="#EEC9B3"/>
<stop offset="1" stop-color="#CDA587" stop-opacity="0"/>
<stop offset="1" stop-color="#F7CBB1" stop-opacity="0"/>
</linearGradient>
</defs>
</svg>