<svg width="81" height="95" viewBox="0 0 81 95" fill="none" xmlns="http://www.w3.org/2000/svg">
<g filter="url(#filter0_ii_10_2)">
<path d="M37.2327 92.0741C40.8217 93.7957 44.8429 94.76 49.0893 94.76C60.1493 94.76 69.6814 88.2185 74.0279 78.7935L74.0999 78.8119C77.9191 70.9725 77.2128 64.3856 76.627 58.9213C76.4842 57.5896 76.3486 56.3246 76.2873 55.1244C76.1023 51.4973 76.1341 45.3405 76.2054 40.705C76.2114 40.6256 76.2163 40.5458 76.2201 40.4658L76.8458 27.4857C77.078 22.6688 73.3614 18.5757 68.5445 18.3435C63.7276 18.1113 59.6345 21.828 59.4024 26.6448L59.3653 27.413L47.9801 5.84211C45.8024 1.71628 40.6836 0.141657 36.5577 2.3193C34.3643 3.47703 32.888 5.4649 32.3136 7.69298L31.2542 5.97408C28.8064 2.00257 23.594 0.772607 19.6225 3.22039C15.651 5.66817 14.4072 10.8773 16.855 14.8488L17.1915 15.3948C15.2632 15.0669 13.2122 15.4115 11.4162 16.5184C7.49214 18.937 6.27167 24.0787 8.69021 28.0028L10.7967 31.4205C8.64148 30.8556 6.26781 31.139 4.22135 32.4003C0.249831 34.848 -0.985404 40.0519 1.46238 44.0234L22.9728 78.924C27.4124 85.9369 33.0862 90.0851 37.2327 92.0741Z" fill="url(#paint0_radial_10_2)"/>
</g>
<path d="M37.2327 92.0741C40.8217 93.7957 44.8429 94.76 49.0893 94.76C60.1493 94.76 69.6814 88.2185 74.0279 78.7935L74.0999 78.8119C77.9191 70.9725 77.2128 64.3856 76.627 58.9213C76.4842 57.5896 76.3486 56.3246 76.2873 55.1244C76.1023 51.4973 76.1341 45.3405 76.2054 40.705C76.2114 40.6256 76.2163 40.5458 76.2201 40.4658L76.8458 27.4857C77.078 22.6688 73.3614 18.5757 68.5445 18.3435C63.7276 18.1113 59.6345 21.828 59.4024 26.6448L59.3653 27.413L47.9801 5.84211C45.8024 1.71628 40.6836 0.141657 36.5577 2.3193C34.3643 3.47703 32.888 5.4649 32.3136 7.69298L31.2542 5.97408C28.8064 2.00257 23.594 0.772607 19.6225 3.22039C15.651 5.66817 14.4072 10.8773 16.855 14.8488L17.1915 15.3948C15.2632 15.0669 13.2122 15.4115 11.4162 16.5184C7.49214 18.937 6.27167 24.0787 8.69021 28.0028L10.7967 31.4205C8.64148 30.8556 6.26781 31.139 4.22135 32.4003C0.249831 34.848 -0.985404 40.0519 1.46238 44.0234L22.9728 78.924C27.4124 85.9369 33.0862 90.0851 37.2327 92.0741Z" fill="url(#paint1_radial_10_2)"/>
<g filter="url(#filter1_f_10_2)">
<path d="M30.7214 72.386L13.0625 42.4521C12.2642 41.0988 12.6452 39.3588 13.9361 38.463L14.8517 37.8277C16.2243 36.8753 18.1105 37.2277 19.0467 38.6114L29.1999 53.6181C30.0358 54.8536 31.7224 55.1635 32.9428 54.3059C34.1082 53.4869 34.4246 51.8969 33.6615 50.6942L18.1153 26.1942C17.2841 24.8843 17.5887 23.1568 18.8176 22.2102L19.5642 21.6351C20.9847 20.5409 23.0414 20.9289 23.9657 22.4654L39.1633 47.7303C39.8908 48.9397 41.473 49.3103 42.6619 48.5498C43.7904 47.8281 44.1519 46.3465 43.4827 45.1861L25.9256 14.7398C25.0589 13.2368 25.6441 11.3141 27.2011 10.5488L28.6811 9.82138C30.093 9.12737 31.8012 9.64203 32.5948 11.0005L50.6023 41.827C51.2398 42.9182 52.6603 43.2547 53.7196 42.5653C54.6888 41.9346 55.0088 40.6639 54.4539 39.6494L42.6349 18.0375C41.8375 16.5794 42.3774 14.7509 43.839 13.9597L44.9402 13.3637C46.3775 12.5857 48.1731 13.1013 48.9786 14.5234L62.6251 38.6147C62.6397 38.1185 62.9274 35.6118 63.3173 34.0036C64.6351 28.5679 66.4146 26.4435 68.3477 26.4435C70.3541 26.4435 72.7141 27.2984 72.0696 33.5965C70.7902 46.0999 71.837 54.765 72.0696 56.3933C72.3023 58.0217 75.8809 75.4419 59.3649 82.7694C46.152 88.6315 34.4045 78.3954 30.7214 72.386Z" fill="url(#paint2_radial_10_2)"/>
</g>
<rect x="-2.9707" y="36.832" width="16.8944" height="58.3015" rx="8.44719" transform="rotate(-31.6469 -2.9707 36.832)" fill="url(#paint3_radial_10_2)"/>
<path d="M11.4156 16.5196C7.49155 18.9382 6.27097 24.0799 8.68954 28.004L10.796 31.4217C12.8233 31.9532 14.6573 33.2354 15.8438 35.1604L35.3919 66.8769C37.511 67.4216 39.8399 67.1374 41.8496 65.8988C45.7738 63.4802 46.9942 58.3385 44.5757 54.4144L22.9 19.2456C20.4814 15.3216 15.3397 14.1011 11.4156 16.5196Z" fill="url(#paint4_radial_10_2)"/>
<path d="M11.4156 16.5196C7.49155 18.9382 6.27097 24.0799 8.68954 28.004L10.796 31.4217C12.8233 31.9532 14.6573 33.2354 15.8438 35.1604L35.3919 66.8769C37.511 67.4216 39.8399 67.1374 41.8496 65.8988C45.7738 63.4802 46.9942 58.3385 44.5757 54.4144L22.9 19.2456C20.4814 15.3216 15.3397 14.1011 11.4156 16.5196Z" fill="url(#paint5_radial_10_2)"/>
<path d="M19.622 3.22166C15.6505 5.66944 14.4068 10.8786 16.8545 14.8501L17.1911 15.3961C19.476 15.7846 21.5885 17.1176 22.9002 19.2457L44.1547 53.7313C46.1234 54.0772 48.2221 53.7311 50.0561 52.6008C54.0276 50.153 55.2714 44.9439 52.8236 40.9723L31.2537 5.97536C28.8059 2.00384 23.5935 0.773879 19.622 3.22166Z" fill="url(#paint6_radial_10_2)"/>
<path d="M19.622 3.22166C15.6505 5.66944 14.4068 10.8786 16.8545 14.8501L17.1911 15.3961C19.476 15.7846 21.5885 17.1176 22.9002 19.2457L44.1547 53.7313C46.1234 54.0772 48.2221 53.7311 50.0561 52.6008C54.0276 50.153 55.2714 44.9439 52.8236 40.9723L31.2537 5.97536C28.8059 2.00384 23.5935 0.773879 19.622 3.22166Z" fill="url(#paint7_radial_10_2)"/>
<path d="M32.3125 7.69306L52.823 40.9711C54.6907 44.0014 54.4092 47.7522 52.4066 50.4472C54.6837 54.3083 59.6259 55.7314 63.632 53.617C67.7578 51.4394 69.3459 46.3247 67.1683 42.1989L47.979 5.84211C45.8013 1.71628 40.6825 0.141658 36.5566 2.3193C34.3632 3.47705 32.8868 5.46495 32.3125 7.69306Z" fill="url(#paint8_radial_10_2)"/>
<path d="M32.3125 7.69306L52.823 40.9711C54.6907 44.0014 54.4092 47.7522 52.4066 50.4472C54.6837 54.3083 59.6259 55.7314 63.632 53.617C67.7578 51.4394 69.3459 46.3247 67.1683 42.1989L47.979 5.84211C45.8013 1.71628 40.6825 0.141658 36.5566 2.3193C34.3632 3.47705 32.8868 5.46495 32.3125 7.69306Z" fill="url(#paint9_radial_10_2)"/>
<path d="M70.3732 48.2931L59.3633 27.4233L59.4008 26.6456C59.6329 21.8287 63.7261 18.1121 68.5428 18.3443C73.3597 18.5765 77.0764 22.6696 76.8442 27.4864L76.2185 40.4666C76.042 44.1285 73.6342 47.1546 70.3732 48.2931Z" fill="url(#paint10_radial_10_2)"/>
<g filter="url(#filter2_f_10_2)">
<path d="M10.9746 39L24.7239 59.5516" stroke="#FFDDC7" stroke-width="5" stroke-linecap="round"/>
</g>
<g filter="url(#filter3_f_10_2)">
<path d="M17.7246 21.375L37.7397 50.8745" stroke="#FFE0C7" stroke-width="5" stroke-linecap="round"/>
</g>
<g filter="url(#filter4_f_10_2)">
<path d="M26.0996 8.58984L48.3451 43.041" stroke="#FFE3C8" stroke-width="5" stroke-linecap="round"/>
</g>
<g filter="url(#filter5_f_10_2)">
<path d="M41.3496 7.5L57.8659 36.292" stroke="#FFE4C9" stroke-width="5" stroke-linecap="round"/>
</g>
<g filter="url(#filter6_f_10_2)">
<path d="M70.0367 25.3477C68.7947 36.2802 69.3618 50.7062 70.0367 60.1546" stroke="url(#paint11_linear_10_2)" stroke-width="5" stroke-linecap="round"/>
</g>
<defs>
<filter id="filter0_ii_10_2" x="0.205078" y="-2.66016" width="80.8872" height="97.4199" filterUnits="userSpaceOnUse" color-interpolation-filters="sRGB">
<feFlood flood-opacity="0" result="BackgroundImageFix"/>
<feBlend mode="normal" in="SourceGraphic" in2="BackgroundImageFix" result="shape"/>
<feColorMatrix in="SourceAlpha" type="matrix" values="0 0 0 0 0 0 0 0 0 0 0 0 0 0 0 0 0 0 127 0" result="hardAlpha"/>
<feOffset dx="4" dy="-4"/>
<feGaussianBlur stdDeviation="4"/>
<feComposite in2="hardAlpha" operator="arithmetic" k2="-1" k3="1"/>
<feColorMatrix type="matrix" values="0 0 0 0 0.796078 0 0 0 0 0.552941 0 0 0 0 0.592157 0 0 0 1 0"/>
<feBlend mode="normal" in2="shape" result="effect1_innerShadow_10_2"/>
<feColorMatrix in="SourceAlpha" type="matrix" values="0 0 0 0 0 0 0 0 0 0 0 0 0 0 0 0 0 0 127 0" result="hardAlpha"/>
<feOffset dx="1" dy="-1.4"/>
<feGaussianBlur stdDeviation="1.2"/>
<feComposite in2="hardAlpha" operator="arithmetic" k2="-1" k3="1"/>
<feColorMatrix type="matrix" values="0 0 0 0 0.827451 0 0 0 0 0.588235 0 0 0 0 0.572549 0 0 0 1 0"/>
<feBlend mode="normal" in2="effect1_innerShadow_10_2" result="effect2_innerShadow_10_2"/>
</filter>
<filter id="filter1_f_10_2" x="4.646" y="1.51318" width="75.9067" height="91.0078" filterUnits="userSpaceOnUse" color-interpolation-filters="sRGB">
<feFlood flood-opacity="0" result="BackgroundImageFix"/>
<feBlend mode="normal" in="SourceGraphic" in2="BackgroundImageFix" result="shape"/>
<feGaussianBlur stdDeviation="4" result="effect1_foregroundBlur_10_2"/>
</filter>
<filter id="filter2_f_10_2" x="3.47412" y="31.4995" width="28.75" height="35.5522" filterUnits="userSpaceOnUse" color-interpolation-filters="sRGB">
<feFlood flood-opacity="0" result="BackgroundImageFix"/>
<feBlend mode="normal" in="SourceGraphic" in2="BackgroundImageFix" result="shape"/>
<feGaussianBlur stdDeviation="2.5" result="effect1_foregroundBlur_10_2"/>
</filter>
<filter id="filter3_f_10_2" x="10.2241" y="13.8745" width="35.0156" height="44.5" filterUnits="userSpaceOnUse" color-interpolation-filters="sRGB">
<feFlood flood-opacity="0" result="BackgroundImageFix"/>
<feBlend mode="normal" in="SourceGraphic" in2="BackgroundImageFix" result="shape"/>
<feGaussianBlur stdDeviation="2.5" result="effect1_foregroundBlur_10_2"/>
</filter>
<filter id="filter4_f_10_2" x="18.5991" y="1.08936" width="37.2461" height="49.4521" filterUnits="userSpaceOnUse" color-interpolation-filters="sRGB">
<feFlood flood-opacity="0" result="BackgroundImageFix"/>
<feBlend mode="normal" in="SourceGraphic" in2="BackgroundImageFix" result="shape"/>
<feGaussianBlur stdDeviation="2.5" result="effect1_foregroundBlur_10_2"/>
</filter>
<filter id="filter5_f_10_2" x="33.8491" y="-0.000488281" width="31.5171" height="43.793" filterUnits="userSpaceOnUse" color-interpolation-filters="sRGB">
<feFlood flood-opacity="0" result="BackgroundImageFix"/>
<feBlend mode="normal" in="SourceGraphic" in2="BackgroundImageFix" result="shape"/>
<feGaussianBlur stdDeviation="2.5" result="effect1_foregroundBlur_10_2"/>
</filter>
<filter id="filter6_f_10_2" x="61.8027" y="17.8477" width="15.7344" height="49.8071" filterUnits="userSpaceOnUse" color-interpolation-filters="sRGB">
<feFlood flood-opacity="0" result="BackgroundImageFix"/>
<feBlend mode="normal" in="SourceGraphic" in2="BackgroundImageFix" result="shape"/>
<feGaussianBlur stdDeviation="2.5" result="effect1_foregroundBlur_10_2"/>
</filter>
<radialGradient id="paint0_radial_10_2" cx="0" cy="0" r="1" gradientUnits="userSpaceOnUse" gradientTransform="translate(38.6486 35.1411) rotate(90) scale(59.6189 49.0678)">
<stop stop-color="#E8B49C"/>
<stop offset="1" stop-color="#E8B0AB"/>
</radialGradient>
<radialGradient id="paint1_radial_10_2" cx="0" cy="0" r="1" gradientUnits="userSpaceOnUse" gradientTransform="translate(87.6674 61.8352) rotate(176.209) scale(24.2915 93.2603)">
<stop stop-color="#FFE1C4"/>
<stop offset="1" stop-color="#FFE1C4" stop-opacity="0"/>
</radialGradient>
<radialGradient id="paint2_radial_10_2" cx="0" cy="0" r="1" gradientUnits="userSpaceOnUse" gradientTransform="translate(56.4013 38.4941) rotate(95.9086) scale(79.1766 85.8669)">
<stop stop-color="#FFE5CA"/>
<stop offset="1" stop-color="#FFE5CA" stop-opacity="0"/>
</radialGradient>
<radialGradient id="paint3_radial_10_2" cx="0" cy="0" r="1" gradientUnits="userSpaceOnUse" gradientTransform="translate(8.3941 35.3119) rotate(102.538) scale(8.88799 10.2758)">
<stop stop-color="#E5B399"/>
<stop offset="1" stop-color="#E5B399" stop-opacity="0"/>
</radialGradient>
<radialGradient id="paint4_radial_10_2" cx="0" cy="0" r="1" gradientUnits="userSpaceOnUse" gradientTransform="translate(11.9246 35.462) rotate(53.5658) scale(27.1967 9.67948)">
<stop stop-color="#E29F7F"/>
<stop offset="1" stop-color="#E29F7F" stop-opacity="0"/>
</radialGradient>
<radialGradient id="paint5_radial_10_2" cx="0" cy="0" r="1" gradientUnits="userSpaceOnUse" gradientTransform="translate(12.5858 10.4656) rotate(71.222) scale(13.9691 22.3519)">
<stop stop-color="#E3B398"/>
<stop offset="1" stop-color="#E3B398" stop-opacity="0"/>
</radialGradient>
<radialGradient id="paint6_radial_10_2" cx="0" cy="0" r="1" gradientUnits="userSpaceOnUse" gradientTransform="translate(17.2044 20.0222) rotate(48.5275) scale(31.9025 11.3616)">
<stop stop-color="#E5A584"/>
<stop offset="1" stop-color="#E5A584" stop-opacity="0"/>
</radialGradient>
<radialGradient id="paint7_radial_10_2" cx="0" cy="0" r="1" gradientUnits="userSpaceOnUse" gradientTransform="translate(25.3779 -0.0260695) rotate(90.6031) scale(14.6515 23.4843)">
<stop stop-color="#FACEB2"/>
<stop offset="1" stop-color="#FACEB2" stop-opacity="0"/>
</radialGradient>
<radialGradient id="paint8_radial_10_2" cx="0" cy="0" r="1" gradientUnits="userSpaceOnUse" gradientTransform="translate(31.3918 14.6233) rotate(49.8328) scale(37.537 13.1491)">
<stop stop-color="#E6A580"/>
<stop offset="1" stop-color="#E6A580" stop-opacity="0"/>
</radialGradient>
<radialGradient id="paint9_radial_10_2" cx="0" cy="0" r="1" gradientUnits="userSpaceOnUse" gradientTransform="translate(42.187 -1.4153) rotate(94.3996) scale(11.4287 16.934)">
<stop stop-color="#FED3B6"/>
<stop offset="1" stop-color="#FED3B6" stop-opacity="0"/>
</radialGradient>
<radialGradient id="paint10_radial_10_2" cx="0" cy="0" r="1" gradientUnits="userSpaceOnUse" gradientTransform="translate(57.6841 33.3136) rotate(-89.0846) scale(24.8353 14.0501)">
<stop offset="0.12411" stop-color="#C88C6B"/>
<stop offset="1" stop-color="#E5A886" stop-opacity="0"/>
</radialGradient>
<linearGradient id="paint11_linear_10_2" x1="69.6697" y1="25.3477" x2="69.6697" y2="60.1546" gradientUnits="userSpaceOnUse">
<stop stop-color="#FFE4C8"/>
<stop offset="1" stop-color="#FFE4C8" stop-opacity="0"/>
</linearGradient>
</defs>
</svg>
