<svg width="400" height="212" viewBox="0 0 400 212" fill="none" xmlns="http://www.w3.org/2000/svg">
<g filter="url(#filter0_dd_207_474)">
<rect x="8" y="4" width="384" height="196" rx="20" fill="white"/>
<rect x="40" y="52" width="56" height="56" rx="8" fill="#9155EB" fill-opacity="0.2"/>
<path d="M68 73.4535L71.2667 75.4402L70.4 71.6935L73.3334 69.1868L69.48 68.8535L68 65.3335L66.4934 68.8535L62.6667 69.1868L65.5734 71.6935L64.6667 75.4402L68 73.4535ZM72 94.6668H64V77.3335H72V94.6668ZM53.3334 86.6668V94.6668H61.3334V86.6668H53.3334ZM58.6667 92.0002H56V89.3335H58.6667V92.0002ZM74.6667 81.3335V94.6668H82.6667V81.3335H74.6667ZM80 92.0002H77.3334V84.0002H80V92.0002Z" fill="#9155EB"/>
<path d="M154.244 60.248C156.948 60.056 158.788 59.304 159.716 58.136C160.628 59.304 162.468 60.056 165.172 60.248L165.796 58.68C162.708 58.488 161.268 57.592 160.948 56.616H165.092V54.968H160.756V53.672H158.644V54.968H154.324V56.616H158.468C158.148 57.592 156.708 58.488 153.62 58.68L154.244 60.248ZM162.66 65.88C162.66 66.536 161.684 66.824 159.684 66.824C157.684 66.824 156.708 66.536 156.708 65.88C156.708 65.208 157.684 64.936 159.684 64.936C161.684 64.936 162.66 65.208 162.66 65.88ZM166.372 62.376V60.728H153.06V62.376H158.644V63.416C156.068 63.608 154.58 64.456 154.58 65.88C154.58 67.496 156.468 68.376 159.684 68.376C162.9 68.376 164.804 67.496 164.804 65.88C164.804 64.456 163.316 63.608 160.756 63.416V62.376H166.372ZM175.849 57.576V59.272H178.137V62.536H180.249V53.64H178.137V57.576H175.849ZM176.777 60.456C174.425 59.832 173.369 58.344 173.337 56.824H176.249V55.16H173.337V53.592H171.225V55.16H168.345V56.824H171.225C171.193 58.472 170.169 60.136 167.833 60.808L168.825 62.44C170.537 61.944 171.689 60.904 172.345 59.56C173.017 60.728 174.169 61.64 175.817 62.072L176.777 60.456ZM175.273 66.76C173.321 66.76 172.329 66.392 172.329 65.592C172.329 64.792 173.321 64.408 175.273 64.408C177.193 64.408 178.201 64.792 178.201 65.592C178.201 66.392 177.193 66.76 175.273 66.76ZM175.273 62.792C172.137 62.792 170.217 63.816 170.217 65.592C170.217 67.352 172.137 68.376 175.273 68.376C178.393 68.376 180.313 67.352 180.313 65.592C180.313 63.816 178.393 62.792 175.273 62.792ZM188.493 56.792H191.533V55.048H183.277V56.792H186.349V57.608C186.349 60.12 185.149 62.824 182.685 63.928L183.885 65.608C185.613 64.824 186.797 63.208 187.453 61.288C188.109 63.064 189.277 64.504 190.989 65.24L192.141 63.576C189.677 62.552 188.493 60.008 188.493 57.608V56.792ZM192.893 53.64V68.376H195.005V53.64H192.893ZM199.954 64.696H207.874V68.392H209.986V63.032H199.954V64.696ZM205.538 58.824C205.586 58.568 205.618 58.312 205.618 58.056C205.618 57.784 205.586 57.544 205.538 57.304H207.874V58.824H205.538ZM201.73 59.912C200.658 59.912 199.858 59.224 199.858 58.056C199.858 56.904 200.658 56.216 201.73 56.216C202.818 56.216 203.618 56.904 203.618 58.056C203.618 59.224 202.818 59.912 201.73 59.912ZM207.874 53.64V55.624H204.69C203.986 54.872 202.93 54.408 201.73 54.408C199.554 54.408 197.858 55.944 197.858 58.056C197.858 60.184 199.554 61.72 201.73 61.72C202.914 61.72 203.97 61.256 204.674 60.504H207.874V62.36H209.986V53.64H207.874ZM226.349 59.048H220.285V57.528H226.349V59.048ZM228.429 54.2H226.349V55.88H220.285V54.2H218.189V60.728H228.429V54.2ZM230.013 62.12H216.669V63.8H222.237V68.392H224.349V63.8H230.013V62.12ZM234.034 57.048H237.41V55.336H231.954V65.064H232.978C234.866 65.064 236.434 65 238.226 64.664L238.066 62.952C236.658 63.208 235.41 63.288 234.034 63.32V57.048ZM242.178 53.624V59.304H240.85V53.912H238.882V67.688H240.85V61H242.178V68.376H244.178V53.624H242.178ZM251.821 59.752C254.605 59.512 256.413 58.472 257.197 57.08C257.981 58.472 259.789 59.512 262.557 59.752L263.293 58.12C260.541 57.88 259.101 56.92 258.733 55.928H262.653V54.248H251.757V55.928H255.661C255.293 56.92 253.853 57.88 251.117 58.12L251.821 59.752ZM260.141 65.72C260.141 66.456 259.133 66.776 257.165 66.776C255.197 66.776 254.189 66.456 254.189 65.72C254.189 64.968 255.197 64.648 257.165 64.648C259.133 64.648 260.141 64.968 260.141 65.72ZM263.853 62.008V60.328H250.541V62.008H256.141V63.08C253.581 63.288 252.061 64.2 252.061 65.72C252.061 67.416 253.981 68.376 257.165 68.376C260.349 68.376 262.285 67.416 262.285 65.72C262.285 64.216 260.781 63.304 258.253 63.096V62.008H263.853ZM272.28 58.12C272.28 56.968 273.144 56.296 274.28 56.296C275.416 56.296 276.28 56.968 276.28 58.12C276.28 59.272 275.416 59.944 274.28 59.944C273.144 59.944 272.28 59.272 272.28 58.12ZM275.336 61.64C277.096 61.256 278.344 59.896 278.344 58.12C278.344 56.008 276.584 54.488 274.28 54.488C271.976 54.488 270.232 56.008 270.232 58.12C270.232 59.896 271.464 61.256 273.224 61.64V63.704C271.928 63.736 270.68 63.736 269.608 63.736L269.88 65.448C272.424 65.448 275.88 65.416 279.048 64.776L278.92 63.256C277.768 63.432 276.536 63.528 275.336 63.608V61.64ZM279.72 53.624V68.408H281.832V53.624H279.72ZM293.293 60.36C291.021 59.592 289.997 57.816 289.965 56.136H292.829V54.456H284.909V56.136H287.805C287.773 57.96 286.701 59.832 284.333 60.632L285.405 62.296C287.117 61.736 288.269 60.552 288.925 59.112C289.549 60.424 290.653 61.48 292.269 62.008L293.293 60.36ZM286.685 64.744H294.621V68.392H296.733V63.064H286.685V64.744ZM294.621 53.656V57.16H292.445V58.856H294.621V62.408H296.733V53.656H294.621ZM302.946 63.368H300.834V68.12H311.282V66.44H302.946V63.368ZM310.77 59.848C311.074 58.152 311.074 56.808 311.074 55.608V54.312H300.93V56.008H308.994C308.994 57.128 308.962 58.312 308.658 59.848H299.282V61.544H305.01V64.664H307.122V61.544H312.626V59.848H310.77ZM314.966 55.16V56.84H319.878C319.574 60.104 317.942 62.408 314.182 64.216L315.286 65.88C320.518 63.352 322.038 59.672 322.038 55.16H314.966ZM324.294 53.624V68.36H326.422V53.624H324.294ZM338.731 55.6016V67H336.481V58.1953L333.778 59.0547V57.2812L338.489 55.6016H338.731ZM354.315 57.688H346.219V55.72H354.235V54.04H344.123V59.352H354.315V57.688ZM349.115 66.776C347.147 66.776 346.139 66.44 346.139 65.672C346.139 64.904 347.147 64.552 349.115 64.552C351.083 64.552 352.091 64.904 352.091 65.672C352.091 66.44 351.083 66.776 349.115 66.776ZM349.115 62.952C345.931 62.952 344.011 63.928 344.011 65.672C344.011 67.4 345.931 68.376 349.115 68.376C352.299 68.376 354.235 67.4 354.235 65.672C354.235 63.928 352.299 62.952 349.115 62.952ZM342.507 60.376V62.104H355.835V60.376H342.507ZM360.086 55.625L359.828 63.5234H357.953L357.688 55.625H360.086ZM357.625 65.9688C357.625 65.6354 357.74 65.3594 357.969 65.1406C358.203 64.9167 358.51 64.8047 358.891 64.8047C359.276 64.8047 359.583 64.9167 359.812 65.1406C360.042 65.3594 360.156 65.6354 360.156 65.9688C360.156 66.2917 360.042 66.5651 359.812 66.7891C359.583 67.013 359.276 67.125 358.891 67.125C358.51 67.125 358.203 67.013 357.969 66.7891C357.74 66.5651 357.625 66.2917 357.625 65.9688Z" fill="#585767"/>
<path d="M171.241 80.478V93.064H172.389V80.478H171.241ZM165.767 81.444C163.905 81.444 162.575 83.152 162.575 85.826C162.575 88.5 163.905 90.208 165.767 90.208C167.629 90.208 168.959 88.5 168.959 85.826C168.959 83.152 167.629 81.444 165.767 81.444ZM165.767 82.48C166.985 82.48 167.853 83.796 167.853 85.826C167.853 87.87 166.985 89.186 165.767 89.186C164.535 89.186 163.667 87.87 163.667 85.826C163.667 83.796 164.535 82.48 165.767 82.48ZM180.394 86.708H177.006V84.44H180.394V86.708ZM181.528 84.958H184.426V89.774H185.588V80.478H184.426V84.02H181.528V81.318H180.394V83.53H177.006V81.318H175.872V87.632H181.528V84.958ZM178.658 91.818V88.864H177.51V92.756H185.882V91.818H178.658ZM199.36 84.972C197.68 85.308 196.224 85.406 193.788 85.406V82.13H198.198V81.206H192.654V86.33H193.62C196.21 86.33 197.736 86.246 199.5 85.882L199.36 84.972ZM195.02 90.53H201.838V87.436H193.858V88.346H200.704V89.662H193.9V92.868H202.3V91.944H195.02V90.53ZM201.838 83.124V80.478H200.69V86.792H201.838V84.062H203.7V83.124H201.838ZM214.601 81.906C216.519 81.906 217.821 82.62 217.821 83.726C217.821 84.846 216.519 85.56 214.601 85.56C212.697 85.56 211.395 84.846 211.395 83.726C211.395 82.62 212.697 81.906 214.601 81.906ZM214.601 86.484C217.219 86.484 218.997 85.42 218.997 83.726C218.997 82.046 217.219 80.982 214.601 80.982C211.997 80.982 210.219 82.046 210.219 83.726C210.219 85.42 211.997 86.484 214.601 86.484ZM220.313 87.674H208.945V88.626H214.027V93.05H215.175V88.626H220.313V87.674ZM223.95 86.12H228.584V81.64H222.76V82.578H227.422V85.196H222.802V90.012H223.838C225.994 90.012 227.898 89.928 230.166 89.55L230.054 88.612C227.856 88.962 226.008 89.06 223.95 89.06V86.12ZM231.23 80.464V93.05H232.378V80.464H231.23ZM247.718 85.476H241.488V83.628H247.718V85.476ZM248.866 80.982H247.718V82.704H241.488V80.982H240.354V86.414H248.866V80.982ZM250.308 87.926H238.912V88.85H244.008V93.05H245.156V88.85H250.308V87.926ZM253.637 82.942H257.179V82.004H252.503V89.942H253.329C255.205 89.942 256.479 89.886 257.977 89.564L257.879 88.612C256.507 88.906 255.317 88.976 253.637 88.99V82.942ZM261.617 80.478V85.518H259.839V80.758H258.761V92.406H259.839V86.456H261.617V93.036H262.723V80.478H261.617ZM275.249 84.258H267.857V80.94H266.709V85.196H275.249V84.258ZM267.773 89.06H266.625V92.728H275.319V91.79H267.773V89.06ZM265.169 86.876V87.8H276.551V86.876H265.169ZM287.299 85.686H283.743V82.158H287.299V85.686ZM291.219 83.152V84.636H288.419V83.152H291.219ZM288.419 85.532H291.219V87.716H292.367V80.492H291.219V82.256H288.419V81.248H282.623V86.596H288.419V85.532ZM292.661 89.41V88.542H288.979V87.338H287.817V88.542H284.135V89.41H287.803C287.803 90.656 285.801 91.86 283.631 92.112L284.009 92.98C285.913 92.728 287.649 91.874 288.405 90.684C289.133 91.846 290.813 92.728 292.717 92.98L293.109 92.112C290.939 91.846 288.979 90.614 288.979 89.41H292.661ZM308.925 84.328H301.463V81.906H308.841V80.982H300.315V85.252H308.925V84.328ZM304.557 92.126C302.583 92.126 301.421 91.636 301.421 90.754C301.421 89.872 302.583 89.382 304.557 89.382C306.531 89.382 307.693 89.872 307.693 90.754C307.693 91.636 306.517 92.126 304.557 92.126ZM304.557 88.486C301.883 88.486 300.259 89.298 300.259 90.754C300.259 92.21 301.883 93.022 304.557 93.022C307.231 93.022 308.855 92.21 308.855 90.754C308.855 89.298 307.231 88.486 304.557 88.486ZM298.887 86.456V87.408H310.255V86.456H298.887ZM323.648 84.874H325.23V88.262H326.336V80.492H325.23V83.936H323.648V80.674H322.57V88.066H323.648V84.874ZM322.052 81.92H319.434V80.548H318.3V81.92H315.668V82.83H322.038L322.052 81.92ZM318.874 84.314C319.854 84.314 320.526 84.832 320.526 85.616C320.526 86.4 319.854 86.904 318.874 86.904C317.88 86.904 317.222 86.4 317.222 85.616C317.222 84.832 317.88 84.314 318.874 84.314ZM318.874 87.758C320.456 87.758 321.548 86.904 321.548 85.616C321.548 84.314 320.456 83.46 318.874 83.46C317.292 83.46 316.186 84.314 316.186 85.616C316.186 86.904 317.292 87.758 318.874 87.758ZM324.796 88.626H323.662V89.06C323.662 89.984 323.074 91.188 321.898 91.888C320.736 91.244 320.162 90.124 320.162 89.06V88.626H319.056V89.06C319.056 90.208 318.104 91.496 316.536 92.028L317.068 92.882C318.272 92.448 319.14 91.622 319.602 90.642C319.98 91.664 320.722 92.546 321.926 92.994C323.088 92.518 323.844 91.594 324.222 90.6C324.642 91.622 325.524 92.448 326.784 92.882L327.316 92.028C325.734 91.524 324.796 90.292 324.796 89.06V88.626ZM334.537 81.556C336.595 81.556 337.771 82.032 337.771 82.872C337.771 83.712 336.595 84.188 334.537 84.188C332.479 84.188 331.303 83.712 331.303 82.872C331.303 82.032 332.479 81.556 334.537 81.556ZM334.537 85.042C337.295 85.042 338.947 84.286 338.947 82.872C338.947 81.458 337.295 80.688 334.537 80.688C331.779 80.688 330.127 81.458 330.127 82.872C330.127 84.286 331.779 85.042 334.537 85.042ZM331.387 90.726H338.765V87.898H330.225V88.766H337.631V89.886H330.267V92.896H339.143V92H331.387V90.726ZM328.853 85.896V86.82H340.221V85.896H328.853ZM342.36 81.836V82.788H344.67C344.544 85.308 343.816 87.632 341.954 89.564L342.85 90.208C345.132 87.8 345.762 84.86 345.762 81.836H342.36ZM346.182 81.836V82.788H348.114C348.016 85.448 347.456 88.192 345.524 90.418L346.448 91.048C348.758 88.318 349.192 84.86 349.192 81.836H346.182ZM353.728 85.658H351.866V80.478H350.718V93.036H351.866V86.61H353.728V85.658ZM358.095 89.1973H356.823C356.828 88.7598 356.867 88.402 356.939 88.124C357.017 87.8415 357.142 87.584 357.315 87.3516C357.489 87.1191 357.719 86.8548 358.006 86.5586C358.215 86.3444 358.407 86.1439 358.58 85.957C358.758 85.7656 358.901 85.5605 359.011 85.3418C359.12 85.1185 359.175 84.8519 359.175 84.542C359.175 84.2275 359.118 83.9564 359.004 83.7285C358.895 83.5007 358.73 83.3252 358.512 83.2021C358.298 83.0791 358.031 83.0176 357.712 83.0176C357.448 83.0176 357.197 83.0654 356.96 83.1611C356.723 83.2568 356.532 83.4049 356.386 83.6055C356.24 83.8014 356.165 84.0589 356.16 84.3779H354.896C354.905 83.863 355.032 83.4209 355.278 83.0518C355.529 82.6826 355.866 82.4001 356.29 82.2041C356.714 82.0081 357.188 81.9102 357.712 81.9102C358.291 81.9102 358.783 82.015 359.188 82.2246C359.599 82.4342 359.911 82.735 360.125 83.127C360.339 83.5143 360.446 83.9746 360.446 84.5078C360.446 84.918 360.362 85.2962 360.193 85.6426C360.029 85.9844 359.817 86.3057 359.558 86.6064C359.298 86.9072 359.022 87.1943 358.73 87.4678C358.48 87.7002 358.311 87.9622 358.225 88.2539C358.138 88.5456 358.095 88.86 358.095 89.1973ZM356.769 91.3643C356.769 91.1592 356.832 90.986 356.96 90.8447C357.088 90.7035 357.272 90.6328 357.514 90.6328C357.76 90.6328 357.947 90.7035 358.074 90.8447C358.202 90.986 358.266 91.1592 358.266 91.3643C358.266 91.5602 358.202 91.7288 358.074 91.8701C357.947 92.0114 357.76 92.082 357.514 92.082C357.272 92.082 357.088 92.0114 356.96 91.8701C356.832 91.7288 356.769 91.5602 356.769 91.3643Z" fill="#78798D"/>
<rect x="262" y="121" width="99" height="32" rx="8" fill="#9155EB"/>
<path d="M278.97 132.718H281.756V131.766H274.966V132.718H277.836V134.314C277.836 136.442 276.324 138.822 274.532 139.718L275.204 140.628C276.618 139.9 277.836 138.304 278.41 136.47C278.984 138.15 280.16 139.62 281.56 140.32L282.218 139.396C280.398 138.542 278.97 136.316 278.97 134.314V132.718ZM286.474 135.546H284.402V130.492H283.254V143.036H284.402V136.512H286.474V135.546ZM292.595 131.668H291.489V134.062C291.489 136.218 290.453 138.472 288.731 139.48L289.445 140.334C290.691 139.564 291.601 138.15 292.049 136.484C292.497 138.01 293.337 139.34 294.527 140.068L295.185 139.172C293.533 138.164 292.595 136.036 292.595 134.02V131.668ZM295.899 134.986H293.827V135.938H295.899V142.42H296.977V130.758H295.899V134.986ZM298.447 130.478V143.036H299.539V130.478H298.447ZM307.06 139.284C305.898 139.284 305.058 138.472 305.058 137.338C305.058 136.218 305.898 135.406 307.06 135.406C308.222 135.406 309.076 136.218 309.076 137.338C309.076 138.472 308.222 139.284 307.06 139.284ZM307.06 134.454C305.268 134.454 303.966 135.644 303.966 137.338C303.966 139.06 305.268 140.236 307.06 140.236C308.88 140.236 310.168 139.06 310.168 137.338C310.168 135.644 308.88 134.454 307.06 134.454ZM307.62 130.604H306.472V132.508H303.28V133.446H310.812V132.508H307.62V130.604ZM312.128 130.478V143.036H313.276V130.478H312.128ZM324.343 134.552H330.755V136.862H324.343V134.552ZM328.123 140.488V137.786H331.875V131.374H330.755V133.614H324.343V131.374H323.209V137.786H326.961V140.488H321.865V141.426H333.247V140.488H328.123ZM336.736 131.836V132.76H341.454C341.216 135.742 339.536 138.15 336.162 139.76L336.778 140.698C340.95 138.654 342.616 135.462 342.616 131.836H336.736ZM345.15 130.478V143.036H346.298V130.478H345.15Z" fill="white"/>
</g>
<defs>
<filter id="filter0_dd_207_474" x="0" y="0" width="400" height="212" filterUnits="userSpaceOnUse" color-interpolation-filters="sRGB">
<feFlood flood-opacity="0" result="BackgroundImageFix"/>
<feColorMatrix in="SourceAlpha" type="matrix" values="0 0 0 0 0 0 0 0 0 0 0 0 0 0 0 0 0 0 127 0" result="hardAlpha"/>
<feOffset dy="4"/>
<feGaussianBlur stdDeviation="4"/>
<feComposite in2="hardAlpha" operator="out"/>
<feColorMatrix type="matrix" values="0 0 0 0 0 0 0 0 0 0 0 0 0 0 0 0 0 0 0.05 0"/>
<feBlend mode="normal" in2="BackgroundImageFix" result="effect1_dropShadow_207_474"/>
<feColorMatrix in="SourceAlpha" type="matrix" values="0 0 0 0 0 0 0 0 0 0 0 0 0 0 0 0 0 0 127 0" result="hardAlpha"/>
<feOffset dy="2"/>
<feGaussianBlur stdDeviation="2"/>
<feComposite in2="hardAlpha" operator="out"/>
<feColorMatrix type="matrix" values="0 0 0 0 0 0 0 0 0 0 0 0 0 0 0 0 0 0 0.04 0"/>
<feBlend mode="normal" in2="effect1_dropShadow_207_474" result="effect2_dropShadow_207_474"/>
<feBlend mode="normal" in="SourceGraphic" in2="effect2_dropShadow_207_474" result="shape"/>
</filter>
</defs>
</svg>
